<svg xmlns="http://www.w3.org/2000/svg" width="1228" height="268" viewBox="0 0 1228 268">
  <g id="그룹_18730" data-name="그룹 18730" transform="translate(-346 -2075)">
    <ellipse id="타원_94" data-name="타원 94" cx="134.5" cy="134" rx="134.5" ry="134" transform="translate(826 2075)" fill="#e5e5e5" opacity="0.49"/>
    <ellipse id="타원_92" data-name="타원 92" cx="135" cy="134" rx="135" ry="134" transform="translate(586 2075)" fill="#e5e5e5" opacity="0.49"/>
    <ellipse id="타원_93" data-name="타원 93" cx="134.5" cy="134" rx="134.5" ry="134" transform="translate(1066 2075)" fill="#e5e5e5" opacity="0.49"/>
    <ellipse id="타원_95" data-name="타원 95" cx="135" cy="134" rx="135" ry="134" transform="translate(1304 2075)" fill="#e5e5e5" opacity="0.49"/>
    <g id="그룹_18718" data-name="그룹 18718">
      <ellipse id="타원_91" data-name="타원 91" cx="135" cy="134" rx="135" ry="134" transform="translate(346 2075)" fill="#e5e5e5" opacity="0.49"/>
      <g id="타원_85" data-name="타원 85" transform="translate(368 2096)" fill="#fff" stroke="#ab0101" stroke-width="2">
        <ellipse cx="113" cy="112.5" rx="113" ry="112.5" stroke="none"/>
        <ellipse cx="113" cy="112.5" rx="112" ry="111.5" fill="none"/>
      </g>
    </g>
    <g id="타원_87" data-name="타원 87" transform="translate(848 2096)" fill="#fff" stroke="#ab0101" stroke-width="2">
      <ellipse cx="112" cy="112.5" rx="112" ry="112.5" stroke="none"/>
      <ellipse cx="112" cy="112.5" rx="111" ry="111.5" fill="none"/>
    </g>
    <g id="타원_86" data-name="타원 86" transform="translate(608 2096)" fill="#fff" stroke="#ab0101" stroke-width="2">
      <ellipse cx="113" cy="112.5" rx="113" ry="112.5" stroke="none"/>
      <ellipse cx="113" cy="112.5" rx="112" ry="111.5" fill="none"/>
    </g>
    <g id="타원_88" data-name="타원 88" transform="translate(1087 2096)" fill="#fff" stroke="#ab0101" stroke-width="2">
      <ellipse cx="113" cy="112.5" rx="113" ry="112.5" stroke="none"/>
      <ellipse cx="113" cy="112.5" rx="112" ry="111.5" fill="none"/>
    </g>
    <g id="타원_89" data-name="타원 89" transform="translate(1326 2096)" fill="#fff" stroke="#ab0101" stroke-width="2">
      <ellipse cx="113" cy="112.5" rx="113" ry="112.5" stroke="none"/>
      <ellipse cx="113" cy="112.5" rx="112" ry="111.5" fill="none"/>
    </g>
    <text id="원서접수" transform="translate(481 2221)" fill="#ab0101" font-size="28" font-family="NotoSansKR-Bold, Noto Sans KR" font-weight="700" letter-spacing="-0.025em"><tspan x="-50" y="0">원서접수</tspan></text>
    <text id="면접_및_학력평가" data-name="면접 및
학력평가" transform="translate(721 2190)" fill="#ab0101" font-size="28" font-family="NotoSansKR-Bold, Noto Sans KR" font-weight="700" letter-spacing="-0.025em"><tspan x="-40" y="0">면접 및</tspan><tspan x="-50" y="40">학력평가</tspan></text>
    <text id="_영어_수학_" data-name="(영어, 수학)" transform="translate(721 2262)" fill="#ab0101" font-size="20" font-family="NotoSansKR-Bold, Noto Sans KR" font-weight="700" letter-spacing="-0.025em"><tspan x="-48" y="0">(영어, 수학)</tspan></text>
    <text id="합격자_발표" data-name="합격자
발표" transform="translate(960 2203)" fill="#ab0101" font-size="28" font-family="NotoSansKR-Bold, Noto Sans KR" font-weight="700" letter-spacing="-0.025em"><tspan x="-37" y="0">합격자</tspan><tspan x="-25" y="40">발표</tspan></text>
    <text id="합격자_등록기간" data-name="합격자
등록기간" transform="translate(1200 2201)" fill="#ab0101" font-size="28" font-family="NotoSansKR-Bold, Noto Sans KR" font-weight="700" letter-spacing="-0.025em"><tspan x="-37" y="0">합격자</tspan><tspan x="-50" y="40">등록기간</tspan></text>
    <text id="입학" transform="translate(1439 2221)" fill="#ab0101" font-size="28" font-family="NotoSansKR-Bold, Noto Sans KR" font-weight="700" letter-spacing="-0.025em"><tspan x="-25" y="0">입학</tspan></text>
    <g id="그룹_18714" data-name="그룹 18714" transform="translate(-9 -207)">
      <g id="타원_90" data-name="타원 90" transform="translate(590 2399)" fill="#fff" stroke="#ab0101" stroke-width="2">
        <circle cx="19" cy="19" r="19" stroke="none"/>
        <circle cx="19" cy="19" r="18" fill="none"/>
      </g>
      <path id="패스_36037" data-name="패스 36037" d="M4779.961,10598.34h27.608l-6.135-9.718" transform="translate(-4189.961 -8179)" fill="none" stroke="#ab0101" stroke-width="2"/>
    </g>
    <g id="그룹_18717" data-name="그룹 18717" transform="translate(472 -207)">
      <g id="타원_90-2" data-name="타원 90" transform="translate(590 2399)" fill="#fff" stroke="#ab0101" stroke-width="2">
        <circle cx="19" cy="19" r="19" stroke="none"/>
        <circle cx="19" cy="19" r="18" fill="none"/>
      </g>
      <path id="패스_36037-2" data-name="패스 36037" d="M4779.961,10598.34h27.608l-6.135-9.718" transform="translate(-4189.961 -8179)" fill="none" stroke="#ab0101" stroke-width="2"/>
    </g>
    <g id="그룹_18715" data-name="그룹 18715" transform="translate(231 -207)">
      <g id="타원_90-3" data-name="타원 90" transform="translate(590 2399)" fill="#fff" stroke="#ab0101" stroke-width="2">
        <circle cx="19" cy="19" r="19" stroke="none"/>
        <circle cx="19" cy="19" r="18" fill="none"/>
      </g>
      <path id="패스_36037-3" data-name="패스 36037" d="M4779.961,10598.34h27.608l-6.135-9.718" transform="translate(-4189.961 -8179)" fill="none" stroke="#ab0101" stroke-width="2"/>
    </g>
    <g id="그룹_18716" data-name="그룹 18716" transform="translate(712 -207)">
      <g id="타원_90-4" data-name="타원 90" transform="translate(590 2399)" fill="#fff" stroke="#ab0101" stroke-width="2">
        <circle cx="19" cy="19" r="19" stroke="none"/>
        <circle cx="19" cy="19" r="18" fill="none"/>
      </g>
      <path id="패스_36037-4" data-name="패스 36037" d="M4779.961,10598.34h27.608l-6.135-9.718" transform="translate(-4189.961 -8179)" fill="none" stroke="#ab0101" stroke-width="2"/>
    </g>
  </g>
</svg>
