<svg xmlns="http://www.w3.org/2000/svg" width="769.5" height="106.927" viewBox="0 0 769.5 106.927">
  <g id="normal" transform="translate(-1021.75 -915.573)">
    <path id="패스_36275" data-name="패스 36275" d="M17593.145,12551.045h-84.852l4.98-5.592" transform="translate(-16363.383 -11578.469)" fill="none" stroke="#707070" stroke-linecap="round" stroke-linejoin="round" stroke-width="0.8"/>
    <text id="역량성적_5대_핵심역량" data-name="역량성적
5대 핵심역량" transform="translate(1070.75 969)" fill="#9a999a" font-size="18" font-family="NotoSansKR-Medium, Noto Sans KR" font-weight="500"><tspan x="-33" y="0">역량성적</tspan><tspan x="-48" y="26">5대 핵심역량</tspan></text>
    <g id="그룹_18862" data-name="그룹 18862" transform="translate(448.75 7)">
      <g id="그룹_18855" data-name="그룹 18855">
        <g id="그룹_18826" data-name="그룹 18826" transform="translate(-267.5 35.5)">
          <circle id="타원_125" data-name="타원 125" cx="53" cy="53" r="53" transform="translate(1504 874)" fill="#faf8f1"/>
          <path id="패스_36225" data-name="패스 36225" d="M1503.5,926.5a53,53,0,0,0,106,0" fill="none" stroke="#9a999a" stroke-width="0.855" stroke-dasharray="3 2"/>
          <path id="패스_36226" data-name="패스 36226" d="M1609.5,926.5a53,53,0,0,0-106,0" fill="none" stroke="#9a999a" stroke-width="0.855"/>
        </g>
      </g>
    </g>
    <g id="그룹_18860" data-name="그룹 18860" transform="translate(342.75 7)">
      <g id="그룹_18855-2" data-name="그룹 18855">
        <g id="그룹_18826-2" data-name="그룹 18826" transform="translate(-267.5 35.5)">
          <circle id="타원_125-2" data-name="타원 125" cx="53" cy="53" r="53" transform="translate(1504 874)" fill="#faf8f1"/>
          <path id="패스_36225-2" data-name="패스 36225" d="M1503.5,926.5a53,53,0,0,0,106,0" fill="none" stroke="#9a999a" stroke-width="0.855" stroke-dasharray="3 2"/>
          <path id="패스_36226-2" data-name="패스 36226" d="M1609.5,926.5a53,53,0,0,0-106,0" fill="none" stroke="#9a999a" stroke-width="0.855"/>
        </g>
        <g id="타원_126" data-name="타원 126" transform="translate(1338 959)" fill="#faf8f1" stroke="#9a999a" stroke-width="0.85">
          <circle cx="4" cy="4" r="4" stroke="none"/>
          <circle cx="4" cy="4" r="3.575" fill="none"/>
        </g>
      </g>
    </g>
    <g id="그룹_18861" data-name="그룹 18861" transform="translate(236.75 7)">
      <g id="그룹_18855-3" data-name="그룹 18855">
        <g id="그룹_18826-3" data-name="그룹 18826" transform="translate(-267.5 35.5)">
          <circle id="타원_125-3" data-name="타원 125" cx="53" cy="53" r="53" transform="translate(1504 874)" fill="#faf8f1"/>
          <path id="패스_36225-3" data-name="패스 36225" d="M1503.5,926.5a53,53,0,0,0,106,0" fill="none" stroke="#9a999a" stroke-width="0.855" stroke-dasharray="3 2"/>
          <path id="패스_36226-3" data-name="패스 36226" d="M1609.5,926.5a53,53,0,0,0-106,0" fill="none" stroke="#9a999a" stroke-width="0.855"/>
        </g>
        <g id="타원_126-2" data-name="타원 126" transform="translate(1338 959)" fill="#faf8f1" stroke="#9a999a" stroke-width="0.85">
          <circle cx="4" cy="4" r="4" stroke="none"/>
          <circle cx="4" cy="4" r="3.575" fill="none"/>
        </g>
      </g>
    </g>
    <g id="그룹_18859" data-name="그룹 18859" transform="translate(130.75 7)">
      <g id="그룹_18855-4" data-name="그룹 18855">
        <g id="그룹_18826-4" data-name="그룹 18826" transform="translate(-267.5 35.5)">
          <circle id="타원_125-4" data-name="타원 125" cx="53" cy="53" r="53" transform="translate(1504 874)" fill="#faf8f1"/>
          <path id="패스_36225-4" data-name="패스 36225" d="M1503.5,926.5a53,53,0,0,0,106,0" fill="none" stroke="#9a999a" stroke-width="0.855" stroke-dasharray="3 2"/>
          <path id="패스_36226-4" data-name="패스 36226" d="M1609.5,926.5a53,53,0,0,0-106,0" fill="none" stroke="#9a999a" stroke-width="0.855"/>
        </g>
        <g id="타원_126-3" data-name="타원 126" transform="translate(1338 959)" fill="#faf8f1" stroke="#9a999a" stroke-width="0.85">
          <circle cx="4" cy="4" r="4" stroke="none"/>
          <circle cx="4" cy="4" r="3.575" fill="none"/>
        </g>
      </g>
    </g>
    <text id="공동체" transform="translate(1526.75 993)" fill="#9a999a" font-size="13" font-family="NotoSansKR-Medium, Noto Sans KR" font-weight="500" letter-spacing="-0.025em"><tspan x="-17" y="0">공동체</tspan></text>
    <text id="의사소통" transform="translate(1420.75 993)" fill="#9a999a" font-size="13" font-family="NotoSansKR-Medium, Noto Sans KR" font-weight="500" letter-spacing="-0.025em"><tspan x="-23" y="0">의사소통</tspan></text>
    <text id="창의" transform="translate(1632.75 993)" fill="#9a999a" font-size="13" font-family="NotoSansKR-Medium, Noto Sans KR" font-weight="500" letter-spacing="-0.025em"><tspan x="-11" y="0">창의</tspan></text>
    <text id="학습" transform="translate(1737.75 993)" fill="#9a999a" font-size="13" font-family="NotoSansKR-Medium, Noto Sans KR" font-weight="500" letter-spacing="-0.025em"><tspan x="-11" y="0">학습</tspan></text>
    <g id="그룹_18858" data-name="그룹 18858" transform="translate(24.75 7)">
      <g id="그룹_18855-5" data-name="그룹 18855">
        <g id="그룹_18826-5" data-name="그룹 18826" transform="translate(-267.5 35.5)">
          <circle id="타원_125-5" data-name="타원 125" cx="53" cy="53" r="53" transform="translate(1503.5 873.5)" fill="#faf8f1"/>
          <path id="패스_36225-5" data-name="패스 36225" d="M1503.5,926.5a53,53,0,0,0,106,0" fill="none" stroke="#9a999a" stroke-width="0.85" stroke-dasharray="3 2"/>
          <path id="패스_36226-5" data-name="패스 36226" d="M1609.5,926.5a53,53,0,0,0-106,0" fill="none" stroke="#9a999a" stroke-width="0.85"/>
        </g>
        <g id="타원_126-4" data-name="타원 126" transform="translate(1338 959)" fill="#faf8f1" stroke="#ab0101" stroke-width="0.85">
          <circle cx="4" cy="4" r="4" stroke="none"/>
          <circle cx="4" cy="4" r="3.575" fill="none"/>
        </g>
      </g>
      <g id="그룹_18857" data-name="그룹 18857">
        <g id="타원_126-5" data-name="타원 126" transform="translate(1338 959)" fill="#faf8f1" stroke="#9a999a" stroke-width="0.85">
          <circle cx="4" cy="4" r="4" stroke="none"/>
          <circle cx="4" cy="4" r="3.575" fill="none"/>
        </g>
      </g>
    </g>
    <g id="구성_요소_20_9" data-name="구성 요소 20 – 9" transform="translate(1298 940)">
      <g id="그룹_18828" data-name="그룹 18828" transform="translate(-1199.578 -900.328)">
        <g id="그룹_18827" data-name="그룹 18827">
          <rect id="사각형_24161" data-name="사각형 24161" width="21.839" height="31.353" transform="translate(1206.246 901.55)" fill="#e8e8e8" stroke="#9a999a" stroke-width="0.798"/>
          <rect id="사각형_24162" data-name="사각형 24162" width="18.491" height="27.363" transform="translate(1207.919 903.546)" fill="#faf8f1"/>
          <path id="패스_36227" data-name="패스 36227" d="M1221.27,901.529h-2.905a1.2,1.2,0,1,0-2.4,0h-2.9a.491.491,0,0,0-.49.489v1.391a.491.491,0,0,0,.49.489h8.209a.49.49,0,0,0,.489-.489v-1.391A.49.49,0,0,0,1221.27,901.529Z" fill="#e8e8e8" stroke="#9a999a" stroke-width="0.798"/>
          <rect id="사각형_24163" data-name="사각형 24163" width="3.056" height="3.056" transform="translate(1210.274 907.212)" fill="#e8e8e8" stroke="#9a999a" stroke-width="0.277"/>
          <rect id="사각형_24164" data-name="사각형 24164" width="3.056" height="3.056" transform="translate(1210.274 913.111)" fill="#e8e8e8" stroke="#9a999a" stroke-width="0.277"/>
          <rect id="사각형_24165" data-name="사각형 24165" width="3.056" height="3.056" transform="translate(1210.274 919.01)" fill="#e8e8e8" stroke="#9a999a" stroke-width="0.277"/>
          <rect id="사각형_24166" data-name="사각형 24166" width="3.056" height="3.056" transform="translate(1210.274 924.909)" fill="#e8e8e8" stroke="#9a999a" stroke-width="0.277"/>
          <path id="패스_36228" data-name="패스 36228" d="M1204.448,924.573s.005.122,0,.58a1.714,1.714,0,0,1-.766,1.559,14.246,14.246,0,0,1-1.573.8,6.85,6.85,0,0,0-1.293.983,3.905,3.905,0,0,0-1.225,2.781c0,.126-.013,1.628-.013,1.628h11.675s-.011-1.5-.013-1.628a3.9,3.9,0,0,0-1.224-2.781,6.857,6.857,0,0,0-1.294-.983,14.231,14.231,0,0,1-1.572-.8,1.712,1.712,0,0,1-.766-1.559c-.005-.458,0-.58,0-.58s-.005-.122,0-.58a1.713,1.713,0,0,1,.766-1.559,14.047,14.047,0,0,1,1.572-.8,6.821,6.821,0,0,0,1.294-.984,3.9,3.9,0,0,0,1.224-2.781c0-.125.013-1.627.013-1.627h-11.675s.011,1.5.013,1.627a3.905,3.905,0,0,0,1.225,2.781,6.815,6.815,0,0,0,1.293.984,14.061,14.061,0,0,1,1.573.8,1.715,1.715,0,0,1,.766,1.559C1204.453,924.451,1204.448,924.573,1204.448,924.573Z" fill="#faf8f1" stroke="#9a999a" stroke-width="0.798"/>
          <path id="패스_36229" data-name="패스 36229" d="M1208.2,928.9a2.793,2.793,0,0,0-5.561,0,2.525,2.525,0,0,0-1.9,2.987h9.364A2.525,2.525,0,0,0,1208.2,928.9Z" fill="#9a999a"/>
          <path id="패스_36230" data-name="패스 36230" d="M1203.315,920.557a2.114,2.114,0,1,0,4.2,0Z" fill="#9a999a"/>
          <line id="선_67" data-name="선 67" x2="9.958" transform="translate(1214.76 907.772)" fill="none" stroke="#e8e8e8" stroke-width="0.932"/>
          <line id="선_68" data-name="선 68" x2="9.958" transform="translate(1214.76 909.497)" fill="none" stroke="#e8e8e8" stroke-width="0.932"/>
          <line id="선_69" data-name="선 69" x2="9.958" transform="translate(1214.76 913.737)" fill="none" stroke="#e8e8e8" stroke-width="0.932"/>
          <line id="선_70" data-name="선 70" x2="9.958" transform="translate(1214.76 915.462)" fill="none" stroke="#e8e8e8" stroke-width="0.932"/>
          <line id="선_71" data-name="선 71" x2="9.958" transform="translate(1214.76 919.702)" fill="none" stroke="#e8e8e8" stroke-width="0.932"/>
          <line id="선_72" data-name="선 72" x2="9.958" transform="translate(1214.76 921.427)" fill="none" stroke="#e8e8e8" stroke-width="0.932"/>
          <line id="선_73" data-name="선 73" x2="9.958" transform="translate(1214.76 925.667)" fill="none" stroke="#e8e8e8" stroke-width="0.932"/>
          <line id="선_74" data-name="선 74" x2="9.958" transform="translate(1214.76 927.392)" fill="none" stroke="#e8e8e8" stroke-width="0.932"/>
        </g>
      </g>
    </g>
    <text id="자기관리" transform="translate(1314.75 993)" fill="#9a999a" font-size="13" font-family="NotoSansKR-Medium, Noto Sans KR" font-weight="500" letter-spacing="-0.025em"><tspan x="-23" y="0">자기관리</tspan></text>
    <g id="구성_요소_22_2" data-name="구성 요소 22 – 2" transform="translate(1406 938)">
      <g id="그룹_18834" data-name="그룹 18834" transform="translate(-1329.41 -897.892)">
        <path id="패스_36240" data-name="패스 36240" d="M1355.965,914.62v-4.985a1.812,1.812,0,0,1,1.812-1.812h0a1.812,1.812,0,0,1,1.813,1.812v8.517a3.293,3.293,0,0,1-1.064,2.546l-4.969,4.969v6.128" fill="none" stroke="#9a999a" stroke-width="0.798"/>
        <path id="패스_36241" data-name="패스 36241" d="M1352.505,920.572l3.564-3.564a1.593,1.593,0,0,0,0-2.253h0a1.593,1.593,0,0,0-2.253,0l-6.508,6.509a2.75,2.75,0,0,0-.7,2.1v10.374" fill="none" stroke="#9a999a" stroke-width="0.798"/>
        <path id="패스_36242" data-name="패스 36242" d="M1333.035,914.62v-4.985a1.812,1.812,0,0,0-1.812-1.812h0a1.812,1.812,0,0,0-1.813,1.812v8.517a3.293,3.293,0,0,0,1.064,2.546l4.969,4.969v6.128" fill="none" stroke="#9a999a" stroke-width="0.798"/>
        <path id="패스_36243" data-name="패스 36243" d="M1336.495,920.572l-3.564-3.564a1.593,1.593,0,0,1,0-2.253h0a1.593,1.593,0,0,1,2.253,0l6.509,6.509a2.752,2.752,0,0,1,.7,2.1v10.374" fill="none" stroke="#9a999a" stroke-width="0.798"/>
        <g id="그룹_18833" data-name="그룹 18833">
          <path id="패스_36244" data-name="패스 36244" d="M1352.323,905.716a7.823,7.823,0,1,0-9.4,7.663l1.58,2.737,1.58-2.737A7.826,7.826,0,0,0,1352.323,905.716Z" fill="#e8e8e8" stroke="#9a999a" stroke-linecap="round" stroke-linejoin="round" stroke-width="0.798"/>
          <circle id="타원_130" data-name="타원 130" cx="0.646" cy="0.646" r="0.646" transform="translate(1339.916 905.106)" fill="#9a999a"/>
          <circle id="타원_131" data-name="타원 131" cx="0.646" cy="0.646" r="0.646" transform="translate(1343.854 905.106)" fill="#9a999a"/>
          <circle id="타원_132" data-name="타원 132" cx="0.646" cy="0.646" r="0.646" transform="translate(1347.792 905.106)" fill="#9a999a"/>
        </g>
      </g>
    </g>
    <g id="구성_요소_21_2" data-name="구성 요소 21 – 2" transform="translate(1504 936)">
      <g id="그룹_18836" data-name="그룹 18836" transform="translate(-1427.809 -894.203)">
        <g id="그룹_18835" data-name="그룹 18835">
          <path id="패스_36245" data-name="패스 36245" d="M1472.305,914.306a3.525,3.525,0,1,0-6.261-2.223c0,.059.006.117.009.175l-.865.016a4.678,4.678,0,0,1-2.6-.726l-1.148-.808a1.765,1.765,0,0,0-.342-.184,1.68,1.68,0,0,0-1.641-.872,4.618,4.618,0,0,1-4.5-2.355,3.068,3.068,0,0,0-1.711-1.3,3.109,3.109,0,0,0,.42-1.539,3.141,3.141,0,0,0-6.282,0,1.687,1.687,0,0,1-1.32,2.841,4.618,4.618,0,0,1-4.5,2.355,1.679,1.679,0,0,0-1.635.862,1.7,1.7,0,0,0-.374.194l-1.148.808a4.671,4.671,0,0,1-2.6.726l-.865-.016c0-.058.009-.116.009-.175a3.527,3.527,0,1,0-6.261,2.223,6.415,6.415,0,0,0-.886,3.228v9.74a.7.7,0,1,0,1.4,0v-9.74a5.016,5.016,0,0,1,.581-2.332,3.477,3.477,0,0,0,2.59.274l.671.362a2.356,2.356,0,0,1,1.215,1.753l.216,1.583a7.778,7.778,0,0,0,2.074,4.323l.671.707a2.053,2.053,0,0,0-.88.562l-.032-.024a9.574,9.574,0,0,1-3.427-5.459l-.153-.7a.7.7,0,0,0-1.366.3l.153.7a10.972,10.972,0,0,0,3.93,6.258l.347.273a2.058,2.058,0,0,0,1.851,2.11,18.008,18.008,0,0,0,4.937-.144,8.509,8.509,0,0,0,3.3-1.279l-.533,6.31a.7.7,0,0,0,.638.756l.06,0a.7.7,0,0,0,.7-.64l.693-8.21a.7.7,0,0,0-1.28-.444c-1.791,2.716-6.859,2.415-8.369,2.258a.67.67,0,0,1-.49-.293.668.668,0,0,1,.617-1.039c4.762.48,6.906-1.406,7.866-3.074a3.1,3.1,0,0,1,2.065-1.24l.356-.074a3.844,3.844,0,0,0,4.641.007l.327.067a3.107,3.107,0,0,1,2.065,1.24c1.739,3.021,5.237,3.339,7.865,3.074a.669.669,0,0,1,.127,1.332c-2.274.237-6.39.251-8.4-2.3a.7.7,0,0,0-1.246.491l.694,8.21a.7.7,0,0,0,.7.64l.059,0a.7.7,0,0,0,.638-.756l-.541-6.406c2.541,1.768,6.119,1.74,8.248,1.519a2.059,2.059,0,0,0,1.852-2.13l.321-.253a10.972,10.972,0,0,0,3.93-6.258l.153-.7a.7.7,0,0,0-1.366-.3l-.153.7a9.574,9.574,0,0,1-3.427,5.459l-.017.012a2.053,2.053,0,0,0-.889-.557l.665-.7a7.778,7.778,0,0,0,2.074-4.323l.216-1.583a2.356,2.356,0,0,1,1.215-1.753l.671-.362a3.477,3.477,0,0,0,2.59-.274,5.016,5.016,0,0,1,.581,2.332v9.74a.7.7,0,1,0,1.4,0v-9.74A6.415,6.415,0,0,0,1472.305,914.306Zm-21.778-11.561a1.742,1.742,0,1,1-1.743,1.743A1.744,1.744,0,0,1,1450.527,902.745Zm-21.226,9.338a2.128,2.128,0,1,1,2.129,2.128A2.131,2.131,0,0,1,1429.3,912.083Zm18.756,5.939a2.476,2.476,0,1,1,2.475,2.475A2.477,2.477,0,0,1,1448.057,918.022Zm17.293-.62-.215,1.583a6.381,6.381,0,0,1-1.7,3.549l-1.445,1.523a.735.735,0,0,0-.073.115c-2.653.063-4.49-.753-5.463-2.442a4.134,4.134,0,0,0-2.55-1.8,3.874,3.874,0,1,0-6.743-.009,4.148,4.148,0,0,0-2.584,1.811c-.976,1.694-2.823,2.51-5.489,2.441a.615.615,0,0,0-.072-.114l-1.445-1.523a6.381,6.381,0,0,1-1.7-3.549l-.215-1.583a3.762,3.762,0,0,0-1.833-2.731,3.551,3.551,0,0,0,.767-1.021l1.2.023a6.074,6.074,0,0,0,3.387-.954l.026-.018,1.162-.817a.383.383,0,0,1,.6.355.379.379,0,0,1-.143.259l-.782.617a8.245,8.245,0,0,1-3.162,1.458l-.6.134a.7.7,0,0,0,.153,1.382.742.742,0,0,0,.154-.017l.595-.134a9.665,9.665,0,0,0,3.7-1.71l.013-.01.788-.622a1.768,1.768,0,0,0,.436-.506,7.491,7.491,0,0,0,4.869-1.314l-.081,1.505a.7.7,0,0,0,.661.736h.038a.7.7,0,0,0,.7-.662l.192-3.565a.7.7,0,0,0-1.317-.364c-.573,1.088-1.889,2.333-4.889,2.273a1.779,1.779,0,0,0-.317-.608,5.917,5.917,0,0,0,5.3-3.065,2.045,2.045,0,0,1,1.357-.8l.28-.058a3.054,3.054,0,0,0,3.216.005l.259.053a2.044,2.044,0,0,1,1.357.8,5.918,5.918,0,0,0,5.277,3.066,1.776,1.776,0,0,0-.316.608c-2.98.052-4.291-1.188-4.864-2.274a.7.7,0,0,0-1.317.356l.155,3.566a.7.7,0,0,0,.7.669h.031a.7.7,0,0,0,.668-.729l-.066-1.529a7.454,7.454,0,0,0,4.867,1.331,1.78,1.78,0,0,0,.435.506l.788.622.013.01a9.665,9.665,0,0,0,3.7,1.71l.595.134a.742.742,0,0,0,.154.017.7.7,0,0,0,.153-1.382l-.6-.134a8.245,8.245,0,0,1-3.162-1.458l-.782-.617a.383.383,0,0,1-.058-.544.384.384,0,0,1,.516-.07l1.162.817.026.018a6.073,6.073,0,0,0,3.387.954l1.2-.023a3.551,3.551,0,0,0,.767,1.021A3.762,3.762,0,0,0,1465.35,917.4Zm2.092-5.319a2.128,2.128,0,1,1,2.128,2.128A2.131,2.131,0,0,1,1467.442,912.083Z" fill="#9a999a" stroke="#faf8f1" stroke-width="0.369"/>
        </g>
        <path id="패스_36246" data-name="패스 36246" d="M1453.327,895.957c0,1.694-3.067,3.844-3.067,3.844s-3.067-2.15-3.067-3.844a1.547,1.547,0,1,1,3.067,0A1.547,1.547,0,1,1,1453.327,895.957Z" fill="#e8e8e8" stroke="#9a999a" stroke-linecap="round" stroke-linejoin="round" stroke-width="0.798"/>
      </g>
    </g>
    <g id="구성_요소_23_2" data-name="구성 요소 23 – 2" transform="translate(1617 939)">
      <g id="그룹_18837" data-name="그룹 18837" transform="translate(-1540.736 -897.624)">
        <path id="패스_36247" data-name="패스 36247" d="M1565.283,913.131a8.783,8.783,0,1,0-14.276,6.851v1.657a1.933,1.933,0,0,0,1.928,1.927h7.13a1.933,1.933,0,0,0,1.928-1.927v-1.657A8.763,8.763,0,0,0,1565.283,913.131Z" fill="none" stroke="#9a999a" stroke-linecap="round" stroke-linejoin="round" stroke-width="0.798"/>
        <rect id="사각형_24173" data-name="사각형 24173" width="4.559" height="2.714" rx="1.357" transform="translate(1554.221 929.549)" fill="#e8e8e8" stroke="#9a999a" stroke-linecap="round" stroke-linejoin="round" stroke-width="0.798"/>
        <rect id="사각형_24174" data-name="사각형 24174" width="8.608" height="2.174" rx="1.087" transform="translate(1552.196 923.566)" fill="#e8e8e8" stroke="#9a999a" stroke-linecap="round" stroke-linejoin="round" stroke-width="0.798"/>
        <rect id="사각형_24175" data-name="사각형 24175" width="8.608" height="2.174" rx="1.087" transform="translate(1552.196 925.741)" fill="#e8e8e8" stroke="#9a999a" stroke-linecap="round" stroke-linejoin="round" stroke-width="0.798"/>
        <rect id="사각형_24176" data-name="사각형 24176" width="7.133" height="2.174" rx="1.087" transform="translate(1552.933 927.915)" fill="#e8e8e8" stroke="#9a999a" stroke-linecap="round" stroke-linejoin="round" stroke-width="0.798"/>
        <line id="선_83" data-name="선 83" y2="4.648" transform="translate(1556.5 897.624)" fill="#e8e8e8" stroke="#9a999a" stroke-linecap="round" stroke-linejoin="round" stroke-width="0.798"/>
        <line id="선_84" data-name="선 84" x2="2.324" y2="4.025" transform="translate(1548.618 899.736)" fill="#e8e8e8" stroke="#9a999a" stroke-linecap="round" stroke-linejoin="round" stroke-width="0.798"/>
        <line id="선_85" data-name="선 85" x2="4.025" y2="2.324" transform="translate(1542.848 905.506)" fill="#e8e8e8" stroke="#9a999a" stroke-linecap="round" stroke-linejoin="round" stroke-width="0.798"/>
        <line id="선_86" data-name="선 86" x2="4.648" transform="translate(1540.736 913.388)" fill="#e8e8e8" stroke="#9a999a" stroke-linecap="round" stroke-linejoin="round" stroke-width="0.798"/>
        <line id="선_87" data-name="선 87" x2="4.648" transform="translate(1567.616 913.388)" fill="#e8e8e8" stroke="#9a999a" stroke-linecap="round" stroke-linejoin="round" stroke-width="0.798"/>
        <line id="선_88" data-name="선 88" y1="2.324" x2="4.025" transform="translate(1566.127 905.506)" fill="#e8e8e8" stroke="#9a999a" stroke-linecap="round" stroke-linejoin="round" stroke-width="0.798"/>
        <line id="선_89" data-name="선 89" y1="4.025" x2="2.324" transform="translate(1562.058 899.736)" fill="#e8e8e8" stroke="#9a999a" stroke-linecap="round" stroke-linejoin="round" stroke-width="0.798"/>
        <path id="패스_36248" data-name="패스 36248" d="M1556.5,923.566v-6.394l-2.479-2.479" fill="none" stroke="#9a999a" stroke-linecap="round" stroke-linejoin="round" stroke-width="0.798"/>
        <line id="선_90" data-name="선 90" y1="2.479" x2="2.479" transform="translate(1556.473 914.703)" fill="#e8e8e8" stroke="#9a999a" stroke-linecap="round" stroke-linejoin="round" stroke-width="0.798"/>
      </g>
    </g>
    <g id="구성_요소_24_2" data-name="구성 요소 24 – 2" transform="translate(1718 941)">
      <g id="그룹_18844" data-name="그룹 18844" transform="translate(-1642.757 -899.485)">
        <g id="그룹_18839" data-name="그룹 18839">
          <g id="그룹_18838" data-name="그룹 18838">
            <path id="패스_36249" data-name="패스 36249" d="M1680.77,911.934h-3.957v-1.371a.484.484,0,0,0-.484-.484h-1.536v-1a.484.484,0,0,0-.484-.484h-6.52a21.512,21.512,0,0,0-4.264.428l-1.025.208-1.025-.208a21.5,21.5,0,0,0-4.264-.428h-6.52a.484.484,0,0,0-.484.484v1h-1.536a.484.484,0,0,0-.484.484v1.371h-3.957a1.475,1.475,0,0,0-1.473,1.473v14.55a1.475,1.475,0,0,0,1.473,1.474h36.54a1.475,1.475,0,0,0,1.473-1.474v-14.55A1.475,1.475,0,0,0,1680.77,911.934Zm-4.925-.887v14.778H1664.73a1.09,1.09,0,0,0,.016-.162v-.591a.484.484,0,0,1,.484-.484h9.079a.484.484,0,0,0,.484-.485V911.047Zm-24.67-1.484h6.036a20.542,20.542,0,0,1,4.072.409l.733.149V924.1a.484.484,0,1,0,.968,0V910.121l.734-.149a20.541,20.541,0,0,1,4.071-.409h6.036v14.056h-8.595a1.454,1.454,0,0,0-1.452,1.453v.591a.162.162,0,0,1-.161.162h-2.234a.162.162,0,0,1-.161-.162v-.591a1.454,1.454,0,0,0-1.452-1.453h-8.595V909.563Zm-2.02,1.484h1.052V924.1a.484.484,0,0,0,.484.485h9.079a.484.484,0,0,1,.484.484v.591a1.09,1.09,0,0,0,.016.162h-11.115Zm32.12,16.91a.506.506,0,0,1-.505.506h-36.54a.506.506,0,0,1-.505-.506v-14.55a.506.506,0,0,1,.505-.505h3.957v13.407a.484.484,0,0,0,.484.484h27.658a.484.484,0,0,0,.484-.484V912.9h3.957a.506.506,0,0,1,.505.505Z" fill="#9a999a" stroke="#fff" stroke-width="0.1"/>
            <path id="패스_36250" data-name="패스 36250" d="M1653.257,912.346h6.059a.484.484,0,0,0,0-.969h-6.059a.484.484,0,0,0,0,.969Z" fill="#9a999a" stroke="#fff" stroke-width="0.1"/>
            <path id="패스_36251" data-name="패스 36251" d="M1653.257,914.85h6.059a.484.484,0,0,0,0-.969h-6.059a.484.484,0,0,0,0,.969Z" fill="#9a999a" stroke="#fff" stroke-width="0.1"/>
            <path id="패스_36252" data-name="패스 36252" d="M1653.257,917.354h6.059a.484.484,0,1,0,0-.968h-6.059a.484.484,0,1,0,0,.968Z" fill="#9a999a" stroke="#fff" stroke-width="0.1"/>
            <path id="패스_36253" data-name="패스 36253" d="M1653.257,919.858h1.462a.484.484,0,1,0,0-.968h-1.462a.484.484,0,1,0,0,.968Z" fill="#9a999a" stroke="#fff" stroke-width="0.1"/>
            <path id="패스_36254" data-name="패스 36254" d="M1665.684,912.346h6.059a.484.484,0,0,0,0-.969h-6.059a.484.484,0,0,0,0,.969Z" fill="#9a999a" stroke="#fff" stroke-width="0.1"/>
            <path id="패스_36255" data-name="패스 36255" d="M1665.684,914.85h6.059a.484.484,0,0,0,0-.969h-6.059a.484.484,0,0,0,0,.969Z" fill="#9a999a" stroke="#fff" stroke-width="0.1"/>
            <path id="패스_36256" data-name="패스 36256" d="M1665.684,917.354h6.059a.484.484,0,0,0,0-.968h-6.059a.484.484,0,0,0,0,.968Z" fill="#9a999a" stroke="#fff" stroke-width="0.1"/>
            <path id="패스_36257" data-name="패스 36257" d="M1665.684,919.858h6.059a.484.484,0,1,0,0-.968h-6.059a.484.484,0,1,0,0,.968Z" fill="#9a999a" stroke="#fff" stroke-width="0.1"/>
          </g>
        </g>
        <g id="그룹_18843" data-name="그룹 18843">
          <g id="그룹_18842" data-name="그룹 18842">
            <g id="그룹_18840" data-name="그룹 18840">
              <rect id="사각형_24177" data-name="사각형 24177" width="20.133" height="2.137" transform="translate(1656.179 915.383) rotate(-45)" fill="#e8e8e8"/>
              <rect id="사각형_24178" data-name="사각형 24178" width="20.133" height="2.137" transform="translate(1656.179 915.383) rotate(-45)" fill="none" stroke="#9a999a" stroke-linecap="round" stroke-linejoin="round" stroke-width="0.798"/>
            </g>
            <g id="그룹_18841" data-name="그룹 18841">
              <rect id="사각형_24179" data-name="사각형 24179" width="20.133" height="2.137" transform="translate(1657.69 916.894) rotate(-45)" fill="#e8e8e8"/>
              <rect id="사각형_24180" data-name="사각형 24180" width="20.133" height="2.137" transform="translate(1657.69 916.894) rotate(-45)" fill="none" stroke="#9a999a" stroke-linecap="round" stroke-linejoin="round" stroke-width="0.798"/>
            </g>
            <path id="패스_36258" data-name="패스 36258" d="M1655.072,919.512l4.129-1.106-3.023-3.023Z" fill="#fff" stroke="#9a999a" stroke-linecap="round" stroke-linejoin="round" stroke-width="0.798"/>
            <rect id="사각형_24181" data-name="사각형 24181" width="1.555" height="4.275" transform="translate(1670.415 901.146) rotate(-45)" fill="#e8e8e8" stroke="#9a999a" stroke-linecap="round" stroke-linejoin="round" stroke-width="0.798"/>
            <path id="패스_36259" data-name="패스 36259" d="M1674.72,901.054l-1.19-1.189a1.3,1.3,0,0,0-1.833,0l-.183.182,3.023,3.023.183-.183A1.3,1.3,0,0,0,1674.72,901.054Z" fill="#fff" stroke="#9a999a" stroke-linecap="round" stroke-linejoin="round" stroke-width="0.798"/>
          </g>
        </g>
      </g>
    </g>
  </g>
</svg>
