<svg xmlns="http://www.w3.org/2000/svg" xmlns:xlink="http://www.w3.org/1999/xlink" width="73.457" height="73.457" viewBox="0 0 73.457 73.457">
  <defs>
    <clipPath id="clip-path">
      <circle id="SVGID" cx="35.928" cy="35.928" r="35.928" fill="none"/>
    </clipPath>
  </defs>
  <g id="그룹_18652" data-name="그룹 18652" transform="translate(0.8 0.8)">
    <g id="그룹_18574" data-name="그룹 18574">
      <g id="그룹_18573" data-name="그룹 18573" clip-path="url(#clip-path)">
        <path id="패스_7799" data-name="패스 7799" d="M316.266,97.323a5.937,5.937,0,1,0-10.544-3.743c0,.1.01.2.015.295l-1.456.028a7.875,7.875,0,0,1-4.371-1.224l-1.935-1.361a2.935,2.935,0,0,0-.576-.309,2.825,2.825,0,0,0-2.764-1.468,7.776,7.776,0,0,1-7.58-3.967,5.179,5.179,0,0,0-2.883-2.193,5.216,5.216,0,0,0,.708-2.592,5.29,5.29,0,0,0-10.58,0,5.226,5.226,0,0,0,.7,2.58,5.2,5.2,0,0,0-2.923,2.2,7.78,7.78,0,0,1-7.58,3.967,2.824,2.824,0,0,0-2.753,1.45,2.976,2.976,0,0,0-.629.328l-1.934,1.361A7.89,7.89,0,0,1,254.81,93.9l-1.456-.028c.005-.1.015-.195.015-.295a5.939,5.939,0,1,0-10.544,3.743,10.8,10.8,0,0,0-1.493,5.437v16.4a1.177,1.177,0,1,0,2.355,0v-16.4a8.457,8.457,0,0,1,.977-3.928,5.866,5.866,0,0,0,4.362.463l1.129.608a3.974,3.974,0,0,1,2.047,2.951l.363,2.667a13.081,13.081,0,0,0,3.493,7.28l1.131,1.192a3.461,3.461,0,0,0-1.483.947l-.053-.041a16.125,16.125,0,0,1-5.772-9.194l-.257-1.172a1.177,1.177,0,1,0-2.3.505l.258,1.172a18.479,18.479,0,0,0,6.616,10.54l.585.46a3.464,3.464,0,0,0,3.118,3.552,30.341,30.341,0,0,0,8.314-.241,14.371,14.371,0,0,0,5.563-2.155l-.9,10.626a1.177,1.177,0,0,0,1.074,1.272c.034,0,.067,0,.1,0a1.178,1.178,0,0,0,1.172-1.078l1.168-13.825a1.177,1.177,0,0,0-2.156-.747c-3.016,4.573-11.55,4.066-14.093,3.8a1.124,1.124,0,0,1-.825-.493,1.125,1.125,0,0,1,1.04-1.75c8.019.808,11.629-2.368,13.245-5.176a5.226,5.226,0,0,1,3.478-2.089l.6-.124a6.475,6.475,0,0,0,7.816.011l.55.113A5.226,5.226,0,0,1,287.528,111c2.928,5.087,8.819,5.622,13.245,5.176a1.127,1.127,0,0,1,.214,2.243c-3.831.4-10.762.424-14.151-3.883a1.177,1.177,0,0,0-2.1.828l1.168,13.825a1.178,1.178,0,0,0,1.172,1.078c.033,0,.066,0,.1,0a1.177,1.177,0,0,0,1.074-1.272L287.34,118.2c4.28,2.978,10.306,2.93,13.891,2.558a3.47,3.47,0,0,0,3.12-3.588l.54-.424a18.48,18.48,0,0,0,6.617-10.54l.257-1.172a1.177,1.177,0,1,0-2.3-.505l-.258,1.172a16.121,16.121,0,0,1-5.772,9.193l-.027.022a3.455,3.455,0,0,0-1.5-.938l1.119-1.181a13.081,13.081,0,0,0,3.493-7.28l.364-2.667a3.973,3.973,0,0,1,2.046-2.951l1.13-.608a5.864,5.864,0,0,0,4.362-.463,8.457,8.457,0,0,1,.977,3.928v16.4a1.177,1.177,0,1,0,2.355,0v-16.4A10.8,10.8,0,0,0,316.266,97.323ZM279.591,77.855a2.935,2.935,0,1,1-2.935,2.935A2.938,2.938,0,0,1,279.591,77.855ZM243.847,93.58a3.584,3.584,0,1,1,3.583,3.584A3.588,3.588,0,0,1,243.847,93.58Zm31.585,10a4.169,4.169,0,1,1,4.168,4.168A4.174,4.174,0,0,1,275.431,103.582Zm29.123-1.045-.363,2.666a10.749,10.749,0,0,1-2.867,5.978l-2.434,2.565a1.14,1.14,0,0,0-.122.194c-4.468.106-7.562-1.269-9.2-4.114a6.97,6.97,0,0,0-4.3-3.036,6.523,6.523,0,1,0-11.355-.013,6.991,6.991,0,0,0-4.352,3.049c-1.643,2.854-4.754,4.226-9.244,4.11a1.131,1.131,0,0,0-.119-.191l-2.434-2.565A10.743,10.743,0,0,1,254.9,105.2l-.364-2.666a6.331,6.331,0,0,0-3.087-4.6,5.954,5.954,0,0,0,1.293-1.719l2.024.038a10.212,10.212,0,0,0,5.7-1.606l.044-.03,1.956-1.376a.649.649,0,0,1,.871.118.645.645,0,0,1-.1.916l-1.316,1.039a13.908,13.908,0,0,1-5.326,2.456l-1,.226a1.178,1.178,0,0,0,.257,2.326,1.193,1.193,0,0,0,.26-.029l1-.226a16.244,16.244,0,0,0,6.235-2.878l.023-.018,1.327-1.047a2.985,2.985,0,0,0,.734-.853,12.614,12.614,0,0,0,8.2-2.213L273.5,95.6a1.177,1.177,0,0,0,1.112,1.239l.065,0a1.178,1.178,0,0,0,1.175-1.114l.324-6.005a1.177,1.177,0,0,0-2.217-.613c-.966,1.832-3.182,3.931-8.234,3.828a3,3,0,0,0-.533-1.023,9.965,9.965,0,0,0,8.929-5.163,3.453,3.453,0,0,1,2.286-1.347l.471-.1a5.147,5.147,0,0,0,5.415.007l.437.09a3.449,3.449,0,0,1,2.285,1.347,9.969,9.969,0,0,0,8.886,5.164,2.992,2.992,0,0,0-.532,1.023c-5.02.089-7.227-2-8.191-3.83a1.177,1.177,0,0,0-2.218.6l.262,6a1.176,1.176,0,0,0,1.175,1.126h.052a1.178,1.178,0,0,0,1.125-1.228l-.113-2.575a12.557,12.557,0,0,0,8.2,2.242,3.011,3.011,0,0,0,.733.851l1.327,1.047.023.018a16.256,16.256,0,0,0,6.235,2.878l1,.226a1.2,1.2,0,0,0,.26.029A1.178,1.178,0,0,0,303.495,98l-1-.226a13.907,13.907,0,0,1-5.326-2.456l-1.316-1.039a.646.646,0,0,1,.771-1.035l1.956,1.376.044.03a10.215,10.215,0,0,0,5.7,1.606l2.024-.038a5.952,5.952,0,0,0,1.292,1.719A6.335,6.335,0,0,0,304.554,102.537Zm3.523-8.957a3.584,3.584,0,1,1,3.584,3.584A3.588,3.588,0,0,1,308.077,93.58Z" transform="translate(-243.213 -59.408)" fill="#898989" stroke="#fff" stroke-width="0.9"/>
      </g>
    </g>
    <circle id="타원_67" data-name="타원 67" cx="35.928" cy="35.928" r="35.928" fill="none" stroke="#898989" stroke-linecap="round" stroke-linejoin="round" stroke-width="1.6"/>
    <path id="패스_7800" data-name="패스 7800" d="M290.506,64.139c0,2.852-5.165,6.473-5.165,6.473s-5.165-3.62-5.165-6.473c0-3.774,5.165-4.1,5.165,0C285.341,60.042,290.506,60.365,290.506,64.139Z" transform="translate(-249.413 -57.123)" fill="#e3e3e3" stroke="#898989" stroke-linecap="round" stroke-linejoin="round" stroke-width="1.6"/>
  </g>
</svg>
