<svg xmlns="http://www.w3.org/2000/svg" width="73.457" height="73.457" viewBox="0 0 73.457 73.457">
  <g id="그룹_18653" data-name="그룹 18653" transform="translate(0.8 0.8)">
    <circle id="타원_63" data-name="타원 63" cx="35.928" cy="35.928" r="35.928" fill="#fff" stroke="#898989" stroke-width="1.6"/>
    <path id="패스_7794" data-name="패스 7794" d="M207.4,94.513V86.119a3.052,3.052,0,0,1,3.052-3.052h0a3.052,3.052,0,0,1,3.052,3.052v14.342a5.547,5.547,0,0,1-1.792,4.288l-8.369,8.369V129.5" transform="translate(-152.164 -60.615)" fill="#fff" stroke="#898989" stroke-width="1.6"/>
    <path id="패스_7795" data-name="패스 7795" d="M199.351,106.605l6-6a2.683,2.683,0,0,0,0-3.794h0a2.683,2.683,0,0,0-3.794,0L190.6,107.77a4.634,4.634,0,0,0-1.177,3.538v23.534" transform="translate(-149.942 -62.683)" fill="none" stroke="#898989" stroke-width="1.6"/>
    <path id="패스_7796" data-name="패스 7796" d="M161.062,94.513V86.119a3.052,3.052,0,0,0-3.052-3.052h0a3.053,3.053,0,0,0-3.053,3.052v14.342a5.55,5.55,0,0,0,1.792,4.288l8.369,8.369V129.5" transform="translate(-144.441 -60.615)" fill="#fff" stroke="#898989" stroke-width="1.6"/>
    <path id="패스_7797" data-name="패스 7797" d="M167.866,106.605l-6-6a2.682,2.682,0,0,1,0-3.794h0a2.683,2.683,0,0,1,3.794,0l10.961,10.961a4.634,4.634,0,0,1,1.177,3.538v23.534" transform="translate(-145.418 -62.683)" fill="none" stroke="#898989" stroke-width="1.6"/>
    <g id="그룹_18571" data-name="그룹 18571" transform="translate(22.754 5.729)">
      <path id="패스_7798" data-name="패스 7798" d="M195.868,76.342a13.174,13.174,0,1,0-15.836,12.905l2.662,4.61,2.662-4.61A13.178,13.178,0,0,0,195.868,76.342Z" transform="translate(-169.52 -63.168)" fill="#e3e3e3" stroke="#898989" stroke-linecap="round" stroke-linejoin="round" stroke-width="1.6"/>
      <circle id="타원_64" data-name="타원 64" cx="1.088" cy="1.088" r="1.088" transform="translate(5.453 12.148)" fill="#898989"/>
      <circle id="타원_65" data-name="타원 65" cx="1.088" cy="1.088" r="1.088" transform="translate(12.086 12.148)" fill="#898989"/>
      <circle id="타원_66" data-name="타원 66" cx="1.088" cy="1.088" r="1.088" transform="translate(18.718 12.148)" fill="#898989"/>
    </g>
  </g>
</svg>
