<svg xmlns="http://www.w3.org/2000/svg" xmlns:xlink="http://www.w3.org/1999/xlink" width="73.457" height="73.457" viewBox="0 0 73.457 73.457">
  <defs>
    <clipPath id="clip-path">
      <circle id="SVGID" cx="35.928" cy="35.928" r="35.928" fill="none"/>
    </clipPath>
  </defs>
  <g id="그룹_18650" data-name="그룹 18650" transform="translate(0.8 0.8)">
    <g id="그룹_18585" data-name="그룹 18585">
      <g id="그룹_18584" data-name="그룹 18584" clip-path="url(#clip-path)">
        <g id="그룹_18579" data-name="그룹 18579" transform="translate(-1.461 26.783)">
          <g id="그룹_18578" data-name="그룹 18578">
            <path id="패스_7803" data-name="패스 7803" d="M516.382,93.844h-10.8V91.536a.815.815,0,0,0-.815-.815h-2.586V89.037a.816.816,0,0,0-.815-.816h-10.98a36.226,36.226,0,0,0-7.181.721l-1.727.35-1.724-.35a36.228,36.228,0,0,0-7.182-.721h-10.98a.816.816,0,0,0-.815.816V90.72h-2.586a.815.815,0,0,0-.815.815v2.309H446.565a2.483,2.483,0,0,0-2.481,2.481v24.5a2.483,2.483,0,0,0,2.481,2.481h69.817a2.484,2.484,0,0,0,2.482-2.481v-24.5A2.484,2.484,0,0,0,516.382,93.844Zm-12.435-1.493v24.886H485.229a1.825,1.825,0,0,0,.028-.272v-1a.816.816,0,0,1,.815-.815h15.289a.815.815,0,0,0,.815-.815V92.351Zm-41.545-2.5h10.165a34.544,34.544,0,0,1,6.858.688l1.235.25v23.548a.815.815,0,0,0,1.63,0V90.79l1.235-.25a34.6,34.6,0,0,1,6.857-.687h10.165v23.671H486.072a2.448,2.448,0,0,0-2.446,2.446v1a.272.272,0,0,1-.272.272h-3.761a.272.272,0,0,1-.271-.272v-1a2.448,2.448,0,0,0-2.446-2.446H462.4V89.852Zm-3.4,2.5h1.771v21.987a.815.815,0,0,0,.815.815h15.289a.816.816,0,0,1,.815.815v1a1.941,1.941,0,0,0,.027.272H459Zm58.232,28.478a.851.851,0,0,1-.851.85H446.565a.851.851,0,0,1-.85-.85v-24.5a.851.851,0,0,1,.85-.85h10.806v22.577a.815.815,0,0,0,.815.815h46.576a.815.815,0,0,0,.815-.815V95.474h10.8a.851.851,0,0,1,.851.85Z" transform="translate(-444.084 -88.221)" fill="#898989" stroke="#fff" stroke-width="0.2"/>
            <path id="패스_7804" data-name="패스 7804" d="M469.9,95.427h10.2a.815.815,0,1,0,0-1.63H469.9a.815.815,0,1,0,0,1.63Z" transform="translate(-448.074 -89.111)" fill="#898989" stroke="#fff" stroke-width="0.2"/>
            <path id="패스_7805" data-name="패스 7805" d="M469.9,100.445h10.2a.816.816,0,0,0,0-1.631H469.9a.816.816,0,1,0,0,1.631Z" transform="translate(-448.074 -89.912)" fill="#898989" stroke="#fff" stroke-width="0.2"/>
            <path id="패스_7806" data-name="패스 7806" d="M469.9,105.463h10.2a.816.816,0,0,0,0-1.631H469.9a.816.816,0,1,0,0,1.631Z" transform="translate(-448.074 -90.713)" fill="#898989" stroke="#fff" stroke-width="0.2"/>
            <path id="패스_7807" data-name="패스 7807" d="M469.9,110.48h2.461a.815.815,0,1,0,0-1.63H469.9a.815.815,0,1,0,0,1.63Z" transform="translate(-448.074 -91.513)" fill="#898989" stroke="#fff" stroke-width="0.2"/>
            <path id="패스_7808" data-name="패스 7808" d="M494.8,95.427H505a.815.815,0,1,0,0-1.63H494.8a.815.815,0,1,0,0,1.63Z" transform="translate(-452.048 -89.111)" fill="#898989" stroke="#fff" stroke-width="0.2"/>
            <path id="패스_7809" data-name="패스 7809" d="M494.8,100.445H505a.816.816,0,0,0,0-1.631H494.8a.816.816,0,0,0,0,1.631Z" transform="translate(-452.048 -89.912)" fill="#898989" stroke="#fff" stroke-width="0.2"/>
            <path id="패스_7810" data-name="패스 7810" d="M494.8,105.463H505a.816.816,0,0,0,0-1.631H494.8a.816.816,0,0,0,0,1.631Z" transform="translate(-452.048 -90.713)" fill="#898989" stroke="#fff" stroke-width="0.2"/>
            <path id="패스_7811" data-name="패스 7811" d="M494.8,110.48H505a.815.815,0,0,0,0-1.63H494.8a.815.815,0,0,0,0,1.63Z" transform="translate(-452.048 -91.513)" fill="#898989" stroke="#fff" stroke-width="0.2"/>
          </g>
        </g>
        <g id="그룹_18583" data-name="그룹 18583" transform="translate(23.42 10.988)">
          <g id="그룹_18582" data-name="그룹 18582">
            <g id="그룹_18580" data-name="그룹 18580" transform="translate(1.863 3.251)">
              <rect id="사각형_23948" data-name="사각형 23948" width="33.905" height="3.6" transform="translate(0 23.974) rotate(-45)" fill="#e3e3e3"/>
              <rect id="사각형_23949" data-name="사각형 23949" width="33.905" height="3.6" transform="translate(0 23.974) rotate(-45)" fill="none" stroke="#898989" stroke-linecap="round" stroke-linejoin="round" stroke-width="1.6"/>
            </g>
            <g id="그룹_18581" data-name="그룹 18581" transform="translate(4.409 5.796)">
              <rect id="사각형_23950" data-name="사각형 23950" width="33.905" height="3.6" transform="translate(0 23.974) rotate(-45)" fill="#e3e3e3"/>
              <rect id="사각형_23951" data-name="사각형 23951" width="33.905" height="3.6" transform="translate(0 23.974) rotate(-45)" fill="none" stroke="#898989" stroke-linecap="round" stroke-linejoin="round" stroke-width="1.6"/>
            </g>
            <path id="패스_7812" data-name="패스 7812" d="M473.691,108.776l6.954-1.863-5.091-5.091Z" transform="translate(-473.691 -74.597)" fill="#fff" stroke="#898989" stroke-linecap="round" stroke-linejoin="round" stroke-width="1.6"/>
            <rect id="사각형_23952" data-name="사각형 23952" width="2.618" height="7.199" transform="translate(25.838 3.251) rotate(-45)" fill="#e3e3e3" stroke="#898989" stroke-linecap="round" stroke-linejoin="round" stroke-width="1.6"/>
            <path id="패스_7813" data-name="패스 7813" d="M512.809,73.3l-3.55-3.551a1.09,1.09,0,0,0-1.54,0l-1.081,1.082,5.09,5.09,1.081-1.081A1.088,1.088,0,0,0,512.809,73.3Z" transform="translate(-478.949 -69.426)" fill="#fff" stroke="#898989" stroke-linecap="round" stroke-linejoin="round" stroke-width="1.6"/>
          </g>
        </g>
      </g>
    </g>
    <circle id="타원_69" data-name="타원 69" cx="35.928" cy="35.928" r="35.928" fill="none" stroke="#898989" stroke-linecap="round" stroke-linejoin="round" stroke-width="1.6"/>
  </g>
</svg>
