<svg xmlns="http://www.w3.org/2000/svg" width="1160" height="219" viewBox="0 0 1160 219">
  <g id="diagram" transform="translate(-380 -3931)">
    <rect id="사각형_24088" data-name="사각형 24088" width="1160" height="219" rx="109.5" transform="translate(380 3931)" fill="#f9f9f9"/>
    <text id="서울크리스찬중고등학교에는_다음_세_가지가_없습니다." data-name="서울크리스찬중고등학교에는 다음 세 가지가 없습니다." transform="translate(426 3997)" fill="#242424" font-size="30" font-family="NotoSansKR-Regular, Noto Sans KR" letter-spacing="-0.025em"><tspan x="8" y="35">서울크리스찬중고등학교에는 </tspan><tspan x="39" y="75">다음 </tspan><tspan y="75" font-family="NotoSansKR-Bold, Noto Sans KR" font-weight="700">세 가지</tspan><tspan y="75">가 없습니다.</tspan></text>
    <ellipse id="타원_89" data-name="타원 89" cx="96.5" cy="96" rx="96.5" ry="96" transform="translate(1009 3942)" fill="#f8604f"/>
    <ellipse id="타원_105" data-name="타원 105" cx="96.5" cy="96" rx="96.5" ry="96" transform="translate(1170 3942)" fill="#e54735"/>
    <path id="패스_36213" data-name="패스 36213" d="M96.5,0C149.8,0,193,42.981,193,96s-43.2,96-96.5,96S0,149.019,0,96,43.2,0,96.5,0Z" transform="translate(1330 3942)" fill="#c12918"/>
    <text id="입학금" transform="translate(1105.5 4076)" fill="#fff" font-size="22" font-family="NotoSansKR-Bold, Noto Sans KR" font-weight="700" letter-spacing="-0.025em"><tspan x="-29" y="0">입학금</tspan></text>
    <text id="교육차별" transform="translate(1266.5 4076)" fill="#fff" font-size="22" font-family="NotoSansKR-Bold, Noto Sans KR" font-weight="700" letter-spacing="-0.025em"><tspan x="-39" y="0">교육차별</tspan></text>
    <text id="학교폭력" transform="translate(1427 4066)" fill="#fff" font-size="22" font-family="NotoSansKR-Bold, Noto Sans KR" font-weight="700" letter-spacing="-0.025em"><tspan x="-39" y="0">학교폭력</tspan></text>
    <text id="_게임중독_왕따_욕설_" data-name="(게임중독, 왕따, 욕설) " transform="translate(1427 4085)" fill="#fff" font-size="14" font-family="NotoSansKR-Regular, Noto Sans KR" letter-spacing="-0.025em"><tspan x="-62" y="0">(게임중독, 왕따, 욕설) </tspan></text>
    <g id="그룹_18786" data-name="그룹 18786" transform="translate(1239.566 3988)">
      <line id="선_62" data-name="선 62" y2="38.355" transform="translate(24.639 6.524)" fill="none" stroke="#fff" stroke-linecap="round" stroke-linejoin="round" stroke-width="3"/>
      <line id="선_63" data-name="선 63" x2="25.426" transform="translate(11.926 44.879)" fill="none" stroke="#fff" stroke-linecap="round" stroke-linejoin="round" stroke-width="3"/>
      <ellipse id="타원_110" data-name="타원 110" cx="3.262" cy="3.262" rx="3.262" ry="3.262" transform="translate(21.377 0)" fill="none" stroke="#fff" stroke-linecap="round" stroke-linejoin="round" stroke-width="3"/>
      <line id="선_64" data-name="선 64" x2="12.645" transform="translate(8.732 3.73)" fill="none" stroke="#fff" stroke-linecap="round" stroke-linejoin="round" stroke-width="3"/>
      <line id="선_65" data-name="선 65" x2="12.645" transform="translate(27.901 3.73)" fill="none" stroke="#fff" stroke-linecap="round" stroke-linejoin="round" stroke-width="3"/>
      <path id="패스_36193" data-name="패스 36193" d="M1055.073,96.31l-6.642,21.971h13.284Z" transform="translate(-1014.761 -92.58)" fill="none" stroke="#fff" stroke-linecap="round" stroke-linejoin="round" stroke-width="3"/>
      <path id="사각형_24095" data-name="사각형 24095" d="M0,0H17.463a0,0,0,0,1,0,0V0a7.2,7.2,0,0,1-7.2,7.2H7.2A7.2,7.2,0,0,1,0,0V0A0,0,0,0,1,0,0Z" transform="translate(31.581 25.702)" fill="none" stroke="#fff" stroke-linecap="round" stroke-linejoin="round" stroke-width="3"/>
      <path id="패스_36194" data-name="패스 36194" d="M1016.574,96.31l-6.642,21.971h13.284Z" transform="translate(-1007.842 -92.58)" fill="none" stroke="#fff" stroke-linecap="round" stroke-linejoin="round" stroke-width="3"/>
      <path id="사각형_24096" data-name="사각형 24096" d="M0,0H17.463a0,0,0,0,1,0,0V0a7.2,7.2,0,0,1-7.2,7.2H7.2A7.2,7.2,0,0,1,0,0V0A0,0,0,0,1,0,0Z" transform="translate(0 25.702)" fill="none" stroke="#fff" stroke-linecap="round" stroke-linejoin="round" stroke-width="3"/>
    </g>
    <g id="그룹_18787" data-name="그룹 18787" transform="translate(1403.424 3988)">
      <path id="패스_36195" data-name="패스 36195" d="M1117.05,132.288s7.114.78,9.454-3.9c0,0-3.655-1.366-3.447-3.3v-.021a13.881,13.881,0,0,0,.217-2.444V105.817a13.992,13.992,0,0,0-13.951-13.951h-8.743a13.992,13.992,0,0,0-13.951,13.951v16.808a13.921,13.921,0,0,0,.216,2.447v.009c.208,1.933-3.433,3.309-3.433,3.309,2.339,4.678,9.453,3.9,9.453,3.9" transform="translate(-1083.411 -91.866)" fill="none" stroke="#fff" stroke-linecap="round" stroke-linejoin="round" stroke-width="3"/>
      <path id="패스_36196" data-name="패스 36196" d="M1106.872,100.748s-.168,10.331,12.7,10.331v.008a11.525,11.525,0,0,1,.071,1.287v9.884a11.66,11.66,0,0,1-11.626,11.626h-2.282a11.66,11.66,0,0,1-11.626-11.626v-9.884a11.683,11.683,0,0,1,.072-1.3h0c12.865,0,12.695-10.331,12.695-10.331" transform="translate(-1085.333 -93.462)" fill="none" stroke="#fff" stroke-linecap="round" stroke-linejoin="round" stroke-width="3"/>
      <path id="패스_36197" data-name="패스 36197" d="M1117.9,119.119a2.017,2.017,0,0,1-4.033,0" transform="translate(-1088.884 -96.764)" fill="none" stroke="#fff" stroke-linecap="round" stroke-linejoin="round" stroke-width="3"/>
      <path id="패스_36198" data-name="패스 36198" d="M1104.772,119.119a2.017,2.017,0,0,1-4.033,0" transform="translate(-1086.525 -96.764)" fill="none" stroke="#fff" stroke-linecap="round" stroke-linejoin="round" stroke-width="3"/>
      <path id="패스_36199" data-name="패스 36199" d="M1120.109,137.07c0,3.512-2.171,4.718-4.849,4.718s-4.848-1.207-4.848-4.718,4.848-9.243,4.848-9.243S1120.109,133.558,1120.109,137.07Z" transform="translate(-1088.263 -98.329)" fill="#fff"/>
    </g>
    <g id="그룹_18789" data-name="그룹 18789" transform="translate(1077.5 3992)">
      <path id="패스_36200" data-name="패스 36200" d="M1267.11,138.483h-21.368V135.4" transform="translate(-1243.988 -103.429)" fill="none" stroke="#fff" stroke-linecap="round" stroke-linejoin="round" stroke-width="2"/>
      <path id="패스_36201" data-name="패스 36201" d="M1303.615,135.4v3.086h-21.368" transform="translate(-1250.548 -103.429)" fill="none" stroke="#fff" stroke-linecap="round" stroke-linejoin="round" stroke-width="2"/>
      <path id="패스_36202" data-name="패스 36202" d="M1266.94,134.706h-22.148v-3.151" transform="translate(-1243.817 -102.738)" fill="none" stroke="#fff" stroke-linecap="round" stroke-linejoin="round" stroke-width="2"/>
      <path id="패스_36203" data-name="패스 36203" d="M1304.4,131.555v3.151h-22.148" transform="translate(-1250.548 -102.738)" fill="none" stroke="#fff" stroke-linecap="round" stroke-linejoin="round" stroke-width="2"/>
      <path id="패스_36204" data-name="패스 36204" d="M1282.247,98.407h23.122V125.6h-23.122" transform="translate(-1250.548 -96.781)" fill="none" stroke="#fff" stroke-linecap="round" stroke-linejoin="round" stroke-width="2"/>
      <path id="패스_36205" data-name="패스 36205" d="M1266.726,125.6H1243.6V98.407h23.122" transform="translate(-1243.604 -96.781)" fill="none" stroke="#fff" stroke-linecap="round" stroke-linejoin="round" stroke-width="2"/>
      <path id="패스_36206" data-name="패스 36206" d="M1282.247,122.4h13.572a5.311,5.311,0,0,1,5.311-5.311v-8.382a5.311,5.311,0,0,1-5.311-5.311h-13.572" transform="translate(-1250.548 -97.678)" fill="none" stroke="#fff" stroke-width="2"/>
      <path id="패스_36207" data-name="패스 36207" d="M1267.655,103.4h-13.572a5.311,5.311,0,0,1-5.311,5.311v8.382a5.311,5.311,0,0,1,5.311,5.311h13.572" transform="translate(-1244.533 -97.678)" fill="none" stroke="#fff" stroke-width="2"/>
      <line id="선_66" data-name="선 66" y2="9.292" transform="translate(31.699 22.676)" fill="none" stroke="#fff" stroke-linecap="round" stroke-linejoin="round" stroke-width="2"/>
      <path id="패스_36208" data-name="패스 36208" d="M1271.792,104.189V96.425h8.577v7.764" transform="translate(-1248.669 -96.425)" fill="none" stroke="#fff" stroke-linecap="round" stroke-linejoin="round" stroke-width="2"/>
      <path id="패스_36209" data-name="패스 36209" d="M1280.368,133.361v4.012h-8.577v-13.3" transform="translate(-1248.669 -101.393)" fill="none" stroke="#fff" stroke-linecap="round" stroke-linejoin="round" stroke-width="2"/>
      <path id="패스_36210" data-name="패스 36210" d="M1270.845,120.553a8.6,8.6,0,1,1,4.29,1.144,8.6,8.6,0,0,1-4.29-1.144" transform="translate(-1247.724 -97.875)" fill="none" stroke="#fff" stroke-linecap="round" stroke-linejoin="round" stroke-width="2"/>
      <g id="그룹_18788" data-name="그룹 18788" transform="translate(24.333 9.204)">
        <path id="패스_36211" data-name="패스 36211" d="M1275.845,113.589h-.025l-.012-.012a7.337,7.337,0,0,1-.851-.326,3.022,3.022,0,0,1-.752-.487,2.149,2.149,0,0,1-.537-.7,2.262,2.262,0,0,1-.2-1,2.293,2.293,0,0,1,.2-.962,2.546,2.546,0,0,1,.518-.752,3.082,3.082,0,0,1,.733-.505,2.767,2.767,0,0,1,.808-.259v-.937h1.234v.9a2.477,2.477,0,0,1,.573.135,5.116,5.116,0,0,1,.648.284,2.154,2.154,0,0,1,.782.759,2.4,2.4,0,0,1,.327,1.264h-1.38a1.379,1.379,0,0,0-.389-.975,1.17,1.17,0,0,0-.647-.3v2.935a.084.084,0,0,0,.025.019.046.046,0,0,0,.025.006.242.242,0,0,0,.049.019l.062.018q.456.173.888.352a3.275,3.275,0,0,1,.777.45,2.289,2.289,0,0,1,.543.684,2.231,2.231,0,0,1,.222.993,2.719,2.719,0,0,1-.265,1.208,2.217,2.217,0,0,1-.7.851,3.092,3.092,0,0,1-.814.426,2.705,2.705,0,0,1-.727.142v1.308h-1.234v-1.308a2.581,2.581,0,0,1-1.776-.8,2.811,2.811,0,0,1-.678-2h1.417a2.524,2.524,0,0,0,.08.777,1.318,1.318,0,0,0,.253.494.843.843,0,0,0,.358.283,1.3,1.3,0,0,0,.432.1v-3.1c.025.017.041.021.049.012Zm-.012-3.859a1.255,1.255,0,0,0-.691.388,1.139,1.139,0,0,0-.322.833,1.17,1.17,0,0,0,.308.9,2.132,2.132,0,0,0,.7.431Zm1.011,6.943a1.142,1.142,0,0,0,.4-.112,1.489,1.489,0,0,0,.4-.271,1.45,1.45,0,0,0,.308-.42,1.279,1.279,0,0,0,.124-.579,1.022,1.022,0,0,0-.339-.864,3.57,3.57,0,0,0-.894-.468Z" transform="translate(-1273.268 -107.645)" fill="#fff"/>
      </g>
    </g>
    <path id="패스_36212" data-name="패스 36212" d="M17508.293,12564.342h164.283l-16.828-18.889" transform="translate(-16699.133 -8514)" fill="none" stroke="#242424" stroke-linecap="round" stroke-linejoin="round" stroke-width="3"/>
  </g>
</svg>
