<svg xmlns="http://www.w3.org/2000/svg" xmlns:xlink="http://www.w3.org/1999/xlink" width="556.531" height="224.559" viewBox="0 0 556.531 224.559">
  <defs>
    <linearGradient id="linear-gradient" x1="0.834" y1="0.5" x2="0.168" y2="0.5" gradientUnits="objectBoundingBox">
      <stop offset="0" stop-color="#1f2678"/>
      <stop offset="1" stop-color="#4f58bc"/>
    </linearGradient>
    <clipPath id="clip-path">
      <path id="SVGID" d="M644.846,498.058a5.97,5.97,0,0,1-2.571,1.695,4.235,4.235,0,0,1-1.689-1.072l-.031-.035A106.81,106.81,0,0,0,451.8,537.907l2.329.571a104.412,104.412,0,0,1,184.6-38.276l.8.71.021.043a4.922,4.922,0,0,0,2.728,1.2c1.1,0,2.6-.832,4.341-2.486a104.4,104.4,0,0,1,165.965.565l.72.83.168-.1a4.889,4.889,0,0,0,2.716,1.186v-2.4a4.206,4.206,0,0,1-1.691-1.07l-.342-.337a106.778,106.778,0,0,0-169.306-.279" transform="translate(-451.797 -456.499)" fill="#1f2678"/>
    </clipPath>
    <clipPath id="clip-path-2">
      <path id="SVGID-2" data-name="SVGID" d="M623.136,496.918a5.97,5.97,0,0,1,2.571-1.695A4.235,4.235,0,0,1,627.4,496.3l.031.035A106.81,106.81,0,0,0,816.184,457.07l-2.329-.571a104.412,104.412,0,0,1-184.6,38.276l-.8-.71-.021-.043a4.922,4.922,0,0,0-2.728-1.2c-1.1,0-2.6.832-4.341,2.486a104.4,104.4,0,0,1-165.965-.565l-.72-.83-.168.1a4.889,4.889,0,0,0-2.716-1.186v2.4a4.206,4.206,0,0,1,1.691,1.07l.342.337a106.778,106.778,0,0,0,169.306.279" transform="translate(-451.797 -456.499)" fill="#1f2678"/>
    </clipPath>
  </defs>
  <g id="그룹_18779" data-name="그룹 18779" transform="translate(-681.376 -821.441)">
    <path id="패스_36182" data-name="패스 36182" d="M896.435,462.279a94.837,94.837,0,0,0-76.353,38.488c-11.707,10.887-20.614-.352-20.614-.352h0a94.8,94.8,0,0,0-151.475-.286h0c-12.059,12.059-21.423.029-21.423.029l-.033-.029a94.793,94.793,0,1,0,.277,113.97c10.258-9.966,18.55-2.587,20.662-.331a94.818,94.818,0,0,0,151.848.6h0c9.584-9.585,17.483-3.942,20.328-1.222a94.977,94.977,0,1,0,76.783-150.868Z" transform="translate(236.001 376.008)" fill="url(#linear-gradient)"/>
    <text id="진리" transform="translate(784.777 938.42)" fill="#fff" font-size="30" font-family="NotoSansKR-Bold, Noto Sans KR" font-weight="700" letter-spacing="-0.025em"><tspan x="-27" y="0">진리</tspan></text>
    <text id="Truth" transform="translate(784.777 970.42)" fill="#eaeaf2" font-size="18" font-family="NotoSansKR-Regular, Noto Sans KR"><tspan x="-22" y="0">Truth</tspan></text>
    <text id="Faithfulness" transform="translate(959.777 970.42)" fill="#eaeaf2" font-size="18" font-family="NotoSansKR-Regular, Noto Sans KR"><tspan x="-50" y="0">Faithfulness</tspan></text>
    <text id="Charity" transform="translate(1134.777 970.42)" fill="#eaeaf2" font-size="18" font-family="NotoSansKR-Regular, Noto Sans KR"><tspan x="-30" y="0">Charity</tspan></text>
    <text id="신실" transform="translate(957.777 938.42)" fill="#fff" font-size="30" font-family="NotoSansKR-Bold, Noto Sans KR" font-weight="700" letter-spacing="-0.025em"><tspan x="-27" y="0">신실</tspan></text>
    <text id="사랑" transform="translate(1134.777 938.42)" fill="#fff" font-size="30" font-family="NotoSansKR-Bold, Noto Sans KR" font-weight="700" letter-spacing="-0.025em"><tspan x="-27" y="0">사랑</tspan></text>
    <g id="그룹_18770" data-name="그룹 18770" transform="translate(681.376 821.441)">
      <g id="그룹_18769" data-name="그룹 18769" transform="translate(0 0)">
        <path id="SVGID-3" data-name="SVGID" d="M644.846,498.058a5.97,5.97,0,0,1-2.571,1.695,4.235,4.235,0,0,1-1.689-1.072l-.031-.035A106.81,106.81,0,0,0,451.8,537.907l2.329.571a104.412,104.412,0,0,1,184.6-38.276l.8.71.021.043a4.922,4.922,0,0,0,2.728,1.2c1.1,0,2.6-.832,4.341-2.486a104.4,104.4,0,0,1,165.965.565l.72.83.168-.1a4.889,4.889,0,0,0,2.716,1.186v-2.4a4.206,4.206,0,0,1-1.691-1.07l-.342-.337a106.778,106.778,0,0,0-169.306-.279" transform="translate(-451.797 -456.499)" fill="#1f2678"/>
        <g id="그룹_18768" data-name="그룹 18768" clip-path="url(#clip-path)">
          <rect id="사각형_24069" data-name="사각형 24069" width="364.388" height="81.979" transform="translate(0 0.001)" fill="#1f2678"/>
        </g>
      </g>
    </g>
    <g id="그룹_18771" data-name="그룹 18771" transform="translate(873.52 964.021)">
      <g id="그룹_18769-2" data-name="그룹 18769" transform="translate(0 0)">
        <path id="SVGID-4" data-name="SVGID" d="M623.136,496.918a5.97,5.97,0,0,1,2.571-1.695A4.235,4.235,0,0,1,627.4,496.3l.031.035A106.81,106.81,0,0,0,816.184,457.07l-2.329-.571a104.412,104.412,0,0,1-184.6,38.276l-.8-.71-.021-.043a4.922,4.922,0,0,0-2.728-1.2c-1.1,0-2.6.832-4.341,2.486a104.4,104.4,0,0,1-165.965-.565l-.72-.83-.168.1a4.889,4.889,0,0,0-2.716-1.186v2.4a4.206,4.206,0,0,1,1.691,1.07l.342.337a106.778,106.778,0,0,0,169.306.279" transform="translate(-451.797 -456.499)" fill="#1f2678"/>
        <g id="그룹_18768-2" data-name="그룹 18768" clip-path="url(#clip-path-2)">
          <rect id="사각형_24069-2" data-name="사각형 24069" width="364.388" height="81.978" transform="translate(0 -0.001)" fill="#1f2678"/>
        </g>
      </g>
    </g>
  </g>
</svg>
