<svg xmlns="http://www.w3.org/2000/svg" width="73.457" height="73.457" viewBox="0 0 73.457 73.457">
  <g id="그룹_18651" data-name="그룹 18651" transform="translate(0.8 0.8)">
    <circle id="타원_68" data-name="타원 68" cx="35.928" cy="35.928" r="35.928" fill="#fff" stroke="#898989" stroke-linecap="round" stroke-linejoin="round" stroke-width="1.6"/>
    <g id="그룹_18576" data-name="그룹 18576" transform="translate(9.381 8.307)">
      <path id="패스_7801" data-name="패스 7801" d="M399.43,94.5a14.791,14.791,0,1,0-24.04,11.538v2.79a3.255,3.255,0,0,0,3.246,3.246h12.008a3.255,3.255,0,0,0,3.246-3.246v-2.79A14.76,14.76,0,0,0,399.43,94.5Z" transform="translate(-358.092 -68.386)" fill="#fff" stroke="#898989" stroke-linecap="round" stroke-linejoin="round" stroke-width="1.6"/>
      <rect id="사각형_23944" data-name="사각형 23944" width="7.677" height="4.571" rx="1.508" transform="translate(22.708 53.763)" fill="#e3e3e3" stroke="#898989" stroke-linecap="round" stroke-linejoin="round" stroke-width="1.6"/>
      <rect id="사각형_23945" data-name="사각형 23945" width="14.497" height="3.661" rx="1.208" transform="translate(19.299 43.689)" fill="#e3e3e3" stroke="#898989" stroke-linecap="round" stroke-linejoin="round" stroke-width="1.6"/>
      <rect id="사각형_23946" data-name="사각형 23946" width="14.497" height="3.661" rx="1.208" transform="translate(19.299 47.35)" fill="#e3e3e3" stroke="#898989" stroke-linecap="round" stroke-linejoin="round" stroke-width="1.6"/>
      <rect id="사각형_23947" data-name="사각형 23947" width="12.013" height="3.661" rx="1.208" transform="translate(20.541 51.011)" fill="#e3e3e3" stroke="#898989" stroke-linecap="round" stroke-linejoin="round" stroke-width="1.6"/>
      <line id="선_54" data-name="선 54" y2="7.827" transform="translate(26.547)" fill="#e3e3e3" stroke="#898989" stroke-linecap="round" stroke-linejoin="round" stroke-width="1.6"/>
      <line id="선_55" data-name="선 55" x2="3.914" y2="6.779" transform="translate(13.274 3.557)" fill="#e3e3e3" stroke="#898989" stroke-linecap="round" stroke-linejoin="round" stroke-width="1.6"/>
      <line id="선_56" data-name="선 56" x2="6.779" y2="3.914" transform="translate(3.557 13.274)" fill="#e3e3e3" stroke="#898989" stroke-linecap="round" stroke-linejoin="round" stroke-width="1.6"/>
      <line id="선_57" data-name="선 57" x2="7.827" transform="translate(0 26.547)" fill="#e3e3e3" stroke="#898989" stroke-linecap="round" stroke-linejoin="round" stroke-width="1.6"/>
      <line id="선_58" data-name="선 58" x2="7.827" transform="translate(45.267 26.547)" fill="#e3e3e3" stroke="#898989" stroke-linecap="round" stroke-linejoin="round" stroke-width="1.6"/>
      <line id="선_59" data-name="선 59" y1="3.914" x2="6.779" transform="translate(42.759 13.274)" fill="#e3e3e3" stroke="#898989" stroke-linecap="round" stroke-linejoin="round" stroke-width="1.6"/>
      <line id="선_60" data-name="선 60" y1="6.779" x2="3.914" transform="translate(35.907 3.557)" fill="#e3e3e3" stroke="#898989" stroke-linecap="round" stroke-linejoin="round" stroke-width="1.6"/>
      <path id="패스_7802" data-name="패스 7802" d="M386.656,115.384V104.615l-4.174-4.174" transform="translate(-360.108 -71.695)" fill="none" stroke="#898989" stroke-linecap="round" stroke-linejoin="round" stroke-width="1.6"/>
      <line id="선_61" data-name="선 61" y1="4.174" x2="4.174" transform="translate(26.502 28.763)" fill="#e3e3e3" stroke="#898989" stroke-linecap="round" stroke-linejoin="round" stroke-width="1.6"/>
    </g>
  </g>
</svg>
