<svg xmlns="http://www.w3.org/2000/svg" xmlns:xlink="http://www.w3.org/1999/xlink" width="559.172" height="142.666" viewBox="0 0 559.172 142.666">
  <defs>
    <linearGradient id="linear-gradient" x1="-8.118" y1="4.541" x2="11.684" y2="-4.65" gradientUnits="objectBoundingBox">
      <stop offset="0" stop-color="#eedebc"/>
      <stop offset="0.059" stop-color="#ddc5a3"/>
      <stop offset="0.14" stop-color="#c9a885"/>
      <stop offset="0.258" stop-color="#9a7a5f"/>
      <stop offset="0.36" stop-color="#c9a885"/>
      <stop offset="0.489" stop-color="#eedebc"/>
      <stop offset="0.541" stop-color="#ddc5a3"/>
      <stop offset="0.613" stop-color="#c9a885"/>
      <stop offset="0.72" stop-color="#9a7a5f"/>
      <stop offset="0.839" stop-color="#c9a885"/>
      <stop offset="1" stop-color="#eedebc"/>
    </linearGradient>
    <linearGradient id="linear-gradient-2" x1="-6.92" y1="5.604" x2="9.307" y2="-5.612" xlink:href="#linear-gradient"/>
    <linearGradient id="linear-gradient-3" x1="-24.096" y1="14.406" x2="30.366" y2="-16.441" xlink:href="#linear-gradient"/>
    <linearGradient id="linear-gradient-4" x1="-64.472" y1="22.58" x2="83.012" y2="-27.509" xlink:href="#linear-gradient"/>
    <linearGradient id="linear-gradient-5" x1="-40.074" y1="38.912" x2="48.361" y2="-44.625" xlink:href="#linear-gradient"/>
    <linearGradient id="linear-gradient-6" x1="-37.617" y1="21.961" x2="62.581" y2="-34.453" xlink:href="#linear-gradient"/>
    <linearGradient id="linear-gradient-7" x1="-38.048" y1="22.204" x2="62.15" y2="-34.21" xlink:href="#linear-gradient"/>
    <linearGradient id="linear-gradient-8" x1="-40.392" y1="23.523" x2="59.806" y2="-32.891" xlink:href="#linear-gradient"/>
    <linearGradient id="linear-gradient-9" x1="-40.824" y1="23.766" x2="59.375" y2="-32.648" xlink:href="#linear-gradient"/>
    <linearGradient id="linear-gradient-10" x1="-159.507" y1="2.342" x2="240.59" y2="-2.264" xlink:href="#linear-gradient"/>
    <linearGradient id="linear-gradient-11" x1="-54.516" y1="31.848" x2="45.086" y2="-24.905" xlink:href="#linear-gradient"/>
    <linearGradient id="linear-gradient-12" x1="-53.759" y1="31.416" x2="45.843" y2="-25.336" xlink:href="#linear-gradient"/>
    <linearGradient id="linear-gradient-13" x1="-49.645" y1="29.073" x2="49.956" y2="-27.68" xlink:href="#linear-gradient"/>
    <linearGradient id="linear-gradient-14" x1="-48.888" y1="28.641" x2="50.713" y2="-28.111" xlink:href="#linear-gradient"/>
    <linearGradient id="linear-gradient-15" x1="-3.712" y1="117.869" x2="4.421" y2="-108.746" xlink:href="#linear-gradient"/>
    <linearGradient id="linear-gradient-16" x1="-16.336" y1="8.679" x2="22.281" y2="-10.133" xlink:href="#linear-gradient"/>
    <linearGradient id="linear-gradient-17" x1="-14.28" y1="10.208" x2="18.932" y2="-11.665" xlink:href="#linear-gradient"/>
  </defs>
  <g id="그룹_18640" data-name="그룹 18640" transform="translate(-380.828 -3839.558)">
    <g id="그룹_18636" data-name="그룹 18636" transform="translate(885.239 3839.558)">
      <g id="그룹_18623" data-name="그룹 18623" transform="translate(32.293 0.442)">
        <g id="그룹_18618" data-name="그룹 18618">
          <g id="그룹_18616" data-name="그룹 18616" transform="translate(6.797 3.558)">
            <path id="패스_12701" data-name="패스 12701" d="M13.547,9.887q-.17-.173-.356-.331t-.385-.3q-.2-.14-.413-.263t-.439-.226L11.8,8.7a7.824,7.824,0,0,0-.978-.4,11.586,11.586,0,0,0-1.144-.316c-.4-.09-.824-.165-1.254-.222s-.87-.1-1.311-.115a8.548,8.548,0,0,1-2.88-.576,6.565,6.565,0,0,1-1.841-1.1,5.7,5.7,0,0,1-.98-1.076,3.439,3.439,0,0,1-.295-.5l-.005-.011-.005-.011L1.1,4.36,1.1,4.35A2.268,2.268,0,0,1,.8,3.5,2.37,2.37,0,0,1,1.21,1.83a2.3,2.3,0,0,1,.651-.622,1.687,1.687,0,0,1,.63-.241,1.655,1.655,0,0,1,1.69.782,1.136,1.136,0,0,1,.107.236,1.278,1.278,0,0,1,.054.26,1.371,1.371,0,0,1,0,.272,1.39,1.39,0,0,1-.054.272,1.769,1.769,0,0,1-.153.36,1.309,1.309,0,0,1-.21.28,1.027,1.027,0,0,1-.26.191.934.934,0,0,1-.3.094.914.914,0,0,1-.524-.086.926.926,0,0,1-.39-.362.394.394,0,0,0-.105-.117.382.382,0,0,0-.286-.07.388.388,0,0,0-.146.055.4.4,0,0,0-.115.109.415.415,0,0,0-.071.294.4.4,0,0,0,.052.15,1.727,1.727,0,0,0,.315.39,1.7,1.7,0,0,0,.4.277,1.674,1.674,0,0,0,.961.158,1.7,1.7,0,0,0,.521-.156,1.8,1.8,0,0,0,.449-.312,2.1,2.1,0,0,0,.359-.45,2.561,2.561,0,0,0,.251-.571,2.214,2.214,0,0,0,.082-.885,2.109,2.109,0,0,0-.092-.427,1.92,1.92,0,0,0-.178-.391,2.429,2.429,0,0,0-3.394-.8,3.1,3.1,0,0,0-.875.836A3.2,3.2,0,0,0,.027,3.61,3.073,3.073,0,0,0,.414,4.751a4.521,4.521,0,0,0,.415.694,6.478,6.478,0,0,0,1.13,1.213A7.266,7.266,0,0,0,3.982,7.843a9.408,9.408,0,0,0,3.095.609c.408.018.819.055,1.223.109s.8.124,1.18.208a11.065,11.065,0,0,1,1.075.294,7.107,7.107,0,0,1,.908.367l.163.075a4.613,4.613,0,0,1,1,.624,4.686,4.686,0,0,1,.8.845A4.818,4.818,0,0,1,14,12a4.983,4.983,0,0,1,.319,1.164,4.878,4.878,0,0,1,.036,1.142,4.545,4.545,0,0,1-.228,1.08,4.413,4.413,0,0,1-.48.982,4.5,4.5,0,0,1-.72.848l-.066.06-.067.059-.068.058-.07.057a3.619,3.619,0,0,1-.669.425,3.574,3.574,0,0,1-.737.265,3.705,3.705,0,0,1-.786.1,4,4,0,0,1-.817-.068,4.712,4.712,0,0,1-1.083-.333,3.655,3.655,0,0,1-.871-.546,3.1,3.1,0,0,1-.634-.737,3.067,3.067,0,0,1-.371-.907,3.15,3.15,0,0,1-.079-.893A3.19,3.19,0,0,1,7.178,13.1a3.122,3.122,0,0,1,.611-.652,2.122,2.122,0,0,1,.392-.248,2.193,2.193,0,0,1,.436-.158,2.263,2.263,0,0,1,.465-.065,2.323,2.323,0,0,1,.478.033,2.911,2.911,0,0,1,.664.195,2.226,2.226,0,0,1,.535.324,1.853,1.853,0,0,1,.389.441,1.807,1.807,0,0,1,.228.544,1.867,1.867,0,0,1,.049.533,1.89,1.89,0,0,1-.338.985,1.857,1.857,0,0,1-.365.389,1.393,1.393,0,0,1-.229.148,1.34,1.34,0,0,1-.248.1,1.32,1.32,0,0,1-.261.047,1.339,1.339,0,0,1-.527-.066,1.294,1.294,0,0,1-.45-.262,1.322,1.322,0,0,1-.18-.2.411.411,0,0,0-.12-.105.384.384,0,0,0-.143-.048.378.378,0,0,0-.149.011.394.394,0,0,0-.139.072.4.4,0,0,0-.1.121.414.414,0,0,0-.038.3.4.4,0,0,0,.069.143A2.145,2.145,0,0,0,8.49,16a2.067,2.067,0,0,0,.714.416,2.113,2.113,0,0,0,.834.106,2.083,2.083,0,0,0,.413-.073,2.113,2.113,0,0,0,.392-.155,2.194,2.194,0,0,0,.361-.234,2.66,2.66,0,0,0,.524-.559,2.709,2.709,0,0,0,.414-2.182,2.6,2.6,0,0,0-.315-.76,2.651,2.651,0,0,0-.531-.619,3,3,0,0,0-.719-.455,3.619,3.619,0,0,0-.879-.266,3.085,3.085,0,0,0-.641-.043,3.035,3.035,0,0,0-.626.089,2.973,2.973,0,0,0-.589.216,2.908,2.908,0,0,0-.532.337,3.924,3.924,0,0,0-.769.821,4,4,0,0,0-.615,3.2,3.829,3.829,0,0,0,.457,1.118,3.926,3.926,0,0,0,.775.917,4.466,4.466,0,0,0,1.054.68,5.379,5.379,0,0,0,1.292.408,4.786,4.786,0,0,0,.984.081,4.463,4.463,0,0,0,.949-.124,4.339,4.339,0,0,0,.892-.323,4.424,4.424,0,0,0,.812-.516l.08-.066.079-.067.078-.068.076-.069a5.326,5.326,0,0,0,.851-1,5.211,5.211,0,0,0,.568-1.158,5.349,5.349,0,0,0,.27-1.273,5.724,5.724,0,0,0-.042-1.345,5.845,5.845,0,0,0-.2-.89,5.709,5.709,0,0,0-.333-.83,5.6,5.6,0,0,0-.453-.758A5.5,5.5,0,0,0,13.547,9.887Z" fill="url(#linear-gradient)"/>
          </g>
          <g id="그룹_18617" data-name="그룹 18617" transform="translate(0 0)">
            <path id="패스_12702" data-name="패스 12702" d="M8.841,1.769A5.355,5.355,0,0,0,5.779.224,5.263,5.263,0,0,0,4.477.2a4.953,4.953,0,0,0-2.343.882,5.275,5.275,0,0,0-.961.877l-.066.078-.065.08-.064.081-.063.082a4.579,4.579,0,0,0-.8,1.743A4.79,4.79,0,0,0,0,4.988a5.129,5.129,0,0,0,.083,1A5.682,5.682,0,0,0,.483,7.3a4.565,4.565,0,0,0,.663,1.069,3.834,3.834,0,0,0,.891.784,3.586,3.586,0,0,0,1.085.457,3.649,3.649,0,0,0,1.09.092,3.725,3.725,0,0,0,1.055-.227,3.824,3.824,0,0,0,.956-.523,3.915,3.915,0,0,0,.791-.794,3.014,3.014,0,0,0,.324-.547,3.154,3.154,0,0,0,.205-.6,3.261,3.261,0,0,0,.082-.64,3.313,3.313,0,0,0-.047-.655,3.827,3.827,0,0,0-.265-.895,3.076,3.076,0,0,0-.446-.729,2.593,2.593,0,0,0-.6-.535,2.44,2.44,0,0,0-.738-.313,2.475,2.475,0,0,0-.742-.064,2.521,2.521,0,0,0-.718.154,2.588,2.588,0,0,0-.649.355,2.653,2.653,0,0,0-.537.54,2.268,2.268,0,0,0-.224.37,2.233,2.233,0,0,0-.216.822,2.265,2.265,0,0,0,.013.432,2.239,2.239,0,0,0,.094.417,2.152,2.152,0,0,0,.168.383,2.111,2.111,0,0,0,.542.631.379.379,0,0,0,.288.077.387.387,0,0,0,.142-.05A.4.4,0,0,0,3.8,7.2a.412.412,0,0,0,.079-.3.4.4,0,0,0-.047-.145.4.4,0,0,0-.1-.12,1.3,1.3,0,0,1-.192-.181,1.31,1.31,0,0,1-.15-.214A1.353,1.353,0,0,1,3.285,6a1.42,1.42,0,0,1-.059-.263,1.437,1.437,0,0,1-.008-.274,1.414,1.414,0,0,1,.137-.521A1.437,1.437,0,0,1,3.5,4.71a1.853,1.853,0,0,1,.374-.377,1.8,1.8,0,0,1,.452-.248,1.753,1.753,0,0,1,.5-.107,1.719,1.719,0,0,1,.516.044,1.7,1.7,0,0,1,.529.227,1.818,1.818,0,0,1,.43.392,2.285,2.285,0,0,1,.318.542,3.084,3.084,0,0,1,.193.676,2.5,2.5,0,0,1,.035.488,2.432,2.432,0,0,1-.059.476,2.325,2.325,0,0,1-.15.448,2.2,2.2,0,0,1-.238.4,3.115,3.115,0,0,1-.628.631,3.04,3.04,0,0,1-.759.416,2.958,2.958,0,0,1-.838.181,2.9,2.9,0,0,1-1.745-.443,3.032,3.032,0,0,1-.717-.641,3.743,3.743,0,0,1-.533-.884,4.981,4.981,0,0,1-.327-1.1A4.291,4.291,0,0,1,.779,5a3.979,3.979,0,0,1,.093-.8,3.792,3.792,0,0,1,.252-.753,3.746,3.746,0,0,1,.407-.686l.054-.071.055-.07L1.7,2.551l.057-.068a4.451,4.451,0,0,1,.815-.742A4.2,4.2,0,0,1,4.557,1a4.486,4.486,0,0,1,1.105.023A4.594,4.594,0,0,1,8.614,2.713a4.731,4.731,0,0,1,.613,1.01l.07.155a7.543,7.543,0,0,1,.366.93c.111.342.211.711.3,1.1s.157.794.213,1.207.095.835.116,1.253a10.08,10.08,0,0,0,.619,3.166A7.561,7.561,0,0,0,12.079,13.6a6.474,6.474,0,0,0,1.194,1.153,4.361,4.361,0,0,0,.683.422,2.909,2.909,0,0,0,1.12.391,2.963,2.963,0,0,0,1.149-.077,3.045,3.045,0,0,0,1.046-.51,3.113,3.113,0,0,0,.809-.909,2.615,2.615,0,0,0,.292-1.926,2.561,2.561,0,0,0-.393-.883,2.437,2.437,0,0,0-.716-.678,1.837,1.837,0,0,0-.384-.18,1.977,1.977,0,0,0-.418-.091,2.061,2.061,0,0,0-.864.092,2.436,2.436,0,0,0-.555.263,2.071,2.071,0,0,0-.436.373,1.855,1.855,0,0,0-.3.464,1.824,1.824,0,0,0-.135,1.048,1.8,1.8,0,0,0,.15.476,1.755,1.755,0,0,0,.274.412,1.7,1.7,0,0,0,.384.32.382.382,0,0,0,.3.043.393.393,0,0,0,.137-.066.4.4,0,0,0,.105-.119.412.412,0,0,0,.045-.305.4.4,0,0,0-.064-.14.392.392,0,0,0-.116-.107.919.919,0,0,1-.209-.174.956.956,0,0,1-.149-.225.986.986,0,0,1-.089-.538,1,1,0,0,1,.088-.311,1.053,1.053,0,0,1,.184-.269,1.285,1.285,0,0,1,.271-.219,1.682,1.682,0,0,1,.351-.16,1.3,1.3,0,0,1,.266-.058,1.274,1.274,0,0,1,.266,0,1.2,1.2,0,0,1,.255.054,1.088,1.088,0,0,1,.232.108,1.661,1.661,0,0,1,.489.463,1.743,1.743,0,0,1,.267.6,1.794,1.794,0,0,1-.2,1.317,2.31,2.31,0,0,1-.6.676,2.257,2.257,0,0,1-.778.378,2.19,2.19,0,0,1-.854.054,2.148,2.148,0,0,1-.831-.3l-.01-.006-.011-.006-.011-.005-.011-.005a3.394,3.394,0,0,1-.528-.321,5.593,5.593,0,0,1-1.056-1,6.767,6.767,0,0,1-1.071-1.873,9.268,9.268,0,0,1-.573-2.929c-.023-.451-.065-.9-.124-1.342s-.136-.871-.227-1.283-.2-.8-.318-1.169a8.288,8.288,0,0,0-.4-1L9.939,3.38q-.1-.229-.223-.445t-.259-.418q-.138-.2-.292-.389T8.841,1.769Z" fill="url(#linear-gradient-2)"/>
          </g>
        </g>
        <g id="그룹_18619" data-name="그룹 18619" transform="translate(4.566 12.283)">
          <path id="패스_12703" data-name="패스 12703" d="M5.373.119A.387.387,0,0,0,5.279.048.381.381,0,0,0,5.056.006a.386.386,0,0,0-.114.031c-.031.014-.237.107-.55.268S3.658.7,3.2.98A13.6,13.6,0,0,0,1.763,1.994,7.675,7.675,0,0,0,.493,3.277a2.676,2.676,0,0,0-.368.645A1.784,1.784,0,0,0,0,4.506,1.3,1.3,0,0,0,.075,5a1.034,1.034,0,0,0,.23.369A1,1,0,0,0,.666,5.6a1.2,1.2,0,0,0,.478.074,1.654,1.654,0,0,0,.566-.132,2.569,2.569,0,0,0,.626-.382,7.694,7.694,0,0,0,1.24-1.315,14.018,14.018,0,0,0,.976-1.482c.274-.476.494-.91.648-1.233s.243-.535.257-.567A.413.413,0,0,0,5.481.326.406.406,0,0,0,5.443.215.4.4,0,0,0,5.373.119ZM.857,4.794a.291.291,0,0,1-.073-.157A.643.643,0,0,1,.793,4.4a1.258,1.258,0,0,1,.1-.3,2.067,2.067,0,0,1,.212-.34h0A5.987,5.987,0,0,1,1.8,3.011a9.58,9.58,0,0,1,.816-.677c.282-.21.57-.4.845-.579s.541-.33.778-.462c-.127.245-.276.518-.444.8s-.355.582-.557.874a9.766,9.766,0,0,1-.653.844,5.957,5.957,0,0,1-.73.715,2,2,0,0,1-.329.22,1.18,1.18,0,0,1-.287.109.592.592,0,0,1-.228.011A.277.277,0,0,1,.857,4.794ZM.8,3.522l0,0Z" fill="url(#linear-gradient-3)"/>
        </g>
        <g id="그룹_18622" data-name="그룹 18622" transform="translate(4.747 10.197)">
          <g id="그룹_18620" data-name="그룹 18620" transform="translate(5.325 4.051)">
            <path id="패스_12704" data-name="패스 12704" d="M1.3.123A.391.391,0,0,0,1.241.074.385.385,0,0,0,1.173.038.385.385,0,0,0,.925.021a.388.388,0,0,0-.09.037A.4.4,0,0,0,.756.117.4.4,0,0,0,.693.2C.671.231.606.337.525.492a5.665,5.665,0,0,0-.269.594A4.082,4.082,0,0,0,.04,1.85a2.294,2.294,0,0,0-.008.805h0A1.1,1.1,0,0,0,.155,3a.978.978,0,0,0,.216.262.943.943,0,0,0,.29.169,1,1,0,0,0,.345.059.986.986,0,0,0,.641-.237,1.031,1.031,0,0,0,.222-.267A1.1,1.1,0,0,0,2,2.64a2.291,2.291,0,0,0,0-.806,3.991,3.991,0,0,0-.21-.76A5.491,5.491,0,0,0,1.519.485C1.439.331,1.375.226,1.353.191L1.341.173,1.328.155,1.314.139ZM.417,2.576.8,2.5a1.216,1.216,0,0,1-.017-.285A2.019,2.019,0,0,1,.826,1.9,3.084,3.084,0,0,1,.91,1.592c.033-.1.071-.2.11-.3.038.1.075.2.107.3a3.026,3.026,0,0,1,.081.31,1.992,1.992,0,0,1,.039.3,1.214,1.214,0,0,1-.018.283.279.279,0,0,1-.041.1.2.2,0,0,1-.061.059.213.213,0,0,1-.065.026.243.243,0,0,1-.052.006.239.239,0,0,1-.055-.006A.191.191,0,0,1,.893,2.65a.183.183,0,0,1-.055-.056A.273.273,0,0,1,.8,2.5Z" fill="url(#linear-gradient-4)"/>
          </g>
          <g id="그룹_18621" data-name="그룹 18621" transform="translate(0 0)">
            <path id="패스_12705" data-name="패스 12705" d="M3.263.752,3.248.737,3.232.723,3.215.71,3.2.7C3.163.675,3.061.611,2.91.53A5.187,5.187,0,0,0,2.336.263,3.715,3.715,0,0,0,1.6.054,2.111,2.111,0,0,0,.814.059,1.037,1.037,0,0,0,.484.193a1.02,1.02,0,0,0-.258.23,1.03,1.03,0,0,0-.167.3,1.088,1.088,0,0,0,0,.708.976.976,0,0,0,.166.3.96.96,0,0,0,.256.219,1.03,1.03,0,0,0,.331.123h0a2.112,2.112,0,0,0,.782-.015,3.813,3.813,0,0,0,.74-.227,5.386,5.386,0,0,0,.576-.281c.151-.085.254-.152.288-.175a.4.4,0,0,0,.075-.066.406.406,0,0,0,.057-.081A.415.415,0,0,0,3.37.955.405.405,0,0,0,3.348.88.4.4,0,0,0,3.312.812.392.392,0,0,0,3.263.752Zm-2.427.47a.181.181,0,0,1-.028-.038.2.2,0,0,1-.017-.04.233.233,0,0,1-.008-.039.273.273,0,0,1,0-.088A.226.226,0,0,1,.811.951.2.2,0,0,1,.867.888a.263.263,0,0,1,.1-.043A1.125,1.125,0,0,1,1.244.824a1.836,1.836,0,0,1,.3.037,2.8,2.8,0,0,1,.3.08c.1.032.2.069.29.107-.094.041-.193.081-.293.116a2.893,2.893,0,0,1-.3.089,1.867,1.867,0,0,1-.3.045,1.112,1.112,0,0,1-.276-.014l-.04-.01a.243.243,0,0,1-.034-.014.2.2,0,0,1-.028-.017A.186.186,0,0,1,.837,1.221Z" fill="url(#linear-gradient-5)"/>
          </g>
        </g>
      </g>
      <g id="그룹_18626" data-name="그룹 18626" transform="translate(46.08 19.078)">
        <g id="그룹_18624" data-name="그룹 18624" transform="translate(0 28.302)">
          <path id="패스_12706" data-name="패스 12706" d="M3,1.559,1.5.006,0,1.545,1.5,3.1Z" transform="translate(0 3.09)" fill="url(#linear-gradient-6)"/>
          <path id="패스_12707" data-name="패스 12707" d="M3,1.556,1.5,0,0,1.545,1.5,3.1Z" fill="url(#linear-gradient-7)"/>
        </g>
        <g id="그룹_18625" data-name="그룹 18625" transform="translate(0 8.409)">
          <path id="패스_12708" data-name="패스 12708" d="M3,1.547,1.5,0,0,1.553,1.5,3.1Z" transform="translate(0 3.094)" fill="url(#linear-gradient-8)"/>
          <path id="패스_12709" data-name="패스 12709" d="M3,1.547,1.5.005,0,1.556,1.5,3.1Z" fill="url(#linear-gradient-9)"/>
        </g>
        <path id="패스_12710" data-name="패스 12710" d="M.375,0A.365.365,0,0,1,.522.032.373.373,0,0,1,.641.113a.383.383,0,0,1,.08.122.39.39,0,0,1,.03.15v37.1a.39.39,0,0,1-.03.15.383.383,0,0,1-.08.122.373.373,0,0,1-.119.082.368.368,0,0,1-.292,0,.379.379,0,0,1-.119-.083A.391.391,0,0,1,0,37.483V.39A.391.391,0,0,1,.11.117.379.379,0,0,1,.229.034.368.368,0,0,1,.375,0Z" transform="translate(1.123 0)" fill="url(#linear-gradient-10)"/>
      </g>
      <g id="그룹_18629" data-name="그룹 18629" transform="translate(0 5.995)">
        <g id="그룹_18627" data-name="그룹 18627" transform="translate(3.198 0.206)">
          <path id="패스_12711" data-name="패스 12711" d="M1.465,3.046l1.466-1.53L1.465.016,0,1.546Z" transform="translate(0 0.031)" fill="url(#linear-gradient-11)"/>
          <path id="패스_12712" data-name="패스 12712" d="M1.468,3.049,2.937,1.517,1.468.016,0,1.548Z" transform="translate(2.931)" fill="url(#linear-gradient-12)"/>
        </g>
        <g id="그룹_18628" data-name="그룹 18628" transform="translate(22.158)">
          <path id="패스_12713" data-name="패스 12713" d="M1.484,3.065l1.485-1.54L1.484.016,0,1.556Z" transform="translate(0 0.032)" fill="url(#linear-gradient-13)"/>
          <path id="패스_12714" data-name="패스 12714" d="M1.487,3.068,2.975,1.527,1.487.016,0,1.558Z" transform="translate(2.969)" fill="url(#linear-gradient-14)"/>
        </g>
        <path id="패스_12715" data-name="패스 12715" d="M.364.375,35.852,0A.36.36,0,0,1,36,.033a.368.368,0,0,1,.118.081.379.379,0,0,1,.08.121.389.389,0,0,1,.029.149.392.392,0,0,1-.109.272A.378.378,0,0,1,36,.739a.365.365,0,0,1-.145.032L.364,1.132A.348.348,0,0,1,.222,1.1a.359.359,0,0,1-.116-.08A.375.375,0,0,1,.029.9.389.389,0,0,1,0,.757.393.393,0,0,1,.029.61.386.386,0,0,1,.107.488.369.369,0,0,1,.222.406.352.352,0,0,1,.364.375Z" transform="translate(0 1.06)" fill="url(#linear-gradient-15)"/>
      </g>
      <g id="그룹_18632" data-name="그룹 18632" transform="translate(44.042)">
        <g id="그룹_18630" data-name="그룹 18630" transform="translate(2.922 1.684)">
          <path id="패스_12716" data-name="패스 12716" d="M4.482,8.475A2.941,2.941,0,0,0,5.2,7.221a2.978,2.978,0,0,0,.093-.488L5.3,6.652a4.165,4.165,0,0,0,.034-.53c0-.189-.009-.39-.028-.6s-.048-.42-.087-.635-.087-.431-.144-.644a4.3,4.3,0,0,1-.164-1.125,3.276,3.276,0,0,1,.107-.864,2.783,2.783,0,0,1,.238-.6,2.226,2.226,0,0,1,.228-.346,1.111,1.111,0,0,0-.087.71,1.085,1.085,0,0,0,.078.233,1.072,1.072,0,0,0,.182.274,1.055,1.055,0,0,0,.252.2,1.153,1.153,0,0,0,.309.122,1.354,1.354,0,0,0,.354.035,1.165,1.165,0,0,0,.256-.036,1.248,1.248,0,0,0,.459-.226,1.141,1.141,0,0,0,.18-.176,1.457,1.457,0,0,0,.266-.5,1.491,1.491,0,0,0,.057-.55A1.473,1.473,0,0,0,7.646.86,1.413,1.413,0,0,0,7.3.415a1.661,1.661,0,0,0-.27-.189,1.605,1.605,0,0,0-.612-.2,1.644,1.644,0,0,0-.944.179,1.67,1.67,0,0,0-.269.176,1.714,1.714,0,0,0-.234.228A2.407,2.407,0,0,0,4.7.959a3.543,3.543,0,0,0-.388.769,3.994,3.994,0,0,0-.232,1.179,5.025,5.025,0,0,0,.19,1.58c.049.183.091.369.124.555s.059.37.077.549.026.352.026.514a3.413,3.413,0,0,1-.027.45l-.01.092a2.1,2.1,0,0,1-.115.5,2.062,2.062,0,0,1-.555.824,2.045,2.045,0,0,1-.415.29,1.926,1.926,0,0,1-.435.168,1.761,1.761,0,0,1-.444.053,1.7,1.7,0,0,1-.438-.061,1.761,1.761,0,0,1-.416-.176L1.6,8.222,1.572,8.2l-.032-.02-.031-.021a1.425,1.425,0,0,1-.242-.208A1.478,1.478,0,0,1,1.075,7.7a1.6,1.6,0,0,1-.137-.3A1.773,1.773,0,0,1,.86,7.062a2.148,2.148,0,0,1-.012-.479,1.622,1.622,0,0,1,.094-.42,1.3,1.3,0,0,1,.194-.349,1.191,1.191,0,0,1,.289-.264,1.171,1.171,0,0,1,.649-.188,1.162,1.162,0,0,1,.643.2.753.753,0,0,1,.127.11.814.814,0,0,1,.1.137.876.876,0,0,1,.074.159.931.931,0,0,1,.043.176,1.231,1.231,0,0,1,.011.264.9.9,0,0,1-.046.231.689.689,0,0,1-.1.19.6.6,0,0,1-.485.239.6.6,0,0,1-.331-.1A.4.4,0,0,1,2,6.85a.42.42,0,0,1,0-.456.44.44,0,0,0,.064-.324A.433.433,0,0,0,2,5.918.419.419,0,0,0,1.887,5.8a.409.409,0,0,0-.316-.062.42.42,0,0,0-.149.064A.431.431,0,0,0,1.3,5.92a1.293,1.293,0,0,0-.188.468,1.31,1.31,0,0,0,0,.488,1.287,1.287,0,0,0,.179.451,1.239,1.239,0,0,0,.346.357,1.418,1.418,0,0,0,1.2.192A1.441,1.441,0,0,0,3.224,7.7a1.473,1.473,0,0,0,.341-.308,1.53,1.53,0,0,0,.231-.4,1.75,1.75,0,0,0,.113-.466A2.1,2.1,0,0,0,3.9,6.013a1.8,1.8,0,0,0-.086-.35,1.742,1.742,0,0,0-.151-.318,1.662,1.662,0,0,0-.21-.276,1.578,1.578,0,0,0-.262-.224,1.986,1.986,0,0,0-1.669-.267,2.013,2.013,0,0,0-.537.245A2.046,2.046,0,0,0,.5,5.251a2.154,2.154,0,0,0-.325.555,2.485,2.485,0,0,0-.162.654,2.991,2.991,0,0,0,.011.727,2.6,2.6,0,0,0,.12.509,2.49,2.49,0,0,0,.215.462,2.362,2.362,0,0,0,.3.4,2.238,2.238,0,0,0,.378.324l.045.03.044.028.044.027.044.026a2.6,2.6,0,0,0,.61.258,2.5,2.5,0,0,0,.64.091,2.565,2.565,0,0,0,.648-.076,2.788,2.788,0,0,0,.634-.244q.1-.054.2-.116t.189-.131q.091-.069.177-.144T4.482,8.475ZM5.952.931,6,.915,6.052.9,6.1.892,6.156.886a.809.809,0,0,1,.162,0,.793.793,0,0,1,.3.1.82.82,0,0,1,.133.094.572.572,0,0,1,.139.18.6.6,0,0,1,.037.436.585.585,0,0,1-.107.2.289.289,0,0,1-.05.049.354.354,0,0,1-.063.038.384.384,0,0,1-.072.026.369.369,0,0,1-.077.011.566.566,0,0,1-.111-.007.368.368,0,0,1-.091-.027.253.253,0,0,1-.07-.047.213.213,0,0,1-.047-.065.224.224,0,0,1,0-.181.218.218,0,0,1,.032-.053.442.442,0,0,0,.1-.316.436.436,0,0,0-.043-.159.422.422,0,0,0-.1-.134A.416.416,0,0,0,6.161.987.411.411,0,0,0,5.952.931Z" fill="url(#linear-gradient-16)"/>
        </g>
        <g id="그룹_18631" data-name="그룹 18631" transform="translate(0 0)">
          <path id="패스_12717" data-name="패스 12717" d="M8.57,2.816A1.711,1.711,0,0,0,9,2.044a1.765,1.765,0,0,0,.042-.634,1.708,1.708,0,0,0-.07-.322A1.689,1.689,0,0,0,8.653.513,1.389,1.389,0,0,0,7.159.087a1.405,1.405,0,0,0-.488.278A1.135,1.135,0,0,0,6.5.552a1.242,1.242,0,0,0-.13.223,1.294,1.294,0,0,0-.083.248,1.277,1.277,0,0,0-.032.262,1.444,1.444,0,0,0,.038.361,1.21,1.21,0,0,0,.122.314,1.07,1.07,0,0,0,.2.255,1.042,1.042,0,0,0,.269.183,1.026,1.026,0,0,0,.465.1A1.048,1.048,0,0,0,7.8,2.378a2.167,2.167,0,0,1-.333.236,2.647,2.647,0,0,1-.587.251,3.056,3.056,0,0,1-.842.121,4,4,0,0,1-1.1-.154c-.209-.056-.421-.1-.631-.14s-.419-.064-.621-.082A5.748,5.748,0,0,0,3.1,2.589a3.955,3.955,0,0,0-.522.041l-.067.008a2.79,2.79,0,0,0-.686.175,2.826,2.826,0,0,0-.615.337A2.9,2.9,0,0,0,.7,3.632a2.99,2.99,0,0,0-.4.607,2.947,2.947,0,0,0-.231.65A2.752,2.752,0,0,0,0,5.553,2.679,2.679,0,0,0,.1,6.208a2.736,2.736,0,0,0,.257.622l.025.044L.4,6.919l.028.044.028.044a2.275,2.275,0,0,0,.32.385,2.314,2.314,0,0,0,.393.3,2.369,2.369,0,0,0,.453.216,2.43,2.43,0,0,0,.5.118,2.776,2.776,0,0,0,.709,0,2.329,2.329,0,0,0,.636-.173,2.058,2.058,0,0,0,.95-.832,2.116,2.116,0,0,0,.233-.553A2.134,2.134,0,0,0,4.63,5.309a2.075,2.075,0,0,0-.255-.539A1.593,1.593,0,0,0,4.153,4.5a1.626,1.626,0,0,0-.272-.211,1.66,1.66,0,0,0-.312-.151,1.688,1.688,0,0,0-.342-.084,1.945,1.945,0,0,0-.5-.006,1.639,1.639,0,0,0-.452.121,1.476,1.476,0,0,0-.68.592A1.52,1.52,0,0,0,1.439,6a1.485,1.485,0,0,0,.183.387,1.235,1.235,0,0,0,.351.351,1.218,1.218,0,0,0,1.372-.024.431.431,0,0,0,.117-.123.444.444,0,0,0,.061-.319.43.43,0,0,0-.064-.157.418.418,0,0,0-.119-.119.411.411,0,0,0-.31-.059A.417.417,0,0,0,2.876,6a.395.395,0,0,1-.444.006.4.4,0,0,1-.114-.114.625.625,0,0,1-.077-.163A.637.637,0,0,1,2.3,5.215a.609.609,0,0,1,.137-.156.664.664,0,0,1,.184-.1A.843.843,0,0,1,2.85,4.9a1.141,1.141,0,0,1,.258.008.871.871,0,0,1,.172.042.836.836,0,0,1,.156.074.8.8,0,0,1,.135.1.758.758,0,0,1,.109.129,1.217,1.217,0,0,1,.149.316A1.245,1.245,0,0,1,3.7,6.582a1.206,1.206,0,0,1-.255.3,1.251,1.251,0,0,1-.338.2,1.515,1.515,0,0,1-.409.1,1.991,1.991,0,0,1-.466-.008A1.656,1.656,0,0,1,1.909,7.1a1.517,1.517,0,0,1-.293-.137,1.443,1.443,0,0,1-.458-.442l-.02-.031-.02-.032L1.1,6.427,1.08,6.394a1.856,1.856,0,0,1-.175-.425,1.826,1.826,0,0,1-.064-.447,1.89,1.89,0,0,1,.048-.455,2.038,2.038,0,0,1,.159-.446,2.112,2.112,0,0,1,.279-.427,2.041,2.041,0,0,1,.364-.339,1.985,1.985,0,0,1,.432-.237,1.957,1.957,0,0,1,.482-.123l.079-.009a3.24,3.24,0,0,1,.444-.034,5,5,0,0,1,.5.021c.175.016.356.04.538.072s.365.073.544.121a4.69,4.69,0,0,0,1.541.177,3.741,3.741,0,0,0,1.148-.25,3.388,3.388,0,0,0,.746-.406,2.306,2.306,0,0,0,.337-.29l.021-.019.021-.02.02-.02ZM7.195,1.036l0,0,0,0,0,0,0,0a.561.561,0,0,1,.8.062.836.836,0,0,1,.191.443.865.865,0,0,1,0,.165q0,.027-.006.053t-.009.053q-.005.026-.012.052T8.165,1.9a.44.44,0,0,0-.006-.073.432.432,0,0,0-.019-.071.424.424,0,0,0-.075-.131A.413.413,0,0,0,7.616,1.5a.424.424,0,0,0-.146.085.21.21,0,0,1-.228.033.209.209,0,0,1-.064-.047A.259.259,0,0,1,7.131,1.5.388.388,0,0,1,7.1,1.4.6.6,0,0,1,7.1,1.29a.4.4,0,0,1,.028-.14.372.372,0,0,1,.031-.062A.32.32,0,0,1,7.195,1.036Z" fill="url(#linear-gradient-17)"/>
        </g>
      </g>
    </g>
    <g id="그룹_18637" data-name="그룹 18637" transform="translate(885.239 3925.272)">
      <g id="그룹_18623-2" data-name="그룹 18623" transform="translate(32.293 33.852)">
        <g id="그룹_18618-2" data-name="그룹 18618">
          <g id="그룹_18616-2" data-name="그룹 18616" transform="translate(6.797)">
            <path id="패스_12701-2" data-name="패스 12701" d="M13.547,9.212q-.17.173-.356.331t-.385.3q-.2.14-.413.263t-.439.226L11.8,10.4a7.824,7.824,0,0,1-.978.4,11.585,11.585,0,0,1-1.144.316c-.4.09-.824.165-1.254.222s-.87.1-1.311.115a8.548,8.548,0,0,0-2.88.576,6.565,6.565,0,0,0-1.841,1.1,5.7,5.7,0,0,0-.98,1.076,3.439,3.439,0,0,0-.295.5l-.005.011-.005.011-.006.011-.006.011A2.268,2.268,0,0,0,.8,15.6a2.37,2.37,0,0,0,.407,1.672,2.3,2.3,0,0,0,.651.622,1.687,1.687,0,0,0,.63.241,1.655,1.655,0,0,0,1.69-.782,1.136,1.136,0,0,0,.107-.236,1.278,1.278,0,0,0,.054-.26,1.371,1.371,0,0,0,0-.272,1.39,1.39,0,0,0-.054-.272,1.769,1.769,0,0,0-.153-.36,1.31,1.31,0,0,0-.21-.28,1.027,1.027,0,0,0-.26-.191.934.934,0,0,0-.3-.094.914.914,0,0,0-.524.086.926.926,0,0,0-.39.362.394.394,0,0,1-.105.117.382.382,0,0,1-.286.07.388.388,0,0,1-.146-.055.4.4,0,0,1-.115-.109.415.415,0,0,1-.071-.294.4.4,0,0,1,.052-.15,1.727,1.727,0,0,1,.315-.39,1.7,1.7,0,0,1,.4-.277,1.674,1.674,0,0,1,.961-.158,1.7,1.7,0,0,1,.521.156,1.8,1.8,0,0,1,.449.312,2.1,2.1,0,0,1,.359.45,2.561,2.561,0,0,1,.251.571,2.214,2.214,0,0,1,.082.885,2.109,2.109,0,0,1-.092.427,1.92,1.92,0,0,1-.178.391,2.429,2.429,0,0,1-3.394.8,3.1,3.1,0,0,1-.875-.836A3.2,3.2,0,0,1,.027,15.49a3.073,3.073,0,0,1,.388-1.142,4.521,4.521,0,0,1,.415-.694,6.478,6.478,0,0,1,1.13-1.213,7.266,7.266,0,0,1,2.022-1.184,9.408,9.408,0,0,1,3.095-.609c.408-.018.819-.055,1.223-.109s.8-.124,1.18-.208a11.065,11.065,0,0,0,1.075-.294,7.107,7.107,0,0,0,.908-.367l.163-.075a4.613,4.613,0,0,0,1-.624,4.686,4.686,0,0,0,.8-.845A4.818,4.818,0,0,0,14,7.1a4.983,4.983,0,0,0,.319-1.164,4.878,4.878,0,0,0,.036-1.142,4.545,4.545,0,0,0-.228-1.08,4.413,4.413,0,0,0-.48-.982,4.5,4.5,0,0,0-.72-.848l-.066-.06-.067-.059-.068-.058-.07-.057a3.619,3.619,0,0,0-.669-.425,3.574,3.574,0,0,0-.737-.265,3.705,3.705,0,0,0-.786-.1,4,4,0,0,0-.817.068,4.712,4.712,0,0,0-1.083.333,3.656,3.656,0,0,0-.871.546,3.1,3.1,0,0,0-.634.737,3.067,3.067,0,0,0-.371.907,3.15,3.15,0,0,0-.079.893,3.19,3.19,0,0,0,.569,1.651,3.122,3.122,0,0,0,.611.652,2.122,2.122,0,0,0,.392.248,2.193,2.193,0,0,0,.436.158,2.263,2.263,0,0,0,.465.065,2.322,2.322,0,0,0,.478-.033,2.911,2.911,0,0,0,.664-.195,2.226,2.226,0,0,0,.535-.324,1.853,1.853,0,0,0,.389-.441,1.807,1.807,0,0,0,.228-.544,1.867,1.867,0,0,0,.049-.533,1.89,1.89,0,0,0-.338-.985,1.857,1.857,0,0,0-.365-.389,1.392,1.392,0,0,0-.229-.148,1.34,1.34,0,0,0-.248-.1,1.32,1.32,0,0,0-.261-.047,1.339,1.339,0,0,0-.527.066,1.294,1.294,0,0,0-.45.262,1.322,1.322,0,0,0-.18.2.411.411,0,0,1-.12.105.384.384,0,0,1-.143.048.378.378,0,0,1-.149-.011.394.394,0,0,1-.139-.072.4.4,0,0,1-.1-.121.414.414,0,0,1-.038-.3A.4.4,0,0,1,8.2,3.411,2.145,2.145,0,0,1,8.49,3.1,2.068,2.068,0,0,1,9.2,2.683a2.113,2.113,0,0,1,.834-.106,2.083,2.083,0,0,1,.413.073,2.113,2.113,0,0,1,.392.155,2.194,2.194,0,0,1,.361.234,2.661,2.661,0,0,1,.524.559,2.709,2.709,0,0,1,.414,2.182,2.6,2.6,0,0,1-.315.76,2.651,2.651,0,0,1-.531.619,3,3,0,0,1-.719.455A3.619,3.619,0,0,1,9.7,7.88a3.085,3.085,0,0,1-.641.043,3.036,3.036,0,0,1-.626-.089,2.973,2.973,0,0,1-.589-.216,2.908,2.908,0,0,1-.532-.337A3.924,3.924,0,0,1,6.54,6.46a4,4,0,0,1-.615-3.2,3.829,3.829,0,0,1,.457-1.118,3.926,3.926,0,0,1,.775-.917A4.466,4.466,0,0,1,8.211.542,5.379,5.379,0,0,1,9.5.135a4.785,4.785,0,0,1,.984-.081,4.463,4.463,0,0,1,.949.124A4.339,4.339,0,0,1,12.328.5a4.425,4.425,0,0,1,.812.516l.08.066.079.067.078.068.076.069a5.326,5.326,0,0,1,.851,1,5.211,5.211,0,0,1,.568,1.158,5.349,5.349,0,0,1,.27,1.273A5.724,5.724,0,0,1,15.1,6.062a5.845,5.845,0,0,1-.2.89,5.709,5.709,0,0,1-.333.83,5.6,5.6,0,0,1-.453.758A5.5,5.5,0,0,1,13.547,9.212Z" fill="url(#linear-gradient)"/>
          </g>
          <g id="그룹_18617-2" data-name="그룹 18617" transform="translate(0 6.952)">
            <path id="패스_12702-2" data-name="패스 12702" d="M8.841,13.937a5.355,5.355,0,0,1-3.063,1.545,5.263,5.263,0,0,1-1.3.026,4.953,4.953,0,0,1-2.343-.882,5.275,5.275,0,0,1-.961-.877l-.066-.078-.065-.08-.064-.081-.063-.082a4.579,4.579,0,0,1-.8-1.743A4.79,4.79,0,0,1,0,10.718a5.129,5.129,0,0,1,.083-1A5.682,5.682,0,0,1,.483,8.4a4.565,4.565,0,0,1,.663-1.069,3.834,3.834,0,0,1,.891-.784,3.587,3.587,0,0,1,1.085-.457A3.649,3.649,0,0,1,4.212,6a3.725,3.725,0,0,1,1.055.227,3.824,3.824,0,0,1,.956.523,3.915,3.915,0,0,1,.791.794,3.014,3.014,0,0,1,.324.547,3.154,3.154,0,0,1,.205.6,3.261,3.261,0,0,1,.082.64,3.313,3.313,0,0,1-.047.655,3.827,3.827,0,0,1-.265.895,3.076,3.076,0,0,1-.446.729,2.593,2.593,0,0,1-.6.535,2.44,2.44,0,0,1-.738.313,2.475,2.475,0,0,1-.742.064,2.521,2.521,0,0,1-.718-.154,2.588,2.588,0,0,1-.649-.356,2.653,2.653,0,0,1-.537-.54,2.268,2.268,0,0,1-.224-.37,2.233,2.233,0,0,1-.216-.822,2.265,2.265,0,0,1,.013-.432,2.238,2.238,0,0,1,.094-.417,2.152,2.152,0,0,1,.168-.383,2.111,2.111,0,0,1,.542-.631.379.379,0,0,1,.288-.077.387.387,0,0,1,.142.05A.4.4,0,0,1,3.8,8.5a.412.412,0,0,1,.079.3.4.4,0,0,1-.047.145.4.4,0,0,1-.1.12,1.3,1.3,0,0,0-.192.181,1.31,1.31,0,0,0-.15.214,1.353,1.353,0,0,0-.106.242,1.42,1.42,0,0,0-.059.263,1.437,1.437,0,0,0-.008.274,1.414,1.414,0,0,0,.137.521A1.437,1.437,0,0,0,3.5,11a1.853,1.853,0,0,0,.374.377,1.8,1.8,0,0,0,.452.248,1.753,1.753,0,0,0,.5.107,1.719,1.719,0,0,0,.516-.044,1.7,1.7,0,0,0,.529-.227,1.818,1.818,0,0,0,.43-.392,2.286,2.286,0,0,0,.318-.542,3.084,3.084,0,0,0,.193-.676,2.5,2.5,0,0,0,.035-.488,2.432,2.432,0,0,0-.059-.476,2.325,2.325,0,0,0-.15-.448,2.2,2.2,0,0,0-.238-.4A3.115,3.115,0,0,0,5.767,7.4a3.04,3.04,0,0,0-.759-.416A2.958,2.958,0,0,0,4.171,6.8a2.9,2.9,0,0,0-1.745.443,3.032,3.032,0,0,0-.717.641,3.743,3.743,0,0,0-.533.884,4.981,4.981,0,0,0-.327,1.1,4.291,4.291,0,0,0-.069.832,3.979,3.979,0,0,0,.093.8,3.792,3.792,0,0,0,.252.753,3.746,3.746,0,0,0,.407.686l.054.071.055.07.056.069.057.068a4.451,4.451,0,0,0,.815.742,4.2,4.2,0,0,0,1.988.745,4.486,4.486,0,0,0,1.105-.023,4.594,4.594,0,0,0,2.953-1.694,4.731,4.731,0,0,0,.613-1.01l.07-.155a7.543,7.543,0,0,0,.366-.93c.111-.342.211-.711.3-1.1s.157-.794.213-1.207.095-.835.116-1.253a10.08,10.08,0,0,1,.619-3.166,7.561,7.561,0,0,1,1.172-2.067A6.474,6.474,0,0,1,13.274.953a4.361,4.361,0,0,1,.683-.422A2.909,2.909,0,0,1,15.076.14a2.963,2.963,0,0,1,1.149.077,3.045,3.045,0,0,1,1.046.51,3.113,3.113,0,0,1,.809.909,2.615,2.615,0,0,1,.292,1.926,2.561,2.561,0,0,1-.393.883,2.437,2.437,0,0,1-.716.678,1.837,1.837,0,0,1-.384.18,1.977,1.977,0,0,1-.418.091A2.061,2.061,0,0,1,15.6,5.3a2.436,2.436,0,0,1-.555-.263,2.071,2.071,0,0,1-.436-.373,1.855,1.855,0,0,1-.3-.464,1.824,1.824,0,0,1-.135-1.048,1.8,1.8,0,0,1,.15-.476,1.755,1.755,0,0,1,.274-.412,1.7,1.7,0,0,1,.384-.32.382.382,0,0,1,.3-.043.393.393,0,0,1,.137.066.4.4,0,0,1,.105.119.412.412,0,0,1,.045.305.4.4,0,0,1-.064.14.392.392,0,0,1-.116.107.919.919,0,0,0-.209.174.956.956,0,0,0-.149.225.986.986,0,0,0-.089.538,1,1,0,0,0,.088.311,1.053,1.053,0,0,0,.184.269,1.285,1.285,0,0,0,.271.219,1.682,1.682,0,0,0,.351.16,1.3,1.3,0,0,0,.266.058,1.274,1.274,0,0,0,.266,0,1.2,1.2,0,0,0,.255-.054,1.088,1.088,0,0,0,.232-.108,1.661,1.661,0,0,0,.489-.463,1.743,1.743,0,0,0,.267-.6,1.794,1.794,0,0,0-.2-1.317,2.31,2.31,0,0,0-.6-.676,2.257,2.257,0,0,0-.778-.378A2.19,2.19,0,0,0,15.173.94a2.148,2.148,0,0,0-.831.3l-.01.006-.011.006-.011.005-.011.005a3.394,3.394,0,0,0-.528.321,5.593,5.593,0,0,0-1.056,1,6.767,6.767,0,0,0-1.071,1.873,9.268,9.268,0,0,0-.573,2.929c-.023.451-.065.9-.124,1.342s-.136.871-.227,1.283-.2.8-.318,1.169a8.288,8.288,0,0,1-.4,1l-.065.145q-.1.229-.223.445t-.259.418q-.138.2-.292.389T8.841,13.937Z" fill="url(#linear-gradient-2)"/>
          </g>
        </g>
        <g id="그룹_18619-2" data-name="그룹 18619" transform="translate(4.566 4.693)">
          <path id="패스_12703-2" data-name="패스 12703" d="M5.373,5.563a.387.387,0,0,1-.094.071.381.381,0,0,1-.223.042.386.386,0,0,1-.114-.031c-.031-.014-.237-.107-.55-.268S3.658,4.986,3.2,4.7A13.6,13.6,0,0,1,1.763,3.688,7.675,7.675,0,0,1,.493,2.4a2.676,2.676,0,0,1-.368-.645A1.784,1.784,0,0,1,0,1.176,1.3,1.3,0,0,1,.075.685,1.034,1.034,0,0,1,.3.316,1,1,0,0,1,.666.082,1.2,1.2,0,0,1,1.144.008,1.654,1.654,0,0,1,1.71.14a2.569,2.569,0,0,1,.626.382,7.694,7.694,0,0,1,1.24,1.315A14.018,14.018,0,0,1,4.552,3.32c.274.476.494.91.648,1.233s.243.535.257.567a.413.413,0,0,1,.025.235.406.406,0,0,1-.038.111A.4.4,0,0,1,5.373,5.563ZM.857.887a.291.291,0,0,0-.073.157.643.643,0,0,0,.009.235,1.258,1.258,0,0,0,.1.3,2.067,2.067,0,0,0,.212.34h0A5.987,5.987,0,0,0,1.8,2.67a9.58,9.58,0,0,0,.816.677c.282.21.57.4.845.579s.541.33.778.462c-.127-.245-.276-.518-.444-.8S3.44,3,3.237,2.712a9.766,9.766,0,0,0-.653-.844,5.957,5.957,0,0,0-.73-.715,2,2,0,0,0-.329-.22A1.18,1.18,0,0,0,1.238.824.592.592,0,0,0,1.01.813.277.277,0,0,0,.857.887ZM.8,2.159l0,0Z" fill="url(#linear-gradient-3)"/>
        </g>
        <g id="그룹_18622-2" data-name="그룹 18622" transform="translate(4.747 4.916)">
          <g id="그룹_18620-2" data-name="그룹 18620" transform="translate(5.325 0)">
            <path id="패스_12704-2" data-name="패스 12704" d="M1.3,3.369a.391.391,0,0,1-.059.049.385.385,0,0,1-.067.036.385.385,0,0,1-.248.017.388.388,0,0,1-.09-.037.4.4,0,0,1-.079-.059A.4.4,0,0,1,.693,3.3C.671,3.262.606,3.156.525,3a5.665,5.665,0,0,1-.269-.594A4.082,4.082,0,0,1,.04,1.643,2.294,2.294,0,0,1,.032.838h0A1.1,1.1,0,0,1,.155.5.978.978,0,0,1,.371.235.943.943,0,0,1,.661.066,1,1,0,0,1,1.006.007a.986.986,0,0,1,.641.237,1.031,1.031,0,0,1,.222.267A1.1,1.1,0,0,1,2,.853a2.291,2.291,0,0,1,0,.806,3.991,3.991,0,0,1-.21.76,5.491,5.491,0,0,1-.265.589c-.08.154-.144.259-.166.294l-.012.018-.013.017-.014.016ZM.417.917.8,1a1.216,1.216,0,0,0-.017.285,2.019,2.019,0,0,0,.041.307A3.084,3.084,0,0,0,.91,1.9c.033.1.071.2.11.3.038-.1.075-.2.107-.3a3.026,3.026,0,0,0,.081-.31,1.992,1.992,0,0,0,.039-.3,1.214,1.214,0,0,0-.018-.283A.279.279,0,0,0,1.187.9.2.2,0,0,0,1.126.843.213.213,0,0,0,1.062.817.243.243,0,0,0,1.009.812.239.239,0,0,0,.954.818.191.191,0,0,0,.893.843.183.183,0,0,0,.838.9.273.273,0,0,0,.8,1Z" fill="url(#linear-gradient-4)"/>
          </g>
          <g id="그룹_18621-2" data-name="그룹 18621" transform="translate(0 5.432)">
            <path id="패스_12705-2" data-name="패스 12705" d="M3.263,1.361l-.015.015-.016.014L3.215,1.4,3.2,1.415c-.034.022-.137.087-.287.168a5.187,5.187,0,0,1-.574.267,3.715,3.715,0,0,1-.739.209,2.111,2.111,0,0,1-.782-.005,1.037,1.037,0,0,1-.331-.133,1.02,1.02,0,0,1-.258-.23,1.03,1.03,0,0,1-.167-.3,1.088,1.088,0,0,1,0-.708.976.976,0,0,1,.166-.3A.96.96,0,0,1,.482.163,1.03,1.03,0,0,1,.813.04h0a2.112,2.112,0,0,1,.782.015,3.813,3.813,0,0,1,.74.227A5.386,5.386,0,0,1,2.91.563c.151.085.254.152.288.175A.4.4,0,0,1,3.274.8.406.406,0,0,1,3.33.885a.415.415,0,0,1,.04.273.405.405,0,0,1-.022.075.4.4,0,0,1-.036.068A.392.392,0,0,1,3.263,1.361ZM.837.891A.181.181,0,0,0,.808.928a.2.2,0,0,0-.017.04.233.233,0,0,0-.008.039.273.273,0,0,0,0,.088.226.226,0,0,0,.025.067.2.2,0,0,0,.056.063.263.263,0,0,0,.1.043,1.125,1.125,0,0,0,.276.022,1.836,1.836,0,0,0,.3-.037,2.8,2.8,0,0,0,.3-.08c.1-.032.2-.069.29-.107-.094-.041-.193-.081-.293-.116a2.893,2.893,0,0,0-.3-.089,1.867,1.867,0,0,0-.3-.045A1.112,1.112,0,0,0,.961.83L.921.84A.243.243,0,0,0,.887.854.2.2,0,0,0,.859.871.186.186,0,0,0,.837.891Z" fill="url(#linear-gradient-5)"/>
          </g>
        </g>
      </g>
      <g id="그룹_18626-2" data-name="그룹 18626" transform="translate(46.08 0)">
        <g id="그룹_18624-2" data-name="그룹 18624" transform="translate(0 3.375)">
          <path id="패스_12706-2" data-name="패스 12706" d="M3,1.547,1.5,3.1,0,1.56,1.5.007Z" fill="url(#linear-gradient-6)"/>
          <path id="패스_12707-2" data-name="패스 12707" d="M3,1.547,1.5,3.1,0,1.557,1.5.006Z" transform="translate(0 3.093)" fill="url(#linear-gradient-7)"/>
        </g>
        <g id="그룹_18625-2" data-name="그룹 18625" transform="translate(0 23.272)">
          <path id="패스_12708-2" data-name="패스 12708" d="M3,1.552,1.5,3.095,0,1.545,1.5,0Z" transform="translate(0 0)" fill="url(#linear-gradient-8)"/>
          <path id="패스_12709-2" data-name="패스 12709" d="M3,1.555,1.5,3.1,0,1.546,1.5,0Z" transform="translate(0 3.09)" fill="url(#linear-gradient-9)"/>
        </g>
        <path id="패스_12710-2" data-name="패스 12710" d="M.375,37.87a.365.365,0,0,0,.146-.029.372.372,0,0,0,.119-.082.383.383,0,0,0,.08-.122.39.39,0,0,0,.03-.15V.385a.39.39,0,0,0-.03-.15A.383.383,0,0,0,.641.114.373.373,0,0,0,.522.032a.368.368,0,0,0-.292,0A.379.379,0,0,0,.11.117.391.391,0,0,0,0,.39V37.483a.391.391,0,0,0,.11.273.379.379,0,0,0,.119.083A.368.368,0,0,0,.375,37.87Z" transform="translate(1.123 0)" fill="url(#linear-gradient-10)"/>
      </g>
      <g id="그룹_18629-2" data-name="그룹 18629" transform="translate(0 47.658)">
        <g id="그룹_18627-2" data-name="그룹 18627" transform="translate(3.198 0)">
          <path id="패스_12711-2" data-name="패스 12711" d="M1.465.014l1.466,1.53-1.466,1.5L0,1.514Z" transform="translate(0 0)" fill="url(#linear-gradient-11)"/>
          <path id="패스_12712-2" data-name="패스 12712" d="M1.468.014,2.937,1.546l-1.469,1.5L0,1.515Z" transform="translate(2.931 0.029)" fill="url(#linear-gradient-12)"/>
        </g>
        <g id="그룹_18628-2" data-name="그룹 18628" transform="translate(22.158 0.186)">
          <path id="패스_12713-2" data-name="패스 12713" d="M1.484.015l1.485,1.54L1.484,3.064,0,1.524Z" transform="translate(0 0)" fill="url(#linear-gradient-13)"/>
          <path id="패스_12714-2" data-name="패스 12714" d="M1.487.015,2.975,1.556,1.487,3.067,0,1.525Z" transform="translate(2.969 0.029)" fill="url(#linear-gradient-14)"/>
        </g>
        <path id="패스_12715-2" data-name="패스 12715" d="M.364.762l35.489.371A.36.36,0,0,0,36,1.1a.368.368,0,0,0,.118-.081A.379.379,0,0,0,36.2.9a.389.389,0,0,0,.029-.149.392.392,0,0,0-.109-.272A.378.378,0,0,0,36,.4a.365.365,0,0,0-.145-.032L.364,0A.348.348,0,0,0,.222.032a.359.359,0,0,0-.116.08.375.375,0,0,0-.078.12A.389.389,0,0,0,0,.379.393.393,0,0,0,.029.527.386.386,0,0,0,.107.648.369.369,0,0,0,.222.731.352.352,0,0,0,.364.762Z" transform="translate(0 1.102)" fill="url(#linear-gradient-15)"/>
      </g>
      <g id="그룹_18632-2" data-name="그룹 18632" transform="translate(44.042 45.902)">
        <g id="그룹_18630-2" data-name="그룹 18630" transform="translate(2.922)">
          <path id="패스_12716-2" data-name="패스 12716" d="M4.482.891A2.941,2.941,0,0,1,5.2,2.145a2.978,2.978,0,0,1,.093.488l.009.081a4.165,4.165,0,0,1,.034.53c0,.189-.009.39-.028.6s-.048.42-.087.635-.087.431-.144.644a4.3,4.3,0,0,0-.164,1.125,3.276,3.276,0,0,0,.107.864,2.783,2.783,0,0,0,.238.6,2.226,2.226,0,0,0,.228.346,1.111,1.111,0,0,1-.087-.71,1.085,1.085,0,0,1,.078-.233,1.072,1.072,0,0,1,.182-.274,1.055,1.055,0,0,1,.252-.2,1.153,1.153,0,0,1,.309-.122,1.354,1.354,0,0,1,.354-.035,1.165,1.165,0,0,1,.256.036,1.248,1.248,0,0,1,.459.226,1.141,1.141,0,0,1,.18.176,1.457,1.457,0,0,1,.266.5,1.491,1.491,0,0,1,.057.55,1.473,1.473,0,0,1-.147.53,1.413,1.413,0,0,1-.345.445,1.661,1.661,0,0,1-.27.189,1.605,1.605,0,0,1-.612.2,1.644,1.644,0,0,1-.944-.179,1.67,1.67,0,0,1-.269-.176,1.714,1.714,0,0,1-.234-.228A2.407,2.407,0,0,1,4.7,8.407a3.543,3.543,0,0,1-.388-.769,3.994,3.994,0,0,1-.232-1.179,5.025,5.025,0,0,1,.19-1.58c.049-.183.091-.369.124-.555s.059-.37.077-.549.026-.352.026-.514a3.413,3.413,0,0,0-.027-.45l-.01-.092a2.1,2.1,0,0,0-.115-.5A2.062,2.062,0,0,0,3.785,1.4a2.045,2.045,0,0,0-.415-.29A1.926,1.926,0,0,0,2.936.94,1.761,1.761,0,0,0,2.492.887a1.7,1.7,0,0,0-.438.061,1.761,1.761,0,0,0-.416.176l-.033.02-.032.02-.032.02L1.509,1.2a1.425,1.425,0,0,0-.242.208,1.478,1.478,0,0,0-.192.257,1.6,1.6,0,0,0-.137.3A1.773,1.773,0,0,0,.86,2.3a2.148,2.148,0,0,0-.012.479,1.622,1.622,0,0,0,.094.42,1.3,1.3,0,0,0,.194.349,1.191,1.191,0,0,0,.289.264A1.171,1.171,0,0,0,2.074,4a1.162,1.162,0,0,0,.643-.2.753.753,0,0,0,.127-.11.814.814,0,0,0,.1-.137A.876.876,0,0,0,3.021,3.4a.931.931,0,0,0,.043-.176,1.231,1.231,0,0,0,.011-.264.9.9,0,0,0-.046-.231.689.689,0,0,0-.1-.19A.6.6,0,0,0,2.442,2.3a.6.6,0,0,0-.331.1A.4.4,0,0,0,2,2.516a.42.42,0,0,0,0,.456.44.44,0,0,1,.064.324A.433.433,0,0,1,2,3.448a.419.419,0,0,1-.117.121.409.409,0,0,1-.316.062.42.42,0,0,1-.149-.064A.431.431,0,0,1,1.3,3.446a1.293,1.293,0,0,1-.188-.468,1.31,1.31,0,0,1,0-.488,1.287,1.287,0,0,1,.179-.451,1.239,1.239,0,0,1,.346-.357,1.418,1.418,0,0,1,1.2-.192,1.441,1.441,0,0,1,.385.177,1.473,1.473,0,0,1,.341.308,1.53,1.53,0,0,1,.231.4,1.75,1.75,0,0,1,.113.466,2.1,2.1,0,0,1-.011.516,1.8,1.8,0,0,1-.086.35,1.741,1.741,0,0,1-.151.318,1.662,1.662,0,0,1-.21.276,1.578,1.578,0,0,1-.262.224,1.986,1.986,0,0,1-1.669.267,2.013,2.013,0,0,1-.537-.245A2.046,2.046,0,0,1,.5,4.115,2.154,2.154,0,0,1,.18,3.56a2.485,2.485,0,0,1-.162-.654,2.991,2.991,0,0,1,.011-.727,2.6,2.6,0,0,1,.12-.509,2.49,2.49,0,0,1,.215-.462,2.362,2.362,0,0,1,.3-.4A2.238,2.238,0,0,1,1.042.484l.045-.03L1.131.425,1.175.4,1.22.372A2.6,2.6,0,0,1,1.83.114,2.5,2.5,0,0,1,2.47.023,2.565,2.565,0,0,1,3.118.1a2.788,2.788,0,0,1,.634.244q.1.054.2.116T4.141.59q.091.069.177.144T4.482.891ZM5.952,8.435,6,8.451l.05.013.051.01.052.006a.809.809,0,0,0,.162,0,.793.793,0,0,0,.3-.1.82.82,0,0,0,.133-.094.572.572,0,0,0,.139-.18.6.6,0,0,0,.037-.436.585.585,0,0,0-.107-.2.289.289,0,0,0-.05-.049.355.355,0,0,0-.063-.038.384.384,0,0,0-.072-.026.369.369,0,0,0-.077-.011.566.566,0,0,0-.111.007.368.368,0,0,0-.091.027.253.253,0,0,0-.07.047.213.213,0,0,0-.047.065.224.224,0,0,0,0,.181.218.218,0,0,0,.032.053.442.442,0,0,1,.1.316.436.436,0,0,1-.043.159.422.422,0,0,1-.1.134.416.416,0,0,1-.062.044.411.411,0,0,1-.208.056Z" fill="url(#linear-gradient-16)"/>
        </g>
        <g id="그룹_18631-2" data-name="그룹 18631" transform="translate(0 2.969)">
          <path id="패스_12717-2" data-name="패스 12717" d="M8.57,5.265A1.711,1.711,0,0,1,9,6.037a1.765,1.765,0,0,1,.042.634,1.708,1.708,0,0,1-.07.322,1.689,1.689,0,0,1-.318.575,1.389,1.389,0,0,1-1.494.425,1.405,1.405,0,0,1-.488-.278A1.135,1.135,0,0,1,6.5,7.529a1.242,1.242,0,0,1-.13-.223,1.294,1.294,0,0,1-.083-.248A1.277,1.277,0,0,1,6.253,6.8a1.444,1.444,0,0,1,.038-.361,1.21,1.21,0,0,1,.122-.314,1.07,1.07,0,0,1,.2-.255,1.042,1.042,0,0,1,.269-.183,1.026,1.026,0,0,1,.465-.1A1.048,1.048,0,0,1,7.8,5.7a2.167,2.167,0,0,0-.333-.236,2.647,2.647,0,0,0-.587-.251,3.056,3.056,0,0,0-.842-.121,4,4,0,0,0-1.1.154c-.209.056-.421.1-.631.14s-.419.064-.621.082a5.749,5.749,0,0,1-.585.021,3.955,3.955,0,0,1-.522-.041l-.067-.008a2.79,2.79,0,0,1-.686-.175,2.826,2.826,0,0,1-.615-.337A2.9,2.9,0,0,1,.7,4.449a2.99,2.99,0,0,1-.4-.607,2.947,2.947,0,0,1-.231-.65A2.752,2.752,0,0,1,0,2.528,2.679,2.679,0,0,1,.1,1.874a2.736,2.736,0,0,1,.257-.622l.025-.044L.4,1.162l.028-.044L.46,1.074A2.275,2.275,0,0,1,.78.689a2.314,2.314,0,0,1,.393-.3A2.369,2.369,0,0,1,1.626.169a2.43,2.43,0,0,1,.5-.118,2.776,2.776,0,0,1,.709,0,2.329,2.329,0,0,1,.636.173,2.058,2.058,0,0,1,.95.832,2.116,2.116,0,0,1,.233.553A2.134,2.134,0,0,1,4.63,2.772a2.075,2.075,0,0,1-.255.539,1.594,1.594,0,0,1-.221.266,1.626,1.626,0,0,1-.272.211,1.66,1.66,0,0,1-.312.151,1.688,1.688,0,0,1-.342.084,1.945,1.945,0,0,1-.5.006,1.639,1.639,0,0,1-.452-.121,1.476,1.476,0,0,1-.68-.592,1.52,1.52,0,0,1-.154-1.233A1.485,1.485,0,0,1,1.622,1.7a1.235,1.235,0,0,1,.351-.351,1.218,1.218,0,0,1,1.372.024.431.431,0,0,1,.117.123.444.444,0,0,1,.061.319.43.43,0,0,1-.064.157.418.418,0,0,1-.119.119.411.411,0,0,1-.31.059.417.417,0,0,1-.154-.067.395.395,0,0,0-.444-.006.4.4,0,0,0-.114.114.625.625,0,0,0-.077.163.637.637,0,0,0,.064.517.609.609,0,0,0,.137.156.664.664,0,0,0,.184.1.843.843,0,0,0,.224.05,1.141,1.141,0,0,0,.258-.008.871.871,0,0,0,.172-.042.836.836,0,0,0,.156-.074.8.8,0,0,0,.135-.1.758.758,0,0,0,.109-.129,1.217,1.217,0,0,0,.149-.316A1.245,1.245,0,0,0,3.7,1.5a1.206,1.206,0,0,0-.255-.3A1.251,1.251,0,0,0,3.111,1,1.515,1.515,0,0,0,2.7.9,1.991,1.991,0,0,0,2.236.9a1.656,1.656,0,0,0-.327.076,1.517,1.517,0,0,0-.293.137,1.443,1.443,0,0,0-.458.442l-.02.031-.02.032L1.1,1.654l-.019.033a1.856,1.856,0,0,0-.175.425,1.826,1.826,0,0,0-.064.447,1.89,1.89,0,0,0,.048.455,2.038,2.038,0,0,0,.159.446,2.112,2.112,0,0,0,.279.427,2.041,2.041,0,0,0,.364.339,1.985,1.985,0,0,0,.432.237,1.957,1.957,0,0,0,.482.123l.079.009a3.24,3.24,0,0,0,.444.034,5,5,0,0,0,.5-.021c.175-.016.356-.04.538-.072s.365-.073.544-.121a4.69,4.69,0,0,1,1.541-.177,3.741,3.741,0,0,1,1.148.25,3.388,3.388,0,0,1,.746.406,2.306,2.306,0,0,1,.337.29l.021.019.021.02.02.02ZM7.195,7.045l0,0,0,0,0,0,0,0A.561.561,0,0,0,8.012,7,.836.836,0,0,0,8.2,6.557a.865.865,0,0,0,0-.165q0-.027-.006-.053t-.009-.053q-.005-.026-.012-.052t-.015-.051a.44.44,0,0,1-.006.073.432.432,0,0,1-.019.071.424.424,0,0,1-.075.131.413.413,0,0,1-.448.126A.424.424,0,0,1,7.47,6.5a.21.21,0,0,0-.228-.033.209.209,0,0,0-.064.047.259.259,0,0,0-.046.071.388.388,0,0,0-.027.093.6.6,0,0,0-.008.113.4.4,0,0,0,.028.14.372.372,0,0,0,.031.062A.32.32,0,0,0,7.195,7.045Z" fill="url(#linear-gradient-17)"/>
        </g>
      </g>
    </g>
    <g id="그룹_18638" data-name="그룹 18638" transform="translate(380.828 3840.01)">
      <g id="그룹_18623-3" data-name="그룹 18623" transform="translate(0.513 0.408)">
        <g id="그룹_18618-3" data-name="그룹 18618" transform="translate(0)">
          <g id="그룹_18616-3" data-name="그룹 18616" transform="translate(0 3.559)">
            <path id="패스_12701-3" data-name="패스 12701" d="M340.258,270.421a5.516,5.516,0,0,1,1.611-1.119l.155-.071a12.979,12.979,0,0,1,4.753-1.081c4.684-.209,6.088-3.251,6.1-3.281a.388.388,0,0,1,.023-.044,2.276,2.276,0,0,0-.78-3.109,1.726,1.726,0,0,0-2.363.562,1.273,1.273,0,0,0-.11,1.034,1.174,1.174,0,0,0,.941.907.956.956,0,0,0,.931-.454.4.4,0,0,1,.684.411,1.756,1.756,0,0,1-1.71.834,1.962,1.962,0,0,1-1.608-1.46,2.08,2.08,0,0,1,.191-1.689,2.526,2.526,0,0,1,3.457-.827,3.075,3.075,0,0,1,1.061,4.183c-.159.337-1.781,3.506-6.782,3.73a12.344,12.344,0,0,0-4.45,1l-.165.076a4.765,4.765,0,0,0-2.725,3.638,4.383,4.383,0,0,0,1.408,4q.132.118.274.228a3.773,3.773,0,0,0,3.048.7,3.5,3.5,0,0,0,3-2.515,3.084,3.084,0,0,0-1.118-3.158,2.29,2.29,0,0,0-1.8-.421,2.114,2.114,0,0,0-1.84,1.5,1.828,1.828,0,0,0,.663,1.882,1.372,1.372,0,0,0,1.021.277,1.338,1.338,0,0,0,.9-.518.4.4,0,0,1,.633.486,2.138,2.138,0,0,1-1.43.823,2.164,2.164,0,0,1-1.611-.436,2.627,2.627,0,0,1-.95-2.7,2.913,2.913,0,0,1,2.476-2.1,3.088,3.088,0,0,1,2.423.575,3.882,3.882,0,0,1,1.406,3.977,4.315,4.315,0,0,1-3.633,3.113,4.562,4.562,0,0,1-3.684-.853q-.164-.128-.317-.264a5.167,5.167,0,0,1-1.665-4.71A5.592,5.592,0,0,1,340.258,270.421Z" transform="translate(-338.623 -260.667)" fill="url(#linear-gradient)"/>
          </g>
          <g id="그룹_18617-3" data-name="그룹 18617" transform="translate(3.559)">
            <path id="패스_12702-3" data-name="패스 12702" d="M362.061,248.62a5.59,5.59,0,0,1,3.125-1.571,5.168,5.168,0,0,1,4.71,1.665q.136.152.263.316a4.561,4.561,0,0,1,.854,3.684,4.316,4.316,0,0,1-3.112,3.633,3.882,3.882,0,0,1-3.977-1.406,3.089,3.089,0,0,1-.575-2.423,2.913,2.913,0,0,1,2.1-2.476,2.626,2.626,0,0,1,2.7.95,2.165,2.165,0,0,1,.436,1.611,2.141,2.141,0,0,1-.823,1.43.4.4,0,0,1-.486-.633,1.336,1.336,0,0,0,.518-.9,1.371,1.371,0,0,0-.277-1.021,1.828,1.828,0,0,0-1.882-.662,2.115,2.115,0,0,0-1.5,1.84,2.29,2.29,0,0,0,.421,1.8,3.084,3.084,0,0,0,3.158,1.118,3.5,3.5,0,0,0,2.515-3,3.774,3.774,0,0,0-.7-3.048q-.11-.142-.228-.274a4.383,4.383,0,0,0-4-1.408,4.764,4.764,0,0,0-3.638,2.725l-.071.155a12.35,12.35,0,0,0-1.009,4.463c-.223,5-3.393,6.621-3.73,6.779a3.074,3.074,0,0,1-4.183-1.062,2.526,2.526,0,0,1,.826-3.456,2.08,2.08,0,0,1,1.689-.192,1.961,1.961,0,0,1,1.46,1.608,1.755,1.755,0,0,1-.834,1.71.4.4,0,1,1-.411-.684.957.957,0,0,0,.453-.931,1.173,1.173,0,0,0-.907-.941,1.273,1.273,0,0,0-1.034.11,1.724,1.724,0,0,0-.561,2.363,2.275,2.275,0,0,0,3.109.78.377.377,0,0,1,.044-.023c.124-.056,3.073-1.445,3.281-6.1a12.993,12.993,0,0,1,1.086-4.766l.066-.145A5.521,5.521,0,0,1,362.061,248.62Z" transform="translate(-352.308 -246.985)" fill="url(#linear-gradient-2)"/>
          </g>
        </g>
        <g id="그룹_18619-3" data-name="그룹 18619" transform="translate(12.077 12.077)">
          <path id="패스_12703-3" data-name="패스 12703" d="M385.173,293.535a.4.4,0,0,1,.439-.085,13.415,13.415,0,0,1,4.539,3.181c.686.879.591,1.675.192,2.073s-1.195.494-2.074-.192a13.419,13.419,0,0,1-3.181-4.539A.4.4,0,0,1,385.173,293.535Zm4.606,4.606c.15-.15.111-.549-.256-1.019h0a10.639,10.639,0,0,0-3.194-2.431,10.65,10.65,0,0,0,2.431,3.194C389.23,298.251,389.629,298.291,389.779,298.141Zm.058-1.264,0,0Z" transform="translate(-385.056 -293.418)" fill="url(#linear-gradient-3)"/>
        </g>
        <g id="그룹_18622-3" data-name="그룹 18622" transform="translate(9.991 9.991)">
          <g id="그룹_18620-3" data-name="그룹 18620" transform="translate(0 4.051)">
            <path id="패스_12704-3" data-name="패스 12704" d="M377.781,301.091a.4.4,0,0,1,.617.067,3.98,3.98,0,0,1,.673,2.435h0a1,1,0,0,1-.992.83,1.018,1.018,0,0,1-1.007-.832,3.938,3.938,0,0,1,.655-2.432A.412.412,0,0,1,377.781,301.091Zm.9,2.425-.391-.076a2.273,2.273,0,0,0-.222-1.2,2.256,2.256,0,0,0-.212,1.188.216.216,0,0,0,.223.191.2.2,0,0,0,.211-.184Z" transform="translate(-377.036 -300.974)" fill="url(#linear-gradient-4)"/>
          </g>
          <g id="그룹_18621-3" data-name="그룹 18621" transform="translate(4.051)">
            <path id="패스_12705-3" data-name="패스 12705" d="M392.729,286.142a.38.38,0,0,1,.067-.054,3.936,3.936,0,0,1,2.432-.655,1.018,1.018,0,0,1,.832,1.007,1,1,0,0,1-.83.992h0a3.982,3.982,0,0,1-2.435-.672.4.4,0,0,1-.066-.617Zm2.476.445a.209.209,0,0,0,.057-.15.216.216,0,0,0-.191-.223,2.252,2.252,0,0,0-1.188.211,2.279,2.279,0,0,0,1.2.223A.238.238,0,0,0,395.205,286.587Z" transform="translate(-392.612 -285.397)" fill="url(#linear-gradient-5)"/>
          </g>
        </g>
      </g>
      <g id="그룹_18626-3" data-name="그룹 18626" transform="translate(5.75 18.822)">
        <g id="그룹_18624-3" data-name="그룹 18624" transform="translate(0 28.023)">
          <path id="패스_12706-3" data-name="패스 12706" d="M358.756,438.818l1.522-1.531,1.522,1.531-1.522,1.531Z" transform="translate(-358.756 -434.226)" fill="url(#linear-gradient-6)"/>
          <path id="패스_12707-3" data-name="패스 12707" d="M358.756,427.049l1.522-1.531,1.522,1.531-1.522,1.531Z" transform="translate(-358.756 -425.518)" fill="url(#linear-gradient-7)"/>
        </g>
        <g id="그룹_18625-3" data-name="그룹 18625" transform="translate(0 8.328)">
          <path id="패스_12708-3" data-name="패스 12708" d="M358.756,363.1l1.522-1.531L361.8,363.1l-1.522,1.531Z" transform="translate(-358.756 -358.508)" fill="url(#linear-gradient-8)"/>
          <path id="패스_12709-3" data-name="패스 12709" d="M358.756,351.33l1.522-1.531,1.522,1.531-1.522,1.531Z" transform="translate(-358.756 -349.8)" fill="url(#linear-gradient-9)"/>
        </g>
        <path id="패스_12710-3" data-name="패스 12710" d="M363.522,317.78a.381.381,0,0,0-.381.381V354.89a.381.381,0,0,0,.762,0V318.161A.381.381,0,0,0,363.522,317.78Z" transform="translate(-362 -317.78)" fill="url(#linear-gradient-10)"/>
      </g>
      <g id="그룹_18629-3" data-name="그룹 18629" transform="translate(18.837 5.658)">
        <g id="그룹_18627-3" data-name="그룹 18627" transform="translate(28.023 0)">
          <path id="패스_12711-3" data-name="패스 12711" d="M530.11,270.212l-1.531-1.522,1.531-1.522,1.531,1.522Z" transform="translate(-525.518 -267.169)" fill="url(#linear-gradient-11)"/>
          <path id="패스_12712-3" data-name="패스 12712" d="M518.341,270.212l-1.531-1.522,1.531-1.522,1.531,1.522Z" transform="translate(-516.81 -267.169)" fill="url(#linear-gradient-12)"/>
        </g>
        <g id="그룹_18628-3" data-name="그룹 18628" transform="translate(8.328 0)">
          <path id="패스_12713-3" data-name="패스 12713" d="M454.391,270.212l-1.531-1.522,1.531-1.522,1.531,1.522Z" transform="translate(-449.799 -267.169)" fill="url(#linear-gradient-13)"/>
          <path id="패스_12714-3" data-name="패스 12714" d="M442.622,270.212l-1.531-1.522,1.531-1.522,1.531,1.522Z" transform="translate(-441.092 -267.169)" fill="url(#linear-gradient-14)"/>
        </g>
        <path id="패스_12715-3" data-name="패스 12715" d="M446.182,271.554H409.453a.381.381,0,0,0,0,.762h36.729a.381.381,0,0,0,0-.762Z" transform="translate(-409.072 -270.413)" fill="url(#linear-gradient-15)"/>
      </g>
      <g id="그룹_18632-3" data-name="그룹 18632" transform="translate(0 0)">
        <g id="그룹_18630-3" data-name="그룹 18630" transform="translate(0 1.684)">
          <path id="패스_12716-3" data-name="패스 12716" d="M340,260.232a2.855,2.855,0,0,1-.821-1.715l-.009-.08a6.4,6.4,0,0,1,.228-2.38,3.075,3.075,0,0,0-.415-2.9,1.071,1.071,0,0,1,.009.932,1.154,1.154,0,0,1-1.109.636,1.233,1.233,0,0,1-.9-.423,1.434,1.434,0,0,1,.17-2.006,1.679,1.679,0,0,1,2.354.167,3.81,3.81,0,0,1,.717,3.823,5.61,5.61,0,0,0-.2,2.047l.01.091a2.016,2.016,0,0,0,1.1,1.582,1.815,1.815,0,0,0,1.756-.032c.045-.026.088-.053.131-.081a1.543,1.543,0,0,0,.658-1.094,1.433,1.433,0,0,0-.573-1.491,1.206,1.206,0,0,0-1.31.027.842.842,0,0,0-.351.579.777.777,0,0,0,.291.815.618.618,0,0,0,.674-.013.41.41,0,0,0,.112-.567.427.427,0,0,1,.708-.477,1.264,1.264,0,0,1-.342,1.75,1.47,1.47,0,0,1-1.6.029,1.609,1.609,0,0,1-.682-1.66,1.7,1.7,0,0,1,.718-1.163,2.06,2.06,0,0,1,2.237-.045,2.274,2.274,0,0,1,.968,2.331,2.418,2.418,0,0,1-1.029,1.689c-.061.041-.12.078-.181.112a2.654,2.654,0,0,1-2.567.052A2.9,2.9,0,0,1,340,260.232Zm-1.488-7.442a.832.832,0,0,0-.809.155.578.578,0,0,0-.07.809.363.363,0,0,0,.266.118.322.322,0,0,0,.323-.147.216.216,0,0,0-.03-.231.427.427,0,0,1,.321-.7Z" transform="translate(-336.651 -251.892)" fill="url(#linear-gradient-16)"/>
        </g>
        <g id="그룹_18631-3" data-name="그룹 18631" transform="translate(1.684)">
          <path id="패스_12717-3" data-name="패스 12717" d="M343.615,248.194a1.679,1.679,0,0,1-.084-2.276,1.434,1.434,0,0,1,2.006-.171,1.213,1.213,0,0,1,.423.9,1.153,1.153,0,0,1-.636,1.109,1.071,1.071,0,0,1-.933-.009,3.071,3.071,0,0,0,2.9.416,6.425,6.425,0,0,1,2.394-.227l.068.007a2.866,2.866,0,0,1,2.25,1.56,2.655,2.655,0,0,1-.053,2.568c-.034.059-.071.118-.109.177a2.42,2.42,0,0,1-1.69,1.031,2.272,2.272,0,0,1-2.331-.968,2.06,2.06,0,0,1,.045-2.237,1.7,1.7,0,0,1,1.163-.718,1.61,1.61,0,0,1,1.661.682,1.47,1.47,0,0,1-.029,1.6,1.264,1.264,0,0,1-1.75.342.426.426,0,1,1,.477-.707.41.41,0,0,0,.567-.112.617.617,0,0,0,.013-.674.778.778,0,0,0-.815-.291.842.842,0,0,0-.579.351,1.206,1.206,0,0,0-.027,1.31,1.432,1.432,0,0,0,1.491.573,1.544,1.544,0,0,0,1.1-.66c.027-.04.054-.083.079-.127a1.817,1.817,0,0,0,.033-1.758,2.017,2.017,0,0,0-1.582-1.1l-.08-.008a5.61,5.61,0,0,0-2.062.2,3.8,3.8,0,0,1-3.82-.718C343.669,248.247,343.642,248.221,343.615,248.194Zm1.391-1.776-.018-.016a.578.578,0,0,0-.809.071.827.827,0,0,0-.2.6.813.813,0,0,0,.042.205.426.426,0,0,1,.7-.321.215.215,0,0,0,.231.03.321.321,0,0,0,.148-.323A.367.367,0,0,0,345.006,246.418Z" transform="translate(-343.127 -245.417)" fill="url(#linear-gradient-17)"/>
        </g>
      </g>
    </g>
    <g id="그룹_18639" data-name="그룹 18639" transform="translate(380.828 3925.459)">
      <g id="그룹_18623-4" data-name="그룹 18623" transform="translate(0.513 33.555)">
        <g id="그룹_18618-4" data-name="그룹 18618">
          <g id="그룹_18616-4" data-name="그룹 18616">
            <path id="패스_12701-4" data-name="패스 12701" d="M1.635,9.037q.172.172.36.33t.39.3q.2.141.418.264t.444.228l.155.071a8.1,8.1,0,0,0,.991.4c.361.121.751.23,1.159.323s.836.171,1.273.231.883.1,1.331.126a8.931,8.931,0,0,1,2.928.6,6.8,6.8,0,0,1,1.875,1.111,5.793,5.793,0,0,1,1,1.077,3.434,3.434,0,0,1,.3.5l.005.011.006.011.006.011.006.011a2.231,2.231,0,0,1,.3.844A2.284,2.284,0,0,1,13.5,17.743a1.734,1.734,0,0,1-1.9-.067,1.7,1.7,0,0,1-.463-.5,1.125,1.125,0,0,1-.109-.235,1.247,1.247,0,0,1-.055-.259,1.324,1.324,0,0,1,0-.27,1.339,1.339,0,0,1,.055-.27,1.711,1.711,0,0,1,.156-.356,1.283,1.283,0,0,1,.214-.275,1.03,1.03,0,0,1,.265-.186.96.96,0,0,1,1.064.152.94.94,0,0,1,.174.212.4.4,0,1,0,.684-.411,1.757,1.757,0,0,0-2.24-.684,1.811,1.811,0,0,0-.457.3,2.063,2.063,0,0,0-.365.442,2.478,2.478,0,0,0-.255.564,2.135,2.135,0,0,0-.083.876,2.059,2.059,0,0,0,.094.424,1.9,1.9,0,0,0,.181.389,2.486,2.486,0,0,0,.678.726,2.529,2.529,0,0,0,2.779.1,3.086,3.086,0,0,0,1.457-3.046,3.022,3.022,0,0,0-.4-1.137,4.517,4.517,0,0,0-.424-.693A6.588,6.588,0,0,0,13.4,12.334a7.532,7.532,0,0,0-2.06-1.193,9.83,9.83,0,0,0-3.147-.63c-.414-.021-.832-.062-1.242-.118s-.813-.129-1.2-.216-.752-.188-1.09-.3a7.363,7.363,0,0,1-.92-.37l-.165-.076a4.747,4.747,0,0,1-2.4-2.485A4.864,4.864,0,0,1,.853,5.793,4.716,4.716,0,0,1,.817,4.664,4.387,4.387,0,0,1,1.047,3.6a4.29,4.29,0,0,1,.486-.967A4.437,4.437,0,0,1,2.261,1.8l.067-.058L2.4,1.681l.069-.057.07-.056A3.643,3.643,0,0,1,3.959.894a3.833,3.833,0,0,1,.8-.1A4.159,4.159,0,0,1,5.584.87a4.889,4.889,0,0,1,1.1.335,3.753,3.753,0,0,1,.884.546,3.12,3.12,0,0,1,.644.734,3.015,3.015,0,0,1,.377.9A3.063,3.063,0,0,1,8.5,5.126,3.093,3.093,0,0,1,7.469,6.543a2.142,2.142,0,0,1-.4.243,2.246,2.246,0,0,1-.443.154A2.343,2.343,0,0,1,6.157,7a2.416,2.416,0,0,1-.484-.036A3.024,3.024,0,0,1,5,6.767a2.288,2.288,0,0,1-.542-.325A1.867,1.867,0,0,1,4.063,6a1.778,1.778,0,0,1-.231-.54,1.815,1.815,0,0,1,.051-1.038,1.836,1.836,0,0,1,.611-.845,1.4,1.4,0,0,1,.232-.145,1.365,1.365,0,0,1,.517-.14,1.392,1.392,0,0,1,.534.069,1.342,1.342,0,0,1,.241.108,1.326,1.326,0,0,1,.4.349.418.418,0,0,0,.122.1.4.4,0,0,0,.145.048.392.392,0,0,0,.151-.01.4.4,0,0,0,.215-.629,2.163,2.163,0,0,0-.291-.311,2.126,2.126,0,0,0-.724-.416A2.2,2.2,0,0,0,5.188,2.5a2.153,2.153,0,0,0-.815.221,2.212,2.212,0,0,0-.366.229A2.631,2.631,0,0,0,2.985,4.9a2.607,2.607,0,0,0,.072.758,2.56,2.56,0,0,0,.319.754,2.668,2.668,0,0,0,.538.616,3.085,3.085,0,0,0,.728.455,3.758,3.758,0,0,0,.891.27,3.209,3.209,0,0,0,.65.048,3.142,3.142,0,0,0,.635-.083,3.045,3.045,0,0,0,.6-.209,2.935,2.935,0,0,0,.54-.33A3.89,3.89,0,0,0,9.464,4.312a3.844,3.844,0,0,0-.1-1.114A3.764,3.764,0,0,0,8.9,2.087a3.948,3.948,0,0,0-.788-.913A4.581,4.581,0,0,0,7.041.5,5.58,5.58,0,0,0,5.73.085a4.973,4.973,0,0,0-1-.085,4.616,4.616,0,0,0-.961.117A4.438,4.438,0,0,0,2.046.939L1.965,1l-.08.065-.078.066L1.73,1.2a5.254,5.254,0,0,0-.86.984A5.066,5.066,0,0,0,.3,3.328,5.163,5.163,0,0,0,.022,4.583,5.533,5.533,0,0,0,.064,5.913a5.693,5.693,0,0,0,.206.881,5.586,5.586,0,0,0,.8,1.575A5.53,5.53,0,0,0,1.635,9.037Z" fill="url(#linear-gradient)"/>
          </g>
          <g id="그룹_18617-4" data-name="그룹 18617" transform="translate(3.559 6.952)">
            <path id="패스_12702-4" data-name="패스 12702" d="M9.753,13.763a5.544,5.544,0,0,0,1.421,1.028,5.609,5.609,0,0,0,.823.337,5.688,5.688,0,0,0,.881.206,5.533,5.533,0,0,0,1.329.042,5.163,5.163,0,0,0,1.256-.273,5.067,5.067,0,0,0,1.141-.574,5.255,5.255,0,0,0,.984-.86l.068-.077.066-.078.065-.08.064-.081a4.437,4.437,0,0,0,.821-1.725,4.615,4.615,0,0,0,.118-.961,4.971,4.971,0,0,0-.085-1,5.581,5.581,0,0,0-.41-1.311,4.582,4.582,0,0,0-.679-1.07A3.948,3.948,0,0,0,16.7,6.5a3.766,3.766,0,0,0-1.111-.464A3.86,3.86,0,0,0,13.4,6.15a3.89,3.89,0,0,0-1.784,1.291,2.937,2.937,0,0,0-.33.54,3.046,3.046,0,0,0-.209.6,3.142,3.142,0,0,0-.083.635,3.209,3.209,0,0,0,.048.65,3.756,3.756,0,0,0,.27.891,3.086,3.086,0,0,0,.455.729,2.668,2.668,0,0,0,.616.538,2.56,2.56,0,0,0,.754.319,2.613,2.613,0,0,0,1.491-.073,2.632,2.632,0,0,0,1.213-.877,2.211,2.211,0,0,0,.229-.366,2.154,2.154,0,0,0,.221-.815,2.195,2.195,0,0,0-.109-.845,2.128,2.128,0,0,0-.416-.724,2.174,2.174,0,0,0-.311-.291.4.4,0,0,0-.559.073.4.4,0,0,0-.07.142.4.4,0,0,0,.038.3.4.4,0,0,0,.105.12,1.328,1.328,0,0,1,.458.638,1.395,1.395,0,0,1,.069.534,1.364,1.364,0,0,1-.14.517,1.4,1.4,0,0,1-.145.232,1.832,1.832,0,0,1-1.355.712,1.81,1.81,0,0,1-.527-.05,1.781,1.781,0,0,1-.54-.231,1.869,1.869,0,0,1-.439-.395,2.288,2.288,0,0,1-.325-.542,3.024,3.024,0,0,1-.2-.673,2.42,2.42,0,0,1-.036-.485,2.344,2.344,0,0,1,.061-.472A2.244,2.244,0,0,1,12,8.327a2.14,2.14,0,0,1,.243-.4,3.092,3.092,0,0,1,2.273-1.2,3.048,3.048,0,0,1,.885.08,3.017,3.017,0,0,1,.9.378,3.12,3.12,0,0,1,.734.644,3.753,3.753,0,0,1,.546.884,4.89,4.89,0,0,1,.335,1.1,4.159,4.159,0,0,1,.071.828,3.834,3.834,0,0,1-.1.8,3.643,3.643,0,0,1-.675,1.424l-.056.07L17.109,13l-.058.068-.058.067a4.435,4.435,0,0,1-.834.728,4.289,4.289,0,0,1-.967.486,4.387,4.387,0,0,1-1.066.231A4.717,4.717,0,0,1,13,14.545a4.862,4.862,0,0,1-1.153-.323,4.74,4.74,0,0,1-2.485-2.4l-.071-.155a7.451,7.451,0,0,1-.373-.926c-.113-.34-.215-.708-.3-1.094s-.16-.789-.217-1.2S8.3,7.617,8.279,7.2a9.821,9.821,0,0,0-.63-3.145A7.529,7.529,0,0,0,6.457,2,6.587,6.587,0,0,0,5.243.846,4.5,4.5,0,0,0,4.549.423a3.023,3.023,0,0,0-1.137-.4A3.082,3.082,0,0,0,.366,1.484a2.517,2.517,0,0,0-.339.939,2.543,2.543,0,0,0,.44,1.841,2.477,2.477,0,0,0,.725.677,1.9,1.9,0,0,0,.389.181,2.058,2.058,0,0,0,.424.094,2.134,2.134,0,0,0,.876-.083,2.475,2.475,0,0,0,.564-.255,2.063,2.063,0,0,0,.442-.365,1.811,1.811,0,0,0,.3-.457,1.754,1.754,0,0,0-.684-2.24A.4.4,0,1,0,3.1,2.5a.939.939,0,0,1,.212.174A.961.961,0,0,1,3.46,3.737,1.029,1.029,0,0,1,3.274,4,1.282,1.282,0,0,1,3,4.215a1.71,1.71,0,0,1-.356.155,1.34,1.34,0,0,1-.269.055,1.324,1.324,0,0,1-.27,0,1.246,1.246,0,0,1-.259-.055,1.127,1.127,0,0,1-.236-.109,1.688,1.688,0,0,1-.5-.463,1.72,1.72,0,0,1-.271-.6,1.732,1.732,0,0,1,.205-1.3A2.286,2.286,0,0,1,3.314.819a2.231,2.231,0,0,1,.844.3l.011.006.011.006.011.006L4.2,1.14a3.5,3.5,0,0,1,.536.322,5.694,5.694,0,0,1,1.073,1A6.74,6.74,0,0,1,6.9,4.331,9.031,9.031,0,0,1,7.482,7.24c.023.448.066.895.126,1.332s.138.865.231,1.274a12.065,12.065,0,0,0,.324,1.163,8.189,8.189,0,0,0,.4,1l.066.145q.1.228.228.444t.264.418q.141.2.3.39T9.753,13.763Z" fill="url(#linear-gradient-2)"/>
          </g>
        </g>
        <g id="그룹_18619-4" data-name="그룹 18619" transform="translate(12.077 4.674)">
          <path id="패스_12703-4" data-name="패스 12703" d="M.117,5.482a.4.4,0,0,0,.439.085c.031-.013.241-.1.561-.261s.748-.381,1.218-.66A13.734,13.734,0,0,0,3.8,3.65,7.644,7.644,0,0,0,5.1,2.385a2.616,2.616,0,0,0,.376-.639A1.723,1.723,0,0,0,5.6,1.168,1.262,1.262,0,0,0,5.522.68a1.008,1.008,0,0,0-.6-.6A1.263,1.263,0,0,0,4.43,0a1.722,1.722,0,0,0-.578.127A2.614,2.614,0,0,0,3.214.5,7.649,7.649,0,0,0,1.948,1.8,13.74,13.74,0,0,0,.954,3.264c-.279.47-.5.9-.66,1.218s-.248.529-.261.561a.4.4,0,0,0,.085.439ZM4.723.876a.288.288,0,0,1,.075.156.621.621,0,0,1-.009.233,1.218,1.218,0,0,1-.106.293,2.025,2.025,0,0,1-.216.336h0a5.945,5.945,0,0,1-.705.745,9.617,9.617,0,0,1-.833.666c-.288.207-.581.4-.862.568s-.551.323-.793.452c.13-.242.282-.512.453-.793s.362-.575.568-.863a9.629,9.629,0,0,1,.666-.833,5.943,5.943,0,0,1,.745-.7A2.025,2.025,0,0,1,4.041.916,1.219,1.219,0,0,1,4.334.81.621.621,0,0,1,4.566.8.288.288,0,0,1,4.723.876ZM4.781,2.14l0,0Z" fill="url(#linear-gradient-3)"/>
        </g>
        <g id="그룹_18622-4" data-name="그룹 18622" transform="translate(9.991 4.859)">
          <g id="그룹_18620-4" data-name="그룹 18620" transform="translate(0 0)">
            <path id="패스_12704-4" data-name="패스 12704" d="M.745,3.331a.4.4,0,0,0,.281.117.4.4,0,0,0,.336-.183c.022-.035.088-.14.171-.293a5.5,5.5,0,0,0,.274-.587,3.944,3.944,0,0,0,.22-.756,2.216,2.216,0,0,0,.008-.8h0A1.078,1.078,0,0,0,1.909.492.986.986,0,0,0,1.69.23a.974.974,0,0,0-.3-.169A1.046,1.046,0,0,0,1.043,0,1.028,1.028,0,0,0,.691.06a1,1,0,0,0-.3.171A1.019,1.019,0,0,0,.165.495,1.066,1.066,0,0,0,.036.832a2.214,2.214,0,0,0,0,.8,3.9,3.9,0,0,0,.214.755,5.422,5.422,0,0,0,.27.586c.082.153.147.258.169.293L.7,3.282.716,3.3l.014.016Zm.9-2.425L1.252.982a1.177,1.177,0,0,1,.017.283,1.948,1.948,0,0,1-.042.3,2.978,2.978,0,0,1-.085.31c-.034.1-.072.2-.112.3-.039-.1-.076-.2-.109-.3a2.954,2.954,0,0,1-.082-.308A1.932,1.932,0,0,1,.8,1.27,1.172,1.172,0,0,1,.817.989a.271.271,0,0,1,.042-.1A.2.2,0,0,1,.921.828.218.218,0,0,1,.987.8.254.254,0,0,1,1.04.8.25.25,0,0,1,1.1.8.2.2,0,0,1,1.159.83a.186.186,0,0,1,.056.056.268.268,0,0,1,.037.1Z" fill="url(#linear-gradient-4)"/>
          </g>
          <g id="그룹_18621-4" data-name="그룹 18621" transform="translate(4.051 5.432)">
            <path id="패스_12705-4" data-name="패스 12705" d="M.117,1.323l.015.015.016.014.017.013.018.012c.035.022.139.087.293.169a5.415,5.415,0,0,0,.586.27,3.9,3.9,0,0,0,.754.214,2.215,2.215,0,0,0,.8,0,1.067,1.067,0,0,0,.338-.13,1.019,1.019,0,0,0,.263-.226,1,1,0,0,0,.171-.3,1.027,1.027,0,0,0,.06-.352A1.044,1.044,0,0,0,3.387.673a.973.973,0,0,0-.169-.3.986.986,0,0,0-.262-.22A1.08,1.08,0,0,0,2.618.033h0a2.216,2.216,0,0,0-.8.008A3.945,3.945,0,0,0,1.064.26,5.505,5.505,0,0,0,.477.534C.323.617.218.683.183.705a.4.4,0,0,0-.066.617ZM2.593.878a.183.183,0,0,1,.029.038.2.2,0,0,1,.017.039.227.227,0,0,1,.008.038.258.258,0,0,1,0,.034.255.255,0,0,1-.005.053.218.218,0,0,1-.025.066.2.2,0,0,1-.058.062.271.271,0,0,1-.1.042,1.178,1.178,0,0,1-.282.019,1.931,1.931,0,0,1-.3-.039,2.94,2.94,0,0,1-.308-.082c-.1-.033-.2-.07-.3-.109.1-.04.2-.079.3-.112A3,3,0,0,1,1.88.841,1.949,1.949,0,0,1,2.184.8a1.168,1.168,0,0,1,.282.017l.041.011a.255.255,0,0,1,.034.014A.213.213,0,0,1,2.57.858.191.191,0,0,1,2.593.878Z" fill="url(#linear-gradient-5)"/>
          </g>
        </g>
      </g>
      <g id="그룹_18626-4" data-name="그룹 18626" transform="translate(5.75)">
        <g id="그룹_18624-4" data-name="그룹 18624" transform="translate(0 3.346)">
          <path id="패스_12706-4" data-name="패스 12706" d="M0,1.531,1.522,3.061,3.043,1.531,1.522,0Z" fill="url(#linear-gradient-6)"/>
          <path id="패스_12707-4" data-name="패스 12707" d="M0,1.531,1.522,3.061,3.043,1.531,1.522,0Z" transform="translate(0 3.061)" fill="url(#linear-gradient-7)"/>
        </g>
        <g id="그룹_18625-4" data-name="그룹 18625" transform="translate(0 23.041)">
          <path id="패스_12708-4" data-name="패스 12708" d="M0,1.531,1.522,3.062,3.043,1.531,1.522,0Z" transform="translate(0 0)" fill="url(#linear-gradient-8)"/>
          <path id="패스_12709-4" data-name="패스 12709" d="M0,1.531,1.522,3.061,3.043,1.531,1.522,0Z" transform="translate(0 3.061)" fill="url(#linear-gradient-9)"/>
        </g>
        <path id="패스_12710-4" data-name="패스 12710" d="M.381,37.491A.381.381,0,0,1,0,37.11V.381a.381.381,0,1,1,.762,0V37.11a.381.381,0,0,1-.381.381Z" transform="translate(1.141)" fill="url(#linear-gradient-10)"/>
      </g>
      <g id="그룹_18629-4" data-name="그룹 18629" transform="translate(18.837 47.612)">
        <g id="그룹_18627-4" data-name="그룹 18627" transform="translate(28.023)">
          <path id="패스_12711-4" data-name="패스 12711" d="M1.531,0,0,1.522,1.531,3.043,3.061,1.522Z" transform="translate(3.061)" fill="url(#linear-gradient-11)"/>
          <path id="패스_12712-4" data-name="패스 12712" d="M1.531,0,0,1.522,1.531,3.043,3.061,1.522Z" fill="url(#linear-gradient-12)"/>
        </g>
        <g id="그룹_18628-4" data-name="그룹 18628" transform="translate(8.328)">
          <path id="패스_12713-4" data-name="패스 12713" d="M1.531,0,0,1.522,1.531,3.043,3.061,1.522Z" transform="translate(3.061)" fill="url(#linear-gradient-13)"/>
          <path id="패스_12714-4" data-name="패스 12714" d="M1.531,0,0,1.522,1.531,3.043,3.061,1.522Z" fill="url(#linear-gradient-14)"/>
        </g>
        <path id="패스_12715-4" data-name="패스 12715" d="M37.11.762H.381A.381.381,0,1,1,.381,0H37.11a.381.381,0,1,1,0,.762Z" transform="translate(0 1.14)" fill="url(#linear-gradient-15)"/>
      </g>
      <g id="그룹_18632-4" data-name="그룹 18632" transform="translate(0 45.448)">
        <g id="그룹_18630-4" data-name="그룹 18630">
          <path id="패스_12716-4" data-name="패스 12716" d="M3.353.841a2.856,2.856,0,0,0-.821,1.715l-.009.08a4.016,4.016,0,0,0-.034.524c0,.187.009.386.028.59s.049.416.088.628.088.427.146.638a4.181,4.181,0,0,1,.166,1.114,3.155,3.155,0,0,1-.109.853,2.683,2.683,0,0,1-.241.595,2.163,2.163,0,0,1-.231.339,1.072,1.072,0,0,0-.175-1.2,1.08,1.08,0,0,0-.255-.2,1.2,1.2,0,0,0-.312-.124,1.4,1.4,0,0,0-.358-.038,1.2,1.2,0,0,0-.259.033,1.263,1.263,0,0,0-.245.086A1.239,1.239,0,0,0,.513,6.6a1.122,1.122,0,0,0-.182.172,1.409,1.409,0,0,0-.269.494A1.435,1.435,0,0,0,.5,8.777a1.707,1.707,0,0,0,.272.19,1.665,1.665,0,0,0,.619.2,1.7,1.7,0,0,0,.654-.05,1.664,1.664,0,0,0,.573-.287,1.687,1.687,0,0,0,.236-.222,2.351,2.351,0,0,0,.281-.34,3.425,3.425,0,0,0,.393-.755,3.845,3.845,0,0,0,.235-1.164,4.878,4.878,0,0,0-.192-1.564c-.05-.181-.092-.366-.126-.55s-.06-.367-.078-.544-.027-.348-.027-.509a3.291,3.291,0,0,1,.027-.444l.01-.091a2.011,2.011,0,0,1,.678-1.3,2.046,2.046,0,0,1,.42-.283A1.962,1.962,0,0,1,4.918.9a1.82,1.82,0,0,1,.45-.049A1.774,1.774,0,0,1,5.812.92a1.828,1.828,0,0,1,.422.178l.034.02.033.02.032.02.032.021a1.457,1.457,0,0,1,.246.208,1.486,1.486,0,0,1,.194.256,1.58,1.58,0,0,1,.139.3,1.731,1.731,0,0,1,.079.332,2.076,2.076,0,0,1,.012.474,1.563,1.563,0,0,1-.095.415,1.26,1.26,0,0,1-.2.343,1.18,1.18,0,0,1-.293.259,1.2,1.2,0,0,1-.658.18,1.208,1.208,0,0,1-.652-.207.77.77,0,0,1-.129-.11.819.819,0,0,1-.1-.137.868.868,0,0,1-.075-.158.909.909,0,0,1-.043-.174A1.191,1.191,0,0,1,4.778,2.9a.869.869,0,0,1,.047-.228.668.668,0,0,1,.1-.187.6.6,0,0,1,.153-.139.614.614,0,0,1,.338-.093.62.62,0,0,1,.336.106.412.412,0,0,1,.174.418.4.4,0,0,1-.062.149.427.427,0,1,0,.708.477,1.25,1.25,0,0,0,.191-.461,1.264,1.264,0,0,0-.533-1.288,1.466,1.466,0,0,0-2.184.661,1.686,1.686,0,0,0-.115.459,2.031,2.031,0,0,0,.012.511,1.761,1.761,0,0,0,.087.347,1.725,1.725,0,0,0,.153.316,1.672,1.672,0,0,0,.212.276,1.613,1.613,0,0,0,.265.225A2.057,2.057,0,0,0,6.9,4.489a2.029,2.029,0,0,0,.484-.419,2.094,2.094,0,0,0,.33-.546,2.4,2.4,0,0,0,.165-.646,2.891,2.891,0,0,0-.011-.72,2.539,2.539,0,0,0-.122-.505,2.465,2.465,0,0,0-.218-.46,2.375,2.375,0,0,0-.305-.4A2.287,2.287,0,0,0,6.839.469L6.793.44,6.748.411,6.7.384,6.658.357A2.7,2.7,0,0,0,6.039.1,2.6,2.6,0,0,0,5.39,0,2.652,2.652,0,0,0,4.733.07a2.841,2.841,0,0,0-.642.235q-.1.053-.2.113T3.7.546q-.093.067-.179.141T3.353.841ZM1.865,8.283l-.05.015-.051.012-.052.009-.053.006a.837.837,0,0,1-.164,0,.823.823,0,0,1-.306-.1.843.843,0,0,1-.135-.094.577.577,0,0,1-.141-.179.582.582,0,0,1-.038-.431.565.565,0,0,1,.108-.2.285.285,0,0,1,.051-.047A.355.355,0,0,1,1.1,7.235a.39.39,0,0,1,.073-.024.38.38,0,0,1,.078-.01.587.587,0,0,1,.112.008.382.382,0,0,1,.092.028.26.26,0,0,1,.071.047.214.214,0,0,1,.047.065.218.218,0,0,1,.019.121.214.214,0,0,1-.016.058.211.211,0,0,1-.033.052.427.427,0,0,0,.321.7Z" fill="url(#linear-gradient-16)"/>
        </g>
        <g id="그룹_18631-4" data-name="그룹 18631" transform="translate(1.684 2.969)">
          <path id="패스_12717-4" data-name="패스 12717" d="M.488,5.118a1.67,1.67,0,0,0-.19.227,1.653,1.653,0,0,0-.244.532A1.7,1.7,0,0,0,.012,6.5a1.667,1.667,0,0,0,.2.619,1.7,1.7,0,0,0,.19.272,1.424,1.424,0,0,0,.444.348,1.444,1.444,0,0,0,1.068.091,1.41,1.41,0,0,0,.494-.268,1.113,1.113,0,0,0,.175-.183,1.2,1.2,0,0,0,.132-.219A1.246,1.246,0,0,0,2.8,6.919a1.229,1.229,0,0,0,.032-.258A1.4,1.4,0,0,0,2.795,6.3a1.2,1.2,0,0,0-.124-.312A1.07,1.07,0,0,0,2.2,5.551a1.071,1.071,0,0,0-.933.009,2.157,2.157,0,0,1,.337-.23A2.68,2.68,0,0,1,2.2,5.089a3.149,3.149,0,0,1,.853-.11,4.168,4.168,0,0,1,1.114.165c.212.058.427.107.64.146s.425.069.63.088.4.029.594.028a4.1,4.1,0,0,0,.53-.035l.068-.007A2.859,2.859,0,0,0,8.473,4.4a2.911,2.911,0,0,0,.4-.6,2.842,2.842,0,0,0,.235-.642,2.652,2.652,0,0,0,.069-.657,2.6,2.6,0,0,0-.1-.65,2.7,2.7,0,0,0-.261-.62L8.8,1.192,8.77,1.148,8.742,1.1l-.029-.044A2.3,2.3,0,0,0,8.388.675a2.38,2.38,0,0,0-.4-.306,2.463,2.463,0,0,0-.46-.218A2.538,2.538,0,0,0,7.023.028,2.891,2.891,0,0,0,6.3.018a2.393,2.393,0,0,0-.646.165,2.092,2.092,0,0,0-.546.33,2.043,2.043,0,0,0-.655,1.029,2.062,2.062,0,0,0,.282,1.692,1.613,1.613,0,0,0,.225.265,1.671,1.671,0,0,0,.275.212,1.724,1.724,0,0,0,.316.153,1.762,1.762,0,0,0,.347.087,2.025,2.025,0,0,0,.511.012,1.684,1.684,0,0,0,.459-.115,1.49,1.49,0,0,0,.389-.234,1.469,1.469,0,0,0,.272-1.95,1.261,1.261,0,0,0-1.75-.342.426.426,0,1,0,.477.707.4.4,0,0,1,.149-.062.409.409,0,0,1,.156,0,.412.412,0,0,1,.261.173.618.618,0,0,1,.085.51.613.613,0,0,1-.072.164.6.6,0,0,1-.139.153.67.67,0,0,1-.187.1.869.869,0,0,1-.228.047,1.189,1.189,0,0,1-.261-.011.91.91,0,0,1-.175-.043.869.869,0,0,1-.158-.075.818.818,0,0,1-.137-.1.767.767,0,0,1-.11-.129,1.208,1.208,0,0,1-.165-.991,1.187,1.187,0,0,1,.4-.613,1.26,1.26,0,0,1,.343-.2A1.559,1.559,0,0,1,6.434.861a2.074,2.074,0,0,1,.474.013A1.73,1.73,0,0,1,7.24.952a1.577,1.577,0,0,1,.3.139,1.488,1.488,0,0,1,.257.2A1.468,1.468,0,0,1,8,1.533l.02.031.02.032.02.032.019.033a1.834,1.834,0,0,1,.178.423,1.775,1.775,0,0,1,.065.444,1.821,1.821,0,0,1-.048.45,1.966,1.966,0,0,1-.162.441,2.057,2.057,0,0,1-.284.42,2.008,2.008,0,0,1-1.3.678l-.08.008A3.363,3.363,0,0,1,6,4.553c-.162,0-.334-.009-.512-.026s-.361-.044-.546-.078-.37-.076-.552-.126A4.881,4.881,0,0,0,2.829,4.13a3.839,3.839,0,0,0-1.162.234,3.406,3.406,0,0,0-.755.393,2.278,2.278,0,0,0-.34.283L.55,5.059l-.021.019-.02.02ZM1.88,6.895l0,0,0,0,0,0,0,0a.565.565,0,0,1-.2.108.58.58,0,0,1-.61-.179.844.844,0,0,1-.094-.135.822.822,0,0,1-.1-.305.836.836,0,0,1,0-.163q0-.027.006-.053t.009-.052q.005-.026.012-.051T.9,6.032a.425.425,0,0,0,.026.143.421.421,0,0,0,.032.067.426.426,0,0,0,.646.11.211.211,0,0,1,.052-.033A.214.214,0,0,1,1.712,6.3a.217.217,0,0,1,.12.019A.215.215,0,0,1,1.9,6.37a.259.259,0,0,1,.047.071.38.38,0,0,1,.028.092.585.585,0,0,1,.008.112.387.387,0,0,1-.028.138.36.36,0,0,1-.031.061A.312.312,0,0,1,1.88,6.895Z" fill="url(#linear-gradient-17)"/>
        </g>
      </g>
    </g>
  </g>
</svg>
