<svg xmlns="http://www.w3.org/2000/svg" width="35.457" height="42.28" viewBox="0 0 35.457 42.28">
  <g id="그룹_18544" data-name="그룹 18544" transform="translate(-16.512 -15.318)">
    <path id="패스_7743" data-name="패스 7743" d="M34.281,57.582c-5.937,0-9.032-3.9-11.259-5.815s-2.66-1.791-4.949-3.4a2.626,2.626,0,0,1-.868-3.709,3.505,3.505,0,0,1-.678-2.538c0-1.917,4.143-4.206,4.143-4.206-1.8-1.856-1.731-9.651-1.731-9.651l.122-10.59s4.088-.156,7.081-.55a45.738,45.738,0,0,0,7.9-1.785,46.625,46.625,0,0,0,7.777,1.785c2.991.415,7.591.55,7.591.55l.123,10.59s.062,7.795-1.731,9.651c0,0,4.146,2.289,4.146,4.206a3.491,3.491,0,0,1-.682,2.538,2.624,2.624,0,0,1-.865,3.709c-2.289,1.614-2.725,1.486-4.949,3.4S40.14,57.582,34.2,57.582" fill="#001d66" stroke="#1a1311" stroke-width="0.031"/>
    <g id="그룹_18544-2" data-name="그룹 18544" transform="translate(17.694 39.487)">
      <path id="SVGID" d="M20.635,34.836c-.525.375-2.176,1.65-2.176,1.65a3.594,3.594,0,0,1-1.146-1.926c-.049-.626,2.746-2.972,2.746-2.972s-.01.67,1.373,1.85c1.349,1.149,2.323,1.847,2.6,2.048s1.125.875.777,1.2-.626.221-1.225-.128a5.315,5.315,0,0,1-1.424-1.324c-.3-.327-.8-.749-1.2-.6s-.324.2-.324.2" transform="translate(-17.313 -31.587)" fill="#c6a200"/>
    </g>
    <g id="그룹_18545" data-name="그룹 18545" transform="translate(43.271 39.487)">
      <path id="SVGID-2" data-name="SVGID" d="M38.776,34.836c.529.375,2.174,1.65,2.174,1.65A3.6,3.6,0,0,0,42.1,34.559c.048-.626-2.749-2.972-2.749-2.972s.01.67-1.372,1.85c-1.349,1.149-2.323,1.847-2.6,2.048s-1.123.875-.776,1.2.624.221,1.225-.128a5.293,5.293,0,0,0,1.421-1.324c.3-.327.8-.749,1.2-.6s.322.2.322.2" transform="translate(-34.523 -31.587)" fill="#c6a200"/>
    </g>
    <path id="패스_7744" data-name="패스 7744" d="M32.856,48.6c-.969,0-3.159-1.531-6.068-3.929a22.183,22.183,0,0,1-5.964-7.954c-1.531-3.055-1.278-7.7-1.278-7.7v-10.4l12.923-1.752L46,18.618v10.4s.256,4.643-1.275,7.7a22.188,22.188,0,0,1-5.965,7.954c-2.907,2.4-5.1,3.929-6.065,3.929" transform="translate(1.459 0.745)" fill="none" stroke="#fff" stroke-width="0.22"/>
    <path id="패스_7745" data-name="패스 7745" d="M28.533,22.422H39.827v4.54s.221,3.986-1.1,6.616a19.074,19.074,0,0,1-5.124,6.835c-2.5,2.06-4.38,3.375-5.212,3.375" transform="translate(5.769 3.445)" fill="#8d3618" stroke="#1a1311" stroke-width="0.22"/>
    <path id="패스_7746" data-name="패스 7746" d="M32.012,43.817c-.832,0-2.715-1.314-5.215-3.373a19.114,19.114,0,0,1-5.124-6.836C20.358,30.98,20.58,27,20.58,27V22.453h11.43" transform="translate(1.963 3.46)" fill="#00872e" stroke="#1a1311" stroke-width="0.22"/>
    <path id="패스_7747" data-name="패스 7747" d="M43.436,23.772V19.333L31.95,17.989,20.843,19.333v4.483l22.593-.044Z" transform="translate(2.098 1.291)" fill="#ebbf00"/>
    <path id="패스_7748" data-name="패스 7748" d="M22.17,38.731s.865-.141.947-.281-.085-.257-.085-.257l.247-.134s.843-.476,1.1-.664a9.913,9.913,0,0,0,.759-.67l.523.333.163-.1.939,1.164.177.528s.257.043.351-.079a.825.825,0,0,0,.125-.3l-.458-.321L26,36.885l-.19-.45s.291-.392.4-.4.251.144.251.144l.227-.165a1.38,1.38,0,0,1,.059-.354,2.871,2.871,0,0,1,.458-.446l5.314-4.284L37,27.371l2.645-2.161a2.75,2.75,0,0,0,.6-.542c.1-.2.266-.5.266-.5l.086-.236-.38.089" transform="translate(2.743 4.181)" fill="#fff" stroke="#000" stroke-width="0.11"/>
    <path id="패스_7749" data-name="패스 7749" d="M22.17,38.729s.3-.81.449-.859.244.132.244.132l.181-.211s.64-.713.88-.927.823-.6.823-.6l-.23-.565.129-.141-.985-1.129-.492-.272s.006-.256.147-.32a.832.832,0,0,1,.328-.061l.232.5.874,1.135.418.266s.452-.2.479-.3-.094-.267-.094-.267l.205-.186a1.373,1.373,0,0,0,.367.007,2.883,2.883,0,0,0,.536-.351L32,30.326l4.44-3.608L39.125,24.6a2.747,2.747,0,0,1,.657-.468c.223-.062.551-.159.551-.159" transform="translate(2.743 4.201)" fill="#fff" stroke="#000" stroke-width="0.11"/>
    <path id="패스_7750" data-name="패스 7750" d="M40.59,38.731s-.869-.141-.944-.281.079-.257.079-.257l-.245-.134s-.84-.476-1.1-.664-.759-.67-.759-.67l-.519.333-.166-.1-.941,1.164-.174.528s-.259.043-.352-.079a.825.825,0,0,1-.125-.3l.459-.321.964-1.064.187-.45s-.29-.392-.4-.4-.254.144-.254.144l-.224-.165a1.406,1.406,0,0,0-.061-.354,2.942,2.942,0,0,0-.453-.446L30.248,30.93,25.76,27.371,23.12,25.21a2.744,2.744,0,0,1-.6-.542l-.263-.5-.085-.236.379.089" transform="translate(2.743 4.181)" fill="#fff" stroke="#000" stroke-width="0.11"/>
    <path id="패스_7751" data-name="패스 7751" d="M40.509,38.729s-.3-.81-.452-.859-.241.132-.241.132l-.186-.211s-.639-.713-.88-.927-.819-.6-.819-.6l.224-.565-.125-.141.985-1.129.489-.272s0-.256-.147-.32a.809.809,0,0,0-.324-.061l-.233.5-.874,1.135-.416.266s-.453-.2-.481-.3.094-.267.094-.267l-.207-.186a1.361,1.361,0,0,1-.366.007,2.833,2.833,0,0,1-.536-.351l-5.334-4.259-4.446-3.608L23.554,24.6a2.735,2.735,0,0,0-.664-.468c-.218-.062-.547-.159-.547-.159" transform="translate(2.827 4.201)" fill="#fff" stroke="#000" stroke-width="0.11"/>
    <path id="패스_7752" data-name="패스 7752" d="M22.445,19.524a5.423,5.423,0,0,0,.1,1.223c.061.232.158.366.287.4V21.5a.466.466,0,0,1-.287-.193,1.546,1.546,0,0,1-.211-.51,1.4,1.4,0,0,1-.226.51.516.516,0,0,1-.275.193V21.15c.131-.037.226-.174.29-.4a5.215,5.215,0,0,0,.1-1.223h.217m.635.661v-.66h.21v2.506h-.21V20.49h-.343v-.3Z" transform="translate(2.579 2.037)" fill="#1a1311"/>
    <path id="패스_7753" data-name="패스 7753" d="M24.55,20.921v.716H23.334v.134H24.55v.306h-1.3a.1.1,0,0,1-.094-.048.3.3,0,0,1-.033-.168v-.513H24.34v-.131H23.123v-.3h.594v-.147h-.646V20.5h.4a.712.712,0,0,1-.073-.183.871.871,0,0,1-.03-.218.853.853,0,0,1,.143-.507.4.4,0,0,1,.331-.18.4.4,0,0,1,.324.18.824.824,0,0,1,.147.507.784.784,0,0,1-.031.218.928.928,0,0,1-.079.183h.407v.278h-.651v.147h.593m-.9-1.11a.532.532,0,0,0-.073.284.5.5,0,0,0,.073.266.22.22,0,0,0,.189.119.227.227,0,0,0,.187-.119.5.5,0,0,0,.073-.266.532.532,0,0,0-.073-.284.213.213,0,0,0-.376,0Z" transform="translate(3.18 1.98)" fill="#1a1311"/>
    <path id="패스_7754" data-name="패스 7754" d="M25.408,19.828H24.294v-.3h1.325v2.064h.122V21.9H24.207v-.309h1.2V20.7H24.3v-.3h1.11v-.567Z" transform="translate(3.732 2.037)" fill="#1a1311"/>
    <path id="패스_7755" data-name="패스 7755" d="M26.151,19.827h-.663v-.3h.875v1.089H25.7v.545h1V19.524h.211v2.528H26.7v-.59H25.616a.107.107,0,0,1-.094-.049.364.364,0,0,1-.034-.181V20.31h.663v-.483Z" transform="translate(4.355 2.037)" fill="#1a1311"/>
    <path id="패스_7756" data-name="패스 7756" d="M27.583,19.516a1.217,1.217,0,0,0,.166.684.594.594,0,0,0,.409.263V20.8a.769.769,0,0,1-.389-.18,1.042,1.042,0,0,1-.3-.465.988.988,0,0,1-.3.468.791.791,0,0,1-.388.177v-.336a.6.6,0,0,0,.412-.267,1.219,1.219,0,0,0,.165-.682h.233m.652,2.073V21.9H26.7v-.309Z" transform="translate(4.945 2.033)" fill="#1a1311"/>
    <path id="패스_7757" data-name="패스 7757" d="M28.89,19.975h-.334a.955.955,0,0,0,.08.377.372.372,0,0,0,.263.214v.328a.41.41,0,0,1-.244-.089.62.62,0,0,1-.211-.282.665.665,0,0,1-.223.285.411.411,0,0,1-.239.086v-.328a.373.373,0,0,0,.269-.214.973.973,0,0,0,.077-.377h-.337v-.3h.34v-.241h.227v.241h.331v.3h0m.528.437v.85h-.213V19.571h.213V20.1h.218v.308h-.218m-1.355.788h.211v.557h1.156v.3H28.19a.115.115,0,0,1-.1-.053.36.36,0,0,1-.031-.169V21.2Z" transform="translate(5.568 1.992)" fill="#1a1311"/>
    <path id="패스_7758" data-name="패스 7758" d="M30.168,19.815c.01.07.062.123.172.156a1.716,1.716,0,0,0,.4.051v.294a2.051,2.051,0,0,1-.392-.04.5.5,0,0,1-.322-.192.494.494,0,0,1-.321.192,2.117,2.117,0,0,1-.389.04v-.291a1.632,1.632,0,0,0,.4-.048c.111-.033.168-.088.174-.162h-.571v-.291h1.425v.291h-.571m.223,1.26a.9.9,0,0,1,.106.446.8.8,0,0,1-.149.5.393.393,0,0,1-.324.183.4.4,0,0,1-.331-.183.8.8,0,0,1-.15-.5.866.866,0,0,1,.111-.446.488.488,0,0,1,.262-.227v-.08H29.26v-.3h1.534v.3h-.663v.083a.487.487,0,0,1,.26.224h0m-.551.162a.459.459,0,0,0-.086.282.468.468,0,0,0,.086.282.2.2,0,0,0,.36,0,.441.441,0,0,0,.086-.282.432.432,0,0,0-.086-.282.2.2,0,0,0-.36,0Z" transform="translate(6.189 2.037)" fill="#1a1311"/>
    <path id="패스_7759" data-name="패스 7759" d="M31.956,21.588V21.9H30.422v-.309h.5V20.533h.209v1.055h.48v-1.76h-1.1v-.3h1.316v2.064Z" transform="translate(6.754 2.037)" fill="#1a1311"/>
    <path id="패스_7760" data-name="패스 7760" d="M31.845,20.343a.092.092,0,0,1-.092-.049.387.387,0,0,1-.031-.178v-.591h1.419v.3H31.934v.217h1.207v.3h-1.3m1.357.244v.3h-.391a.7.7,0,0,1,.113.223.863.863,0,0,1,.048.288.9.9,0,0,1-.168.565.442.442,0,0,1-.364.211.454.454,0,0,1-.372-.211.938.938,0,0,1-.162-.565,1.031,1.031,0,0,1,.039-.288.8.8,0,0,1,.12-.223h-.394v-.3H33.2m-.99.471a.683.683,0,0,0,0,.685.276.276,0,0,0,.224.14.262.262,0,0,0,.218-.14.673.673,0,0,0,0-.685.261.261,0,0,0-.218-.137.276.276,0,0,0-.224.137Z" transform="translate(7.361 2.037)" fill="#1a1311"/>
    <path id="패스_7761" data-name="패스 7761" d="M34.387,20.284v.49h-.213v-1.2h.213v.406H34.6v.3h-.217m-1.113-.229a.4.4,0,0,0-.059.218.388.388,0,0,0,.059.214.171.171,0,0,0,.143.094.152.152,0,0,0,.135-.094.323.323,0,0,0,.067-.214.336.336,0,0,0-.067-.218.15.15,0,0,0-.135-.089.169.169,0,0,0-.143.089h0m.486-.089a.516.516,0,0,1,.049.137.578.578,0,0,1,.016.16.759.759,0,0,1-.12.446.346.346,0,0,1-.284.168.352.352,0,0,1-.291-.168A.731.731,0,0,1,33,20.263a.817.817,0,0,1,.016-.16.66.66,0,0,1,.056-.137H32.95v-.294h.36v-.241h.232v.241h.339v.294h-.12m.627,2.11h-.213v-.722H33.029v-.309h1.358v1.031Z" transform="translate(7.983 1.992)" fill="#1a1311"/>
    <path id="패스_7762" data-name="패스 7762" d="M35.706,21.588V21.9H34.171v-.309h.247V20.533h.212v1.055h.237V20.533h.213v1.055h.287v-1.76h-1.1v-.3h1.312v2.064Z" transform="translate(8.576 2.037)" fill="#1a1311"/>
    <path id="패스_7763" data-name="패스 7763" d="M26.2,25.639a8.852,8.852,0,0,0-1.546.614c-.1.315-.715,6.583-.789,6.845.282.1,6.78.08,6.78.08" transform="translate(3.567 5.009)" fill="none" stroke="#302d2c" stroke-width="0.062"/>
    <path id="패스_7764" data-name="패스 7764" d="M26.25,25.715s-1.184-.021-1.6-.018c-.4.352-.908,7.254-.951,7.6.282.235,7.074.15,7.074.15" transform="translate(3.483 5.037)" fill="#e0e0e0" stroke="#302d2c" stroke-width="0.33"/>
    <path id="패스_7765" data-name="패스 7765" d="M32.9,25.676a7.788,7.788,0,0,1,1.44.6c.1.317.62,6.588.69,6.851-.287.1-6.771.181-6.771.181" transform="translate(5.704 5.027)" fill="#e0e0e0" stroke="#302d2c" stroke-width="0.062"/>
    <path id="패스_7766" data-name="패스 7766" d="M32.87,25.745s1.175-.027,1.592-.021c.4.354.8,7.26.841,7.61-.285.232-7.075.1-7.075.1" transform="translate(5.687 5.05)" fill="#e0e0e0" stroke="#302d2c" stroke-width="0.33"/>
    <path id="패스_7767" data-name="패스 7767" d="M29.966,25.769a6.073,6.073,0,0,0-.826-.177,5.213,5.213,0,0,0-1.554.08c-.753.119-1.841-.227-2.009-.065-.068.226-.531,6.961-.5,7.2.083.183.881.042.881.042l1.889-.205a7.69,7.69,0,0,1,1.271.052,3.16,3.16,0,0,1,.826.534l.024-7.46Z" transform="translate(4.154 4.972)" fill="#fff" stroke="#302d2c" stroke-width="0.165"/>
    <path id="패스_7768" data-name="패스 7768" d="M28.374,25.776a4.865,4.865,0,0,1,.847-.2,5.258,5.258,0,0,1,1.55.089c.75.125,1.791-.214,1.957-.051.062.227.477,6.982.449,7.222-.094.183-.969.043-.969.043l-1.8-.156a7.266,7.266,0,0,0-1.284.016,2.826,2.826,0,0,0-.777.5l.024-7.46Z" transform="translate(5.747 4.966)" fill="#fff" stroke="#302d2c" stroke-width="0.165"/>
    <path id="패스_7769" data-name="패스 7769" d="M23.746,36.953l-.7.875s-1.15-.7-2.375-1.326c-1.684-.863-.9-1.731-.6-1.774.9-.125,1.4.951,1.774,1.274s1.6,1.427,2.149.75c.422-.525-1.877-1.823-2.925-2.721s-2.333-2.113-1.825-2.523c.777-.626,2.549,1.574,2.549,1.574l-.875.8" transform="translate(1.266 7.807)" fill="#aa8000"/>
    <path id="패스_7770" data-name="패스 7770" d="M20.516,33.757a17.866,17.866,0,0,0-2.721,2.274,2.024,2.024,0,0,0,.6,2.5c1.123.749,3.4,1.822,4.146,2.373s1.874,1.5,3,2.419a19.25,19.25,0,0,0,4.045,2.874,20.324,20.324,0,0,0,4.219.8V42.1a7.274,7.274,0,0,1-2.7-.4,36.068,36.068,0,0,1-4.644-3.4,22.566,22.566,0,0,0-2.822-1.748c-.626-.364-1.575-.855-2.149-1.177s-1.024-.621-1.1-1a.824.824,0,0,1,.123-.623Z" transform="translate(0.523 8.955)" fill="#ffea65"/>
    <path id="패스_7771" data-name="패스 7771" d="M34.794,36.953l.7.875s1.147-.7,2.372-1.326c1.682-.863.9-1.731.6-1.774-.9-.125-1.4.951-1.776,1.274s-1.6,1.427-2.146.75c-.427-.525,1.872-1.823,2.922-2.721s2.333-2.113,1.825-2.523c-.777-.626-2.547,1.574-2.547,1.574l.872.8" transform="translate(8.733 7.807)" fill="#aa8000"/>
    <path id="패스_7772" data-name="패스 7772" d="M41.717,33.757a17.723,17.723,0,0,1,2.721,2.274,2.023,2.023,0,0,1-.6,2.5c-1.122.749-3.394,1.822-4.143,2.373s-1.872,1.5-3,2.419a19.3,19.3,0,0,1-4.048,2.874,20.1,20.1,0,0,1-4.219.777V42.082a7.1,7.1,0,0,0,2.7-.383,35.562,35.562,0,0,0,4.644-3.4,23.007,23.007,0,0,1,2.824-1.748c.629-.364,1.574-.855,2.147-1.177s1.027-.621,1.1-1a.82.82,0,0,0-.125-.623Z" transform="translate(5.784 8.955)" fill="#ffea65"/>
    <path id="패스_7773" data-name="패스 7773" d="M23.986,37.917a.974.974,0,0,0-.076-.244c-.015-.036,0-.055.034-.048a.239.239,0,0,1,.119.058.81.81,0,0,1,.1.106c.025.034.061.086.108.156l.037.049a.16.16,0,0,1,.031.116c0,.015-.028.039-.061.07a.355.355,0,0,0-.039.033c-.015.015-.025.028-.04.043l-.675.829a.932.932,0,0,1-.314.27.232.232,0,0,1-.2.028c-.031-.018-.034-.052-.01-.107a1.176,1.176,0,0,1,.161-.238l.791-.972a.186.186,0,0,0,.036-.15h0m-.75-.267a.074.074,0,0,0,.034.006.156.156,0,0,1,.052.012.436.436,0,0,1,.1.083c.083.089.122.147.116.172s-.036.031-.1.04l-.042.006a2.124,2.124,0,0,1-.259.08c-.086.018-.172.037-.26.053a.389.389,0,0,0,.036.083.379.379,0,0,0,.043.067.45.45,0,0,1,.07.135.386.386,0,0,1,0,.2.218.218,0,0,1-.061.114.117.117,0,0,1-.089.039A.112.112,0,0,1,22.8,38.7a.2.2,0,0,1-.033-.131l-.006-.221v-.137c0-.046,0-.082,0-.1a2.535,2.535,0,0,1-.6,0A2.882,2.882,0,0,1,21.666,38c-.064-.025-.092-.049-.085-.064s.051-.025.117-.013a2.752,2.752,0,0,0,.715-.009,2.456,2.456,0,0,0,.681-.177l-.168-.125c-.058-.036-.11-.07-.158-.1l-.052-.028a.159.159,0,0,1-.04-.012.188.188,0,0,1-.082-.049.655.655,0,0,1-.068-.169c-.016-.074-.016-.116,0-.138s.037-.009.061.025a2.674,2.674,0,0,0,.229.2c.077.061.193.146.343.259l.024.016a.248.248,0,0,0,.052.027h0m-1.109,1.036a.794.794,0,0,0-.1-.153c-.024-.036-.018-.056.03-.061a.191.191,0,0,1,.128.048c.037.03.077.065.125.11a.888.888,0,0,1,.125.122.142.142,0,0,1,.049.1c0,.018-.024.042-.058.076l-.055.064-.125.152a.213.213,0,0,0-.058.106.113.113,0,0,0,.055.085l.311.253a.224.224,0,0,0,.085.051c.019.006.039.01.067.016a.339.339,0,0,1,.108.028.718.718,0,0,1,.165.122.205.205,0,0,1,.064.11.107.107,0,0,1-.024.089.1.1,0,0,1-.08.036A.147.147,0,0,1,22.833,40l-.78-.638a.314.314,0,0,1-.131-.2.236.236,0,0,1,.059-.195l.14-.171a.118.118,0,0,0,.006-.119Z" transform="translate(2.456 10.585)" fill="#1a1311"/>
    <path id="패스_7774" data-name="패스 7774" d="M25.408,39.281a1,1,0,0,0-.051-.247c-.015-.04,0-.055.036-.049a.276.276,0,0,1,.114.068.757.757,0,0,1,.089.117c.021.034.052.089.1.162l.027.052a.156.156,0,0,1,.025.119.209.209,0,0,1-.067.064.215.215,0,0,0-.042.031.477.477,0,0,0-.043.039l-1.071,1.106a2.074,2.074,0,0,1-.483.4c-.1.055-.183.067-.232.04-.03-.022-.03-.058,0-.113a1.416,1.416,0,0,1,.21-.253l.428-.44a6.872,6.872,0,0,1-.7-.3,5.237,5.237,0,0,1-.516-.288.174.174,0,0,1-.052-.18.322.322,0,0,1,.064-.177l.288-.3a.163.163,0,0,0,.045-.137.368.368,0,0,0-.046-.155c-.019-.033-.016-.058,0-.064s.061,0,.1.033a1.135,1.135,0,0,1,.162.159,1.181,1.181,0,0,1,.149.2l.276.238.336-.346c-.043-.037-.092-.08-.15-.126-.076-.059-.143-.113-.195-.149a.148.148,0,0,0-.055-.031.128.128,0,0,0-.039-.021.223.223,0,0,1-.083-.067.94.94,0,0,1-.068-.22.146.146,0,0,1,.006-.11c.018-.022.039-.012.061.025.052.064.12.135.2.218s.214.192.374.33a.209.209,0,0,0,.04.021.082.082,0,0,0,.028,0,.134.134,0,0,1,.052.018.428.428,0,0,1,.1.1c.07.082.1.143.1.177s-.03.04-.079.055L24.8,39.3c-.082.046-.155.089-.217.129s-.119.071-.177.11a.124.124,0,0,1,.033.083.07.07,0,0,1-.027.055.1.1,0,0,1-.116-.006l-.465-.4-.308.317c-.022.025.079.116.3.279a4.4,4.4,0,0,0,.7.427l.837-.862a.191.191,0,0,0,.046-.149Z" transform="translate(3.233 11.172)" fill="#1a1311"/>
    <path id="패스_7775" data-name="패스 7775" d="M25.713,40.386a.25.25,0,1,0-.241.438.242.242,0,0,0,.2.019.226.226,0,0,0,.14-.117.255.255,0,0,0,.025-.183.238.238,0,0,0-.128-.158Z" transform="translate(4.284 12.161)" fill="#1a1311"/>
    <path id="패스_7776" data-name="패스 7776" d="M27.424,40.746a.5.5,0,0,0-.108-.159c-.034-.027-.043-.052-.016-.065a.223.223,0,0,1,.134-.013.4.4,0,0,1,.15.071,1.5,1.5,0,0,1,.177.122l.01.006c.058.045.076.091.052.138a1.333,1.333,0,0,1-.217.269l-.037.049a1.125,1.125,0,0,0,.134.079c.03.013.065.03.111.046a.514.514,0,0,1,.146.083.373.373,0,0,1,.088.186c.022.091,0,.152-.064.18a.164.164,0,0,1-.186-.071l-.076-.1c-.065-.089-.116-.153-.144-.186-.046-.058-.083-.1-.113-.137a2.334,2.334,0,0,1-.4.285,1.8,1.8,0,0,1-.44.189c-.08.022-.129.025-.144.006s.015-.039.08-.076a2.332,2.332,0,0,0,.461-.354,2.082,2.082,0,0,0,.367-.429l.012-.015a.136.136,0,0,0,.021-.107h0m1-.256a1.075,1.075,0,0,0-.193-.162c-.034-.024-.034-.043,0-.061a.241.241,0,0,1,.132-.015.674.674,0,0,1,.143.039q.058.02.174.071l.055.021c.051.027.082.052.089.082s0,.046-.015.092L28.8,40.6a.4.4,0,0,0-.012.061l-.122,1.061a1.028,1.028,0,0,1-.119.4.242.242,0,0,1-.158.132c-.033,0-.058-.028-.065-.086a.955.955,0,0,1,.007-.287l.146-1.242a.193.193,0,0,0-.053-.15h0m-1.155,1.648a.692.692,0,0,0-.16-.073c-.045-.021-.048-.04-.007-.07a.184.184,0,0,1,.131-.031c.046.006.1.016.162.025a1.684,1.684,0,0,1,.171.039c.054.013.083.031.1.058a.222.222,0,0,1-.01.1l-.01.082-.022.195a.247.247,0,0,0,.007.122.114.114,0,0,0,.094.042l.4.048a.279.279,0,0,0,.1-.006.321.321,0,0,0,.064-.025.426.426,0,0,1,.1-.03.7.7,0,0,1,.205.013.192.192,0,0,1,.113.058.111.111,0,0,1,.027.086.1.1,0,0,1-.048.077.154.154,0,0,1-.107.028l-1-.119a.318.318,0,0,1-.217-.092.225.225,0,0,1-.052-.2l.022-.215a.115.115,0,0,0-.058-.107Z" transform="translate(4.837 12.111)" fill="#1a1311"/>
    <path id="패스_7777" data-name="패스 7777" d="M29.15,40.718A.532.532,0,0,0,29,40.6c-.033-.021-.039-.04-.019-.061a.2.2,0,0,1,.128-.04.579.579,0,0,1,.169.031,1.165,1.165,0,0,1,.211.08c.061.03.088.07.082.111a.91.91,0,0,1-.114.241l-.028.058a.331.331,0,0,0,.129.061.372.372,0,0,0,.1.009.388.388,0,0,1,.122.019.564.564,0,0,1,.169.116.182.182,0,0,1,.055.122.116.116,0,0,1-.037.091.113.113,0,0,1-.1.037.242.242,0,0,1-.135-.052,2.606,2.606,0,0,0-.22-.159,1.981,1.981,0,0,0-.184-.122,1.789,1.789,0,0,1-.372.357,1.932,1.932,0,0,1-.4.226c-.073.027-.114.033-.125.015s.01-.043.074-.082a2.343,2.343,0,0,0,.37-.369,1.75,1.75,0,0,0,.276-.449l.009-.012a.13.13,0,0,0-.009-.107h0m.984-.3a.949.949,0,0,0-.221-.125c-.039-.015-.04-.037-.007-.061a.236.236,0,0,1,.126-.037.587.587,0,0,1,.146.012c.04.007.1.016.186.034l.056.015a.168.168,0,0,1,.106.061.2.2,0,0,1,0,.092c0,.025,0,.039-.006.049s0,.042,0,.061l.031.5a1,1,0,0,1-.039.424.235.235,0,0,1-.131.153c-.033.006-.061-.022-.082-.077a1.2,1.2,0,0,1-.045-.279l-.048-.682a.194.194,0,0,0-.079-.135h0m.11,1.311.022-.015a.175.175,0,0,1,.049-.031.578.578,0,0,1,.141,0c.092,0,.144.019.155.042s.006.042-.006.085l-.021.061-.048.269a.132.132,0,0,1,.085.021.048.048,0,0,1,.028.043.046.046,0,0,1-.028.045.093.093,0,0,1-.065.022l-.77.079.01.195c0,.04.015.064.039.076a.2.2,0,0,0,.12.019L30.3,42.6a.483.483,0,0,0,.107-.03.336.336,0,0,0,.059-.034.339.339,0,0,1,.082-.039.823.823,0,0,1,.21-.022.186.186,0,0,1,.125.034.1.1,0,0,1,.042.08.1.1,0,0,1-.03.08.131.131,0,0,1-.1.045l-1.054.071a.25.25,0,0,1-.186-.045.186.186,0,0,1-.071-.152l-.01-.169a.137.137,0,0,0-.059-.094.253.253,0,0,0-.12-.052c-.025-.009-.043-.024-.043-.037s.018-.036.054-.051a.751.751,0,0,1,.186-.019,1.364,1.364,0,0,1,.266.028l.536-.055-.021-.281c-.1.006-.2.015-.306.028s-.19.021-.29.039a.294.294,0,0,0-.067.016c-.009.006-.031.009-.051.018a.2.2,0,0,1-.092.018.6.6,0,0,1-.168-.067c-.051-.024-.085-.055-.091-.088s0-.043.031-.043a1.9,1.9,0,0,0,.288.01c.155-.01.366-.025.62-.056l.053,0a.369.369,0,0,0,.037-.012Z" transform="translate(5.783 12.082)" fill="#1a1311"/>
    <path id="패스_7778" data-name="패스 7778" d="M31.215,40.444a.227.227,0,0,0-.116.163.246.246,0,0,0,.045.18.224.224,0,0,0,.141.108.226.226,0,0,0,.2-.033A.243.243,0,0,0,31.6,40.7a.252.252,0,0,0-.034-.178.264.264,0,0,0-.152-.113.244.244,0,0,0-.2.039Z" transform="translate(7.081 12.183)" fill="#1a1311"/>
    <path id="패스_7779" data-name="패스 7779" d="M32.767,38.81a1.144,1.144,0,0,0-.311.043c-.037.006-.051-.006-.039-.049a.153.153,0,0,1,.061-.091,1.062,1.062,0,0,1,.181-.113,2.469,2.469,0,0,1,.238-.117.119.119,0,0,1,.116,0,.339.339,0,0,1,.067.085.386.386,0,0,0,.025.037c.007.015.019.024.027.04l.593.7a.348.348,0,0,0,.056-.064.145.145,0,0,0,.018-.048.319.319,0,0,1,.031-.074.553.553,0,0,1,.137-.122A.162.162,0,0,1,34.085,39a.121.121,0,0,1,.092.043.176.176,0,0,1,.031.092.118.118,0,0,1-.043.092l-.321.266.339.407a1.31,1.31,0,0,1,.278.443.272.272,0,0,1,0,.242c-.016.027-.055.024-.1-.009a1.072,1.072,0,0,1-.19-.186l-1.257-1.5a.2.2,0,0,0-.143-.074h0m-.354.92a.74.74,0,0,0-.192-.009c-.037,0-.055-.01-.049-.042a.191.191,0,0,1,.076-.1.474.474,0,0,1,.159-.076,1.8,1.8,0,0,1,.217-.061.182.182,0,0,1,.085.006.085.085,0,0,1,.051.055.631.631,0,0,1,.036.134c.007.039.019.119.037.238l.021.128a.781.781,0,0,0,.192-.025.832.832,0,0,0,.141-.039.579.579,0,0,1,.177-.033.353.353,0,0,1,.2.085.211.211,0,0,1,.077.092.086.086,0,0,1-.006.085.128.128,0,0,1-.086.049.4.4,0,0,1-.159-.009L33.3,40.19c-.117-.015-.2-.027-.257-.037-.1-.01-.165-.016-.193-.016a2.657,2.657,0,0,1-.086.48,2.153,2.153,0,0,1-.174.44q-.065.1-.1.089c-.016-.01-.016-.048,0-.117a1.634,1.634,0,0,0,.065-.606,2.292,2.292,0,0,0-.082-.6v-.012a.132.132,0,0,0-.068-.083Z" transform="translate(7.604 11.244)" fill="#1a1311"/>
    <path id="패스_7780" data-name="패스 7780" d="M34.353,37.555a.914.914,0,0,0-.254.046c-.048.012-.059-.006-.048-.046a.229.229,0,0,1,.071-.1.873.873,0,0,1,.158-.107c.073-.04.153-.086.229-.125a.139.139,0,0,1,.116-.006.342.342,0,0,1,.064.085c.012.018.018.031.028.037a.217.217,0,0,0,.028.039l.45.534a.2.2,0,0,0,.056-.07.206.206,0,0,0,.018-.049.427.427,0,0,1,.033-.064.563.563,0,0,1,.114-.1.159.159,0,0,1,.108-.04.137.137,0,0,1,.085.043.135.135,0,0,1,.037.082.1.1,0,0,1-.037.079l-.309.263a.65.65,0,0,1,.149.287.211.211,0,0,1-.025.2c-.019.031-.061.028-.111-.013a1.067,1.067,0,0,1-.174-.18l-.079-.094a4.4,4.4,0,0,1-.311.536,4.213,4.213,0,0,1-.36.493c-.033.043-.094.055-.18.04a.322.322,0,0,1-.165-.076l-.153-.186a.171.171,0,0,0-.128-.067.342.342,0,0,0-.156.03c-.039.018-.059.012-.061-.015a.156.156,0,0,1,.039-.1,1.952,1.952,0,0,1,.169-.143,1.487,1.487,0,0,1,.213-.123l.279-.257-.2-.233c-.045.045-.1.089-.143.138s-.1.114-.152.169a.33.33,0,0,0-.036.048.2.2,0,0,0-.025.036.2.2,0,0,1-.073.076.828.828,0,0,1-.229.049.156.156,0,0,1-.108-.019c-.016-.013-.006-.036.034-.056a2.273,2.273,0,0,0,.235-.18c.092-.077.211-.186.358-.33.007-.015.018-.024.018-.036a.044.044,0,0,0,.007-.03.37.37,0,0,1,.025-.048.441.441,0,0,1,.106-.085c.092-.058.152-.089.19-.082.013,0,.027.024.033.073l.012.046.019.073c.022.058.034.1.043.122a1.02,1.02,0,0,0,.036.1.155.155,0,0,1,.086-.024.08.08,0,0,1,.051.034.061.061,0,0,1,.015.056.1.1,0,0,1-.033.058l-.459.429.187.221c.018.022.114-.061.294-.254a4.577,4.577,0,0,0,.449-.577l-.487-.574a.153.153,0,0,0-.146-.051h0m.854,1.1a.039.039,0,0,1,.034.024l.021.025a.586.586,0,0,1,.416-.071.432.432,0,0,1,.284.19.449.449,0,0,1,.07.331.63.63,0,0,1-.229.363.594.594,0,0,1-.386.165.428.428,0,0,1-.312-.116.411.411,0,0,1-.147-.287.5.5,0,0,1,.1-.36c.028-.046.049-.079.045-.1s-.016-.039-.045-.048-.037-.025-.021-.051a.118.118,0,0,1,.076-.048l.006-.01a.3.3,0,0,1,.086-.007h0m.013.481a.213.213,0,0,0,.054.169.219.219,0,0,0,.158.083.3.3,0,0,0,.214-.076.265.265,0,0,0,.1-.186.221.221,0,0,0-.056-.168.207.207,0,0,0-.153-.08.282.282,0,0,0-.2.065.3.3,0,0,0-.11.192Z" transform="translate(8.14 10.634)" fill="#1a1311"/>
  </g>
</svg>
