<svg xmlns="http://www.w3.org/2000/svg" width="36.781" height="37.923" viewBox="0 0 36.781 37.923">
  <g id="그룹_18910" data-name="그룹 18910" transform="translate(1.39 1.013)">
    <path id="패스_36332" data-name="패스 36332" d="M845.233,2822.368a8.12,8.12,0,1,0,11.288,2.105A8.119,8.119,0,0,0,845.233,2822.368Zm7.66,11.174A5.428,5.428,0,1,1,854.3,2826,5.429,5.429,0,0,1,852.893,2833.542Z" transform="translate(-828.809 -2802.999)" fill="#fff" stroke="#000" stroke-linecap="round" stroke-linejoin="round" stroke-width="2"/>
    <ellipse id="타원_142" data-name="타원 142" cx="14.878" cy="8.363" rx="14.878" ry="8.363" transform="translate(0 21.725) rotate(-34.433)" fill="#fff" stroke="#333" stroke-linecap="round" stroke-linejoin="round" stroke-width="2"/>
    <path id="패스_36333" data-name="패스 36333" d="M841.367,2803.951a7.2,7.2,0,1,0-6.585,11.235c1.054.683,4.632,3.157,5.228,5.637a2.1,2.1,0,0,1-.162,2.546s1.26.391,4.74-1.994,3.569-3.7,3.569-3.7a2.1,2.1,0,0,1-2.434-.766c-2.1-1.45-3.116-5.679-3.373-6.909A7.179,7.179,0,0,0,841.367,2803.951Z" transform="translate(-827.353 -2800.823)" fill="#fff" stroke="#000" stroke-linecap="round" stroke-linejoin="round" stroke-width="2"/>
  </g>
</svg>
