<svg xmlns="http://www.w3.org/2000/svg" width="121.45" height="51.326" viewBox="0 0 121.45 51.326">
  <g id="그룹_18892" data-name="그룹 18892" transform="translate(-548.119 -57.623)" opacity="0.8">
    <path id="패스_36286" data-name="패스 36286" d="M549.077,84.189q1.372,5.9,2.54,11.847c.843,4.294,1.6,8.6,2.357,12.913L669.569,87.076a93.843,93.843,0,0,1-2.581-12.413,16.494,16.494,0,0,0-1.22-5.117,5.684,5.684,0,0,1-.762-1.9,9.951,9.951,0,0,1,.136-1.563,6.989,6.989,0,0,0-.38-2.318c-.332-1.757-1.85-4.276-1.659-6.145L548.119,79.38C548.608,80.883,548.762,82.833,549.077,84.189Z" fill="#84c5d1" opacity="0.8"/>
  </g>
</svg>
