<svg xmlns="http://www.w3.org/2000/svg" width="165.808" height="151.813" viewBox="0 0 165.808 151.813">
  <g id="repair_icon" data-name="repair icon" transform="translate(-4.418 -80.01)">
    <g id="그룹_18759" data-name="그룹 18759" transform="translate(4.418 80.01)">
      <path id="패스_36178" data-name="패스 36178" d="M78.41,148.594,55.464,125.648l6.638-6.637,22.946,22.945,3.778-3.777L64.73,114.085l6.936-6.935c.055-.055.106-.113.156-.172s.109-.093.161-.145L84.527,94.288a2.67,2.67,0,0,0,.034-3.743l-.142-.149c-.119-.125-.238-.249-.36-.372C77.787,83.754,69.646,80.01,62.282,80.01a17.01,17.01,0,0,0-12.357,4.764,2.645,2.645,0,0,0-.19.213c-.041.036-.082.071-.121.11L21.162,113.549a2.672,2.672,0,0,0,0,3.778l4.2,4.2L21.894,125l-4.2-4.2a2.671,2.671,0,0,0-3.778,0L5.2,129.511a2.671,2.671,0,0,0,0,3.777l18.275,18.275a2.671,2.671,0,0,0,3.778,0l8.712-8.714a2.671,2.671,0,0,0,0-3.777l-4.2-4.2,3.471-3.471,4.2,4.2a2.672,2.672,0,0,0,3.777,0l7.325-7.325,24.095,24.095ZM62.282,85.352c5.444,0,11.509,2.619,16.545,7.081l-8.733,8.733L55.847,86.919A12.866,12.866,0,0,1,62.282,85.352ZM25.364,145.9l-14.5-14.5,4.936-4.936,14.5,14.5Zm2.814-15-2.314-2.314,3.278-3.278,2.314,2.314Zm13.147-.964-14.5-14.5L51.5,90.763l14.5,14.5Z" transform="translate(-4.418 -80.01)" fill="#e5e5e5"/>
      <path id="패스_36179" data-name="패스 36179" d="M1086.138,1017.416l-54.959-54.958-3.777,3.777,53.07,53.07-6.637,6.638-53.071-53.071-3.777,3.778,54.959,54.959a2.671,2.671,0,0,0,3.778,0l10.414-10.416A2.671,2.671,0,0,0,1086.138,1017.416Z" transform="translate(-923.253 -880.77)" fill="#e5e5e5"/>
    </g>
    <path id="패스_36180" data-name="패스 36180" d="M307.342,98.085a2.67,2.67,0,0,0-4.41-1.008l-10.792,10.791L282.021,97.75l10.792-10.791a2.671,2.671,0,0,0-1.008-4.411,25.337,25.337,0,0,0-31.886,33.3L191.765,184a25.331,25.331,0,0,0-33.3,31.886,2.672,2.672,0,0,0,4.411,1.008L173.669,206.1l10.119,10.118L173,227.014A2.671,2.671,0,0,0,174,231.425a25.326,25.326,0,0,0,8.366,1.417h0a25.316,25.316,0,0,0,23.508-34.709l68.164-68.162a25.281,25.281,0,0,0,9.4,1.8h0a25.151,25.151,0,0,0,17.9-7.415A25.473,25.473,0,0,0,307.342,98.085ZM196.495,221.647a19.844,19.844,0,0,1-14.124,5.852h0a20.525,20.525,0,0,1-2.185-.118l9.27-9.27a2.671,2.671,0,0,0,0-3.778l-13.9-13.9a2.672,2.672,0,0,0-3.777,0l-9.264,9.264a20.117,20.117,0,0,1,5.727-16.306,19.977,19.977,0,0,1,28.251,28.252Zm7.06-28.746-6.567-6.568L262.019,121.3l6.568,6.567Zm94.01-72.324a19.977,19.977,0,1,1-14.126-34.1,20.162,20.162,0,0,1,2.185.118l-9.27,9.269a2.67,2.67,0,0,0,0,3.777l13.9,13.9a2.672,2.672,0,0,0,3.778,0l9.264-9.264A20.117,20.117,0,0,1,297.565,120.577Z" transform="translate(-138.516 -1.018)" fill="#e5e5e5"/>
  </g>
</svg>
